<svg xmlns="http://www.w3.org/2000/svg" width="241" height="52" viewBox="0 0 241 52">
  <g id="Group_598" data-name="Group 598" transform="translate(-2753 -85)">
    <path id="Path_77" data-name="Path 77" d="M13,0H228a13,13,0,0,1,13,13V39a13,13,0,0,1-13,13H13A13,13,0,0,1,0,39V13A13,13,0,0,1,13,0Z" transform="translate(2753 85)" fill="#0d0d0d"/>
    <text id="First_name_so_we_ca" data-name="First name (so we ca" transform="translate(2807 102.648)" fill="#fff" font-size="16" font-family="SFProText-Semibold, SF Pro Text" font-weight="600" letter-spacing="-0.024em"><tspan x="0" y="15">Continue with Apple</tspan></text>
    <path id="Icon_simple-apple" data-name="Icon simple-apple" d="M9.821,31.445A7.181,7.181,0,0,1,8.16,29.909a20.6,20.6,0,0,1-1.421-1.941,18.78,18.78,0,0,1-2.377-4.855,18.256,18.256,0,0,1-.992-5.8,10.789,10.789,0,0,1,1.338-5.461,7.718,7.718,0,0,1,2.8-2.913A7.477,7.477,0,0,1,11.3,7.812a6.261,6.261,0,0,1,1.509.2c.387.107.855.28,1.429.494.734.28,1.135.454,1.268.494a3.128,3.128,0,0,0,1.068.227,3.2,3.2,0,0,0,.861-.174c.194-.067.561-.187,1.082-.414.515-.187.924-.347,1.248-.467a11.143,11.143,0,0,1,1.4-.347A6.618,6.618,0,0,1,22.7,7.759a9.093,9.093,0,0,1,2.59.561,6.988,6.988,0,0,1,3.281,2.617,6.572,6.572,0,0,0-.968.734,8.175,8.175,0,0,0-1.642,2.01,6.809,6.809,0,0,0-.86,3.365,6.891,6.891,0,0,0,1.122,3.819,7.118,7.118,0,0,0,2.048,2.051,5.249,5.249,0,0,0,1.122.6c-.16.5-.336.988-.541,1.469a18.946,18.946,0,0,1-1.669,3.084c-.577.841-1.031,1.469-1.375,1.883a7.444,7.444,0,0,1-1.576,1.465A3.508,3.508,0,0,1,22.3,32a4.3,4.3,0,0,1-1.381-.17c-.387-.127-.769-.27-1.143-.431a9.266,9.266,0,0,0-1.208-.454,6.034,6.034,0,0,0-1.554-.2,6.231,6.231,0,0,0-1.549.194,9.623,9.623,0,0,0-1.211.434c-.561.234-.928.387-1.142.454a5.97,5.97,0,0,1-1.322.234,3.671,3.671,0,0,1-1.984-.6ZM18.973,6.8a4.973,4.973,0,0,1-2.634.582,5.354,5.354,0,0,1,.361-2.72,7.353,7.353,0,0,1,1.335-2.243A7.222,7.222,0,0,1,20.211.733,6.192,6.192,0,0,1,22.734,0,6.07,6.07,0,0,1,22.4,2.762a7.929,7.929,0,0,1-1.335,2.35,6.736,6.736,0,0,1-2.118,1.682Z" transform="translate(2764.629 92.123)" fill="#fff"/>
  </g>
</svg>
