<?xml version="1.0" standalone="no"?>
<!DOCTYPE svg PUBLIC "-//W3C//DTD SVG 20010904//EN"
 "http://www.w3.org/TR/2001/REC-SVG-20010904/DTD/svg10.dtd">
<svg version="1.0" xmlns="http://www.w3.org/2000/svg"
 width="512.000000pt" height="512.000000pt" viewBox="0 0 512.000000 512.000000"
 preserveAspectRatio="xMidYMid meet">

<g transform="translate(0.000000,512.000000) scale(0.100000,-0.100000)"
fill="#000000" stroke="none">
<path d="M1677 4406 c-151 -56 -220 -217 -153 -357 14 -29 1344 -1371 1439
-1451 15 -13 27 -27 27 -32 0 -4 -323 -333 -717 -731 -394 -398 -726 -741
-737 -762 -27 -51 -29 -172 -3 -224 24 -48 71 -96 121 -122 59 -31 164 -30
228 1 35 18 248 226 876 860 782 790 830 840 847 891 23 71 16 155 -18 214
-38 62 -1662 1669 -1717 1697 -54 28 -142 35 -193 16z"/>
</g>
</svg>
