<?xml version="1.0" standalone="no"?>
<!DOCTYPE svg PUBLIC "-//W3C//DTD SVG 20010904//EN"
 "http://www.w3.org/TR/2001/REC-SVG-20010904/DTD/svg10.dtd">
<svg version="1.0" xmlns="http://www.w3.org/2000/svg"
 width="512.000000pt" height="512.000000pt" viewBox="0 0 512.000000 512.000000"
 preserveAspectRatio="xMidYMid meet">

<g transform="translate(0.000000,512.000000) scale(0.100000,-0.100000)"
fill="#000000" stroke="none">
<path d="M3260 4404 c-39 -13 -156 -127 -877 -852 -588 -591 -839 -850 -855
-882 -34 -68 -33 -179 4 -240 38 -64 1661 -1671 1719 -1701 61 -32 166 -33
225 -2 49 26 98 73 122 117 23 44 23 178 -1 226 -14 30 -1349 1375 -1439 1452
-16 13 -28 27 -28 32 0 4 323 333 717 731 394 398 726 741 737 762 27 51 29
172 3 224 -24 48 -72 96 -121 121 -53 27 -147 32 -206 12z"/>
</g>
</svg>
