<svg xmlns="http://www.w3.org/2000/svg" width="30" height="30" viewBox="0 0 40.281 22.089">
  <g id="Group_838" data-name="Group 838" transform="translate(5972.72 -5633.355)">
    <circle id="Ellipse_28" data-name="Ellipse 28" cx="5.71" cy="5.71" r="5.71" transform="translate(-5958.29 5634)" fill="#c4c4c4"/>
    <circle id="Ellipse_30" data-name="Ellipse 30" cx="4.355" cy="4.355" r="4.355" transform="translate(-5969.29 5633.355)" fill="#c4c4c4"/>
    <circle id="Ellipse_31" data-name="Ellipse 31" cx="4.355" cy="4.355" r="4.355" transform="translate(-5944.579 5633.355)" fill="#c4c4c4"/>
    <path id="Path_148" data-name="Path 148" d="M-6002.938,5647.417h22.828v-3.367c0-1.081-2.788-2.209-5.681-3.366a15.73,15.73,0,0,0-5.892-1.262,17.7,17.7,0,0,0-5.806,1.518l-.14.058c-1.6.678-5.274,2.261-5.311,3.053S-6002.938,5647.417-6002.938,5647.417Z" transform="translate(38.955 8.028)" fill="#c4c4c4"/>
    <path id="Path_150" data-name="Path 150" d="M-6002.943,5644.87h15.559v-2.294c0-.737-1.9-1.506-3.872-2.295a10.744,10.744,0,0,0-4.016-.86,12.084,12.084,0,0,0-3.957,1.035l-.1.04c-1.09.462-3.595,1.541-3.62,2.081S-6002.943,5644.87-6002.943,5644.87Z" transform="translate(30.235 4.031)" fill="#c4c4c4"/>
    <path id="Path_151" data-name="Path 151" d="M-6002.943,5644.87h15.559v-2.294c0-.737-1.9-1.506-3.872-2.295a10.744,10.744,0,0,0-4.016-.86,12.084,12.084,0,0,0-3.957,1.035l-.1.04c-1.09.462-3.595,1.541-3.62,2.081S-6002.943,5644.87-6002.943,5644.87Z" transform="translate(54.945 4.031)" fill="#c4c4c4"/>
  </g>
</svg>
