<svg xmlns="http://www.w3.org/2000/svg" width="15" height="13.331" viewBox="0 0 15 13.331">
  <path id="Icon_awesome-edit" data-name="Icon awesome-edit" d="M10.484,2.171,12.833,4.52a.255.255,0,0,1,0,.359L7.146,10.567l-2.417.268a.507.507,0,0,1-.56-.56l.268-2.417,5.688-5.687A.255.255,0,0,1,10.484,2.171Zm4.219-.6L13.432.3a1.019,1.019,0,0,0-1.437,0l-.922.922a.255.255,0,0,0,0,.359l2.349,2.349a.255.255,0,0,0,.359,0l.922-.922a1.019,1.019,0,0,0,0-1.437ZM10,9.02v2.651H1.667V3.338H7.651a.32.32,0,0,0,.221-.091L8.914,2.2a.313.313,0,0,0-.221-.534H1.25A1.25,1.25,0,0,0,0,2.921v9.167a1.25,1.25,0,0,0,1.25,1.25h9.167a1.25,1.25,0,0,0,1.25-1.25V7.978a.313.313,0,0,0-.534-.221L10.091,8.8A.32.32,0,0,0,10,9.02Z" transform="translate(0 -0.007)" fill="#007aff"/>
</svg>
