<svg xmlns="http://www.w3.org/2000/svg" width="241" height="51" viewBox="0 0 241 51">
  <g id="Group_599" data-name="Group 599" transform="translate(-2753 -145)">
    <rect id="Rectangle_21" data-name="Rectangle 21" width="241" height="51" rx="12" transform="translate(2753 145)" fill="#485a95"/>
    <path id="Icon_simple-facebook" data-name="Icon simple-facebook" d="M33.3,16.65A16.65,16.65,0,1,0,14.048,33.1V21.463H9.821V16.65h4.227V12.982c0-4.173,2.486-6.478,6.289-6.478a25.606,25.606,0,0,1,3.727.325v4.1h-2.1a2.406,2.406,0,0,0-2.713,2.6V16.65h4.618l-.738,4.813h-3.88V33.1A16.654,16.654,0,0,0,33.3,16.65Z" transform="translate(2765 154.25)" fill="#fff"/>
    <text id="First_name_so_we_ca" data-name="First name (so we ca" transform="translate(2807 161)" fill="#fff" font-size="16" font-family="SFProText-Semibold, SF Pro Text" font-weight="600" letter-spacing="-0.024em"><tspan x="0" y="15">Continue with Facebook</tspan></text>
  </g>
</svg>
