<svg id="svg" version="1.1" xmlns="http://www.w3.org/2000/svg" xmlns:xlink="http://www.w3.org/1999/xlink" width="400" height="308.3333333333333" viewBox="0, 0, 400,308.3333333333333"><g id="svgg"><path id="path0" d="M173.786 28.412 C 167.813 28.654,166.741 28.842,165.150 29.920 C 162.333 31.830,160.643 32.435,153.964 33.931 C 150.065 34.804,141.080 36.083,138.850 36.083 C 136.616 36.083,133.303 37.326,132.546 38.449 C 131.009 40.727,126.523 43.137,122.551 43.817 C 118.723 44.472,116.837 45.442,114.021 48.199 C 111.255 50.909,109.021 52.181,105.896 52.826 C 103.616 53.297,102.895 53.814,102.394 55.339 C 101.788 57.185,99.507 59.280,97.376 59.949 C 95.153 60.647,93.398 62.070,92.706 63.738 C 91.982 65.482,90.612 66.843,88.702 67.718 C 86.669 68.649,85.397 69.971,84.168 72.431 C 83.200 74.368,81.444 75.919,79.722 76.357 C 79.013 76.538,76.796 79.399,76.786 80.147 C 76.761 81.996,74.668 84.542,72.308 85.595 C 70.296 86.493,70.070 86.799,69.380 89.559 C 68.757 92.053,67.590 94.616,66.767 95.298 C 66.486 95.532,65.852 96.309,65.360 97.025 C 64.868 97.740,64.003 98.611,63.438 98.960 C 62.287 99.671,61.077 102.659,60.435 106.373 C 59.813 109.974,57.198 114.632,55.057 115.956 C 53.874 116.687,52.892 119.750,52.584 123.670 C 51.700 134.915,49.422 144.244,46.412 148.944 C 45.171 150.880,44.892 154.181,44.884 167.001 C 44.876 180.623,45.115 183.033,46.721 185.505 C 49.636 189.996,50.852 194.579,52.121 205.860 C 53.013 213.791,53.620 216.022,55.260 217.406 C 57.729 219.489,59.678 223.194,60.461 227.294 C 61.134 230.816,62.146 232.928,63.678 234.008 C 66.079 235.700,68.718 240.277,69.409 243.948 C 69.867 246.385,70.249 246.855,72.659 247.948 C 74.835 248.935,75.907 250.163,76.763 252.651 C 77.622 255.147,78.808 256.776,80.160 257.317 C 81.895 258.011,83.146 259.210,84.037 261.030 C 85.056 263.112,86.355 264.364,88.673 265.496 C 90.864 266.566,91.953 267.645,92.820 269.606 C 93.625 271.426,95.227 272.762,97.436 273.455 C 99.483 274.097,101.703 276.153,102.355 278.011 C 102.889 279.529,103.732 280.230,105.320 280.475 C 107.140 280.755,109.505 281.579,110.600 282.314 C 113.042 283.953,115.018 285.636,115.595 286.568 C 116.311 287.725,119.423 289.086,122.473 289.576 C 127.442 290.374,131.297 292.358,132.892 294.940 C 133.683 296.219,136.372 297.193,139.861 297.464 C 151.194 298.342,161.211 300.678,165.844 303.521 C 166.819 304.120,166.847 304.195,166.847 306.270 L 166.847 308.404 183.655 308.404 L 200.463 308.404 200.463 306.236 L 200.463 304.068 204.552 302.078 C 209.483 299.679,211.571 299.187,221.588 298.062 C 228.260 297.312,232.845 296.343,232.845 295.680 C 232.845 293.879,238.697 290.523,243.177 289.754 C 246.639 289.160,249.589 287.954,250.151 286.903 C 251.411 284.549,256.235 281.629,260.222 280.807 C 263.023 280.230,263.893 279.669,264.350 278.144 C 265.022 275.898,268.460 272.955,270.426 272.941 C 271.182 272.935,273.316 270.994,273.776 269.893 C 274.573 267.986,275.727 266.801,277.765 265.798 C 279.900 264.747,281.244 263.328,282.370 260.937 C 283.192 259.193,284.380 258.049,286.214 257.239 C 287.934 256.478,289.316 254.814,290.039 252.632 C 290.769 250.428,292.133 248.952,294.382 247.931 C 296.489 246.974,296.744 246.597,297.421 243.420 C 298.181 239.861,300.425 236.192,303.036 234.241 C 304.526 233.127,305.745 230.446,306.252 227.165 C 307.036 222.095,309.220 218.081,312.160 216.307 C 312.910 215.855,313.903 212.487,314.104 209.715 C 314.699 201.483,316.127 193.482,317.566 190.309 C 321.057 182.616,320.868 183.299,321.539 175.944 C 322.757 162.576,322.197 151.740,320.243 150.850 C 319.007 150.287,317.161 148.404,316.579 147.114 C 315.498 144.715,313.658 144.024,308.366 144.028 C 302.902 144.031,301.461 144.621,299.822 147.524 C 299.174 148.673,298.391 149.517,297.344 150.195 C 294.878 151.793,294.527 152.995,294.520 159.872 C 294.487 190.954,293.282 199.885,288.653 203.364 C 287.886 203.941,287.391 204.601,287.267 205.215 C 284.976 216.505,284.598 217.535,281.706 220.355 C 280.315 221.712,279.072 223.169,278.945 223.593 C 276.988 230.115,274.755 233.795,272.044 234.961 C 270.331 235.698,269.485 236.768,268.828 239.029 C 268.126 241.442,266.567 243.146,264.311 243.969 C 262.106 244.773,261.458 245.428,260.604 247.718 C 259.787 249.909,258.177 251.367,255.734 252.130 C 253.384 252.864,252.155 253.851,251.520 255.514 C 250.554 258.041,246.336 260.523,239.939 262.325 C 239.179 262.539,238.146 263.533,236.454 265.680 C 235.080 267.422,233.106 268.200,226.609 269.559 C 223.343 270.243,220.593 270.901,220.497 271.022 C 218.313 273.789,217.855 274.216,216.180 275.053 C 211.846 277.219,193.214 278.252,170.856 277.566 C 154.138 277.054,150.059 276.157,146.614 272.236 C 145.511 270.980,138.217 268.620,135.441 268.620 C 133.936 268.620,131.348 267.114,129.067 264.910 C 126.532 262.462,125.892 262.111,119.469 259.650 C 117.553 258.916,115.975 257.444,115.093 255.569 C 114.440 254.178,112.750 252.586,111.922 252.580 C 109.870 252.566,106.784 249.890,105.961 247.412 C 105.330 245.513,104.568 244.789,102.320 243.951 C 100.132 243.134,98.586 241.433,97.850 239.031 C 97.146 236.731,96.169 235.494,94.579 234.886 C 91.993 233.899,89.919 230.534,87.902 224.056 C 87.526 222.850,85.972 221.082,84.359 220.025 C 82.616 218.883,81.987 217.228,80.322 209.406 C 79.579 205.918,79.009 203.914,78.711 203.739 C 76.759 202.595,75.128 200.398,74.130 197.570 C 72.725 193.589,71.899 172.936,72.445 155.454 C 73.010 137.362,73.767 133.595,77.566 129.992 L 79.192 128.450 80.312 123.670 C 82.303 115.171,82.276 115.232,85.552 111.833 C 86.841 110.496,87.895 109.270,87.895 109.110 C 87.895 108.949,88.619 107.130,89.505 105.067 C 91.323 100.830,92.458 99.366,94.656 98.421 C 96.341 97.696,97.062 96.739,97.925 94.081 C 98.679 91.758,100.193 90.259,102.849 89.205 L 105.004 88.350 105.859 86.195 C 106.914 83.536,108.413 82.023,110.734 81.275 C 113.057 80.527,114.634 79.396,115.031 78.192 C 115.791 75.888,122.966 71.241,125.762 71.241 C 125.938 71.241,127.165 70.179,128.488 68.881 C 131.778 65.654,133.059 65.167,144.712 62.709 C 145.197 62.607,146.029 61.951,146.676 61.162 C 150.594 56.380,161.996 55.057,192.759 55.815 C 212.753 56.307,216.764 57.120,219.608 61.254 C 220.120 61.997,220.567 62.607,220.601 62.608 C 220.635 62.609,222.406 62.945,224.536 63.355 C 233.917 65.161,240.128 64.403,242.189 61.200 C 242.663 60.463,243.663 59.471,244.411 58.997 C 245.516 58.296,245.917 57.771,246.558 56.196 L 247.346 54.257 246.818 49.915 C 246.351 46.084,246.215 45.546,245.658 45.338 C 245.311 45.209,244.034 44.804,242.821 44.440 C 240.188 43.649,235.586 40.709,233.860 38.716 C 232.631 37.297,229.840 36.083,227.806 36.083 C 219.866 36.083,206.084 32.828,201.933 29.972 C 199.754 28.473,188.137 27.829,173.786 28.412 M303.559 54.048 C 303.397 54.260,303.078 54.919,302.851 55.513 C 301.919 57.942,300.239 59.347,297.156 60.275 C 295.381 60.809,294.055 62.000,293.560 63.505 C 292.740 65.998,290.773 67.932,288.358 68.622 C 287.113 68.978,285.634 70.617,285.095 72.240 C 284.445 74.196,282.748 75.936,280.802 76.642 C 278.744 77.388,277.381 78.721,276.758 80.597 C 276.086 82.621,274.139 84.567,272.111 85.241 C 270.261 85.855,269.220 86.914,268.473 88.945 C 267.665 91.139,266.125 92.694,263.990 93.472 C 261.881 94.242,260.908 95.203,260.146 97.272 C 259.338 99.466,257.798 101.021,255.664 101.799 C 253.558 102.567,252.581 103.530,251.825 105.584 C 250.909 108.070,248.878 109.916,246.406 110.508 C 245.311 110.770,244.146 112.146,243.487 113.955 C 242.741 116.005,240.836 117.887,238.766 118.620 C 236.819 119.309,235.914 120.219,235.171 122.238 C 234.256 124.724,232.224 126.570,229.752 127.162 C 228.669 127.421,227.496 128.793,226.844 130.564 C 225.924 133.064,223.900 134.895,221.391 135.497 C 220.488 135.714,218.658 137.618,218.658 138.342 C 218.658 140.307,215.733 143.187,213.099 143.816 C 212.004 144.077,210.839 145.453,210.180 147.263 C 209.433 149.313,207.528 151.195,205.459 151.927 C 203.498 152.621,202.603 153.530,201.853 155.590 C 201.131 157.572,199.207 159.496,197.224 160.218 C 195.415 160.877,194.039 162.042,193.777 163.137 C 192.735 167.490,190.063 168.990,183.346 168.996 C 176.793 169.001,175.135 168.192,173.253 164.071 C 172.317 162.023,171.318 160.681,170.725 160.675 C 168.691 160.657,166.203 158.459,164.688 155.343 C 163.644 153.196,163.536 153.087,161.425 152.043 C 158.086 150.392,157.117 149.419,156.360 146.955 C 155.721 144.877,154.926 144.490,150.104 143.915 C 144.796 143.281,137.942 143.874,136.740 145.070 C 135.480 146.325,134.826 152.903,135.404 158.520 C 135.880 163.149,136.309 163.927,139.064 165.163 C 141.278 166.157,142.219 167.100,143.204 169.314 C 144.233 171.627,144.847 172.246,147.306 173.450 C 149.838 174.690,150.527 175.383,151.569 177.739 C 152.573 180.009,153.356 180.781,155.790 181.897 C 158.113 182.963,158.851 183.704,159.856 185.977 C 160.811 188.135,162.076 189.367,164.056 190.068 C 166.014 190.761,167.540 192.262,168.249 194.193 C 169.031 196.321,170.526 197.779,172.598 198.432 C 174.695 199.093,176.693 200.965,177.468 202.993 C 178.188 204.877,178.780 205.089,183.346 205.089 C 187.989 205.089,188.448 204.910,189.339 202.761 C 190.196 200.692,191.866 199.158,194.021 198.459 C 196.116 197.780,197.538 196.460,198.504 194.298 C 199.510 192.045,200.258 191.288,202.484 190.266 C 204.713 189.243,206.088 187.921,206.629 186.281 C 207.247 184.408,208.702 182.885,210.778 181.938 C 212.937 180.953,214.402 179.529,214.995 177.843 C 215.630 176.033,217.178 174.443,219.179 173.545 C 221.298 172.594,222.745 171.172,223.326 169.468 C 223.883 167.836,226.186 165.555,227.812 165.024 C 229.433 164.495,231.044 162.809,231.739 160.915 C 232.374 159.186,234.524 157.146,236.261 156.626 C 237.723 156.188,239.437 154.425,239.943 152.840 C 240.486 151.137,242.470 149.099,244.203 148.463 C 246.055 147.784,247.762 146.165,248.279 144.600 C 248.878 142.785,250.785 140.777,252.511 140.143 C 254.462 139.427,256.045 137.872,256.712 136.017 C 257.365 134.203,259.340 132.251,261.090 131.693 C 262.702 131.179,264.429 129.475,264.947 127.889 C 265.485 126.241,267.820 123.876,269.410 123.368 C 271.098 122.829,272.533 121.376,273.527 119.198 C 274.485 117.104,276.029 115.586,277.768 115.031 C 279.426 114.502,280.865 113.036,281.854 110.871 C 282.811 108.777,284.356 107.259,286.095 106.704 C 287.753 106.175,289.192 104.710,290.181 102.544 C 291.138 100.450,292.683 98.932,294.422 98.377 C 296.080 97.848,297.519 96.383,298.508 94.217 C 299.465 92.123,301.009 90.605,302.749 90.050 C 304.407 89.521,305.846 88.056,306.835 85.891 C 307.804 83.769,309.395 82.225,311.153 81.698 C 312.830 81.196,314.325 79.489,315.044 77.255 C 315.773 74.992,317.780 72.827,319.745 72.185 C 321.383 71.650,321.403 71.573,321.291 66.171 L 321.203 61.871 319.400 61.173 C 316.277 59.964,314.896 58.584,313.739 55.513 C 313.451 54.749,313.070 54.023,312.892 53.898 C 312.302 53.486,303.885 53.621,303.559 54.048 " stroke="none" fill="#057cfc" fill-rule="evenodd"></path><path id="path1" d="M166.230 23.769 C 153.300 24.654,148.566 25.693,145.200 28.387 C 143.678 29.605,139.378 31.005,135.312 31.608 C 128.174 32.666,125.820 33.613,123.187 36.487 C 121.755 38.051,121.415 38.250,118.873 39.006 C 110.749 41.423,109.352 42.128,107.369 44.813 C 106.040 46.612,104.836 47.492,102.853 48.115 C 99.963 49.023,97.813 50.492,96.284 52.602 C 95.755 53.332,94.482 54.384,93.219 55.135 C 87.414 58.584,74.414 71.794,71.547 77.157 C 70.987 78.205,70.191 79.169,69.568 79.554 C 67.468 80.852,65.654 83.366,64.773 86.199 C 64.210 88.012,63.022 89.611,61.338 90.820 C 58.934 92.547,57.098 96.386,55.515 102.995 C 55.179 104.398,54.817 104.963,53.344 106.387 C 50.165 109.460,49.536 110.930,48.409 117.925 C 47.656 122.596,46.569 126.242,45.493 127.708 C 41.211 133.541,40.266 140.571,40.254 166.692 C 40.243 191.745,41.373 200.602,45.230 205.672 C 46.469 207.301,47.888 211.586,48.408 215.266 C 49.320 221.719,50.305 224.172,53.028 226.764 C 54.556 228.219,54.967 228.835,55.386 230.300 C 57.331 237.099,58.580 239.657,61.247 242.300 C 63.343 244.378,63.908 245.151,64.484 246.732 C 65.559 249.679,67.303 252.152,69.089 253.263 C 70.352 254.048,70.864 254.654,71.898 256.595 C 73.873 260.303,76.756 263.895,80.232 266.980 C 81.987 268.538,84.880 271.217,86.662 272.934 C 88.443 274.652,90.941 276.753,92.213 277.603 C 93.485 278.454,95.430 280.092,96.535 281.243 C 98.605 283.400,100.037 284.305,102.988 285.320 C 105.249 286.098,106.730 287.162,107.473 288.540 C 108.712 290.841,110.883 291.972,118.423 294.241 C 121.337 295.118,121.799 295.361,123.088 296.691 C 125.914 299.607,127.980 300.487,134.991 301.757 C 137.378 302.190,140.527 302.914,141.987 303.367 L 144.641 304.190 144.641 306.297 L 144.641 308.404 147.880 308.404 L 151.118 308.404 151.118 306.274 L 151.118 304.144 148.882 303.224 C 145.980 302.030,144.243 301.555,138.628 300.417 C 131.641 299.002,129.455 298.205,126.576 296.021 C 123.448 293.649,123.325 293.588,118.023 291.781 C 112.354 289.848,111.968 289.639,109.502 287.169 C 107.870 285.534,106.772 284.781,104.075 283.449 C 101.376 282.115,100.312 281.385,98.802 279.832 C 97.761 278.762,95.888 277.186,94.639 276.330 C 93.389 275.474,90.714 273.215,88.693 271.311 C 77.806 261.051,76.594 259.746,74.027 255.513 C 73.307 254.325,71.584 252.244,70.198 250.887 C 68.067 248.801,67.452 247.954,66.221 245.413 C 65.191 243.289,64.178 241.768,62.767 240.231 C 60.673 237.949,60.181 237.045,58.421 232.240 C 56.793 227.795,56.096 226.371,54.703 224.651 C 51.927 221.222,51.436 219.990,49.976 212.799 C 49.189 208.924,47.596 203.712,45.781 199.075 C 40.583 185.789,40.559 145.581,45.744 134.231 C 47.535 130.310,48.792 126.307,49.787 121.357 C 51.369 113.484,51.924 111.961,54.111 109.499 C 56.179 107.171,56.895 105.731,58.624 100.421 L 60.213 95.543 62.625 92.982 C 64.423 91.074,65.406 89.686,66.483 87.539 C 67.602 85.308,68.498 84.065,70.452 82.035 C 71.840 80.594,73.591 78.448,74.344 77.267 C 77.066 72.999,89.969 60.155,94.519 57.186 C 95.880 56.298,97.840 54.680,98.876 53.589 C 100.356 52.031,101.445 51.256,103.964 49.968 C 106.421 48.713,107.747 47.780,109.638 45.977 L 112.105 43.623 116.577 42.119 C 122.056 40.275,123.908 39.363,126.282 37.339 C 128.461 35.480,129.973 34.869,135.103 33.771 C 144.694 31.719,145.975 31.331,152.197 28.585 C 162.833 23.892,203.272 24.187,215.385 29.046 C 220.277 31.009,224.302 32.248,229.144 33.283 C 236.821 34.924,237.999 35.427,240.997 38.336 C 241.668 38.987,242.849 39.877,243.622 40.312 C 248.564 43.099,249.307 44.234,249.816 49.774 C 250.231 54.297,250.155 55.038,248.859 59.084 C 247.436 63.526,246.099 64.648,239.322 67.092 C 234.227 68.928,220.587 66.707,212.916 62.790 C 207.528 60.040,201.498 59.020,188.206 58.612 C 170.539 58.069,161.577 59.182,153.593 62.907 C 151.009 64.113,148.301 65.082,145.412 65.834 C 136.869 68.060,135.910 68.468,133.076 71.081 C 132.398 71.707,130.386 72.922,128.604 73.782 C 123.627 76.184,121.355 77.627,118.986 79.890 C 117.791 81.033,115.753 82.561,114.459 83.287 C 111.692 84.839,110.202 86.161,108.491 88.584 C 107.301 90.269,106.349 91.149,103.933 92.795 C 102.430 93.820,101.644 94.790,100.206 97.396 C 99.522 98.636,98.017 100.648,96.862 101.868 C 94.288 104.586,92.979 106.609,90.818 111.208 C 89.678 113.635,88.648 115.313,87.561 116.515 C 85.474 118.822,84.460 121.051,83.110 126.291 C 81.541 132.379,81.227 133.305,79.553 136.777 C 73.248 149.850,73.337 183.772,79.711 196.916 C 81.577 200.764,81.564 200.726,83.268 207.357 C 84.710 212.974,85.182 214.030,87.283 216.350 C 89.166 218.430,90.040 219.818,90.968 222.205 C 92.334 225.722,94.153 228.642,96.586 231.225 C 97.903 232.625,99.542 234.776,100.228 236.006 C 101.843 238.903,102.398 239.525,105.093 241.465 C 106.522 242.494,107.838 243.786,108.728 245.033 C 110.351 247.307,111.757 248.614,113.578 249.541 C 115.385 250.462,116.668 251.444,119.352 253.961 C 121.619 256.086,123.053 256.924,129.870 260.105 C 130.821 260.548,132.537 261.740,133.684 262.752 C 136.101 264.886,137.153 265.332,144.333 267.266 C 149.933 268.774,151.681 269.395,155.127 271.103 C 159.606 273.322,162.115 273.824,172.731 274.622 C 189.936 275.915,206.660 274.138,213.601 270.281 C 216.030 268.931,218.023 268.254,224.016 266.744 C 229.823 265.280,230.477 264.974,233.401 262.352 C 235.055 260.869,236.268 260.088,238.023 259.377 C 242.980 257.368,244.902 256.218,247.817 253.516 C 249.376 252.070,251.768 250.226,253.131 249.418 C 255.647 247.927,256.576 247.047,258.354 244.472 C 258.899 243.683,260.144 242.444,261.121 241.719 C 263.713 239.796,264.921 238.484,266.307 236.084 C 266.985 234.910,268.657 232.763,270.021 231.315 C 272.766 228.400,273.774 226.780,275.704 222.182 C 276.672 219.876,277.481 218.524,278.842 216.939 C 281.641 213.681,281.946 212.961,284.197 204.318 C 284.913 201.567,285.920 198.713,286.972 196.453 C 290.584 188.696,291.741 179.831,291.748 159.870 C 291.752 149.000,293.446 145.551,300.518 142.011 L 303.888 140.324 308.297 140.324 L 312.706 140.324 316.728 142.362 C 324.313 146.205,325.369 149.790,324.715 169.468 C 324.108 187.741,323.464 192.353,320.579 199.108 C 319.069 202.644,317.983 206.396,317.026 211.383 C 315.824 217.653,314.679 220.623,312.105 224.151 C 310.998 225.668,310.127 227.454,308.912 230.698 C 306.419 237.352,306.157 237.850,303.945 240.141 C 302.352 241.789,301.533 243.010,300.201 245.718 C 298.777 248.613,298.126 249.552,296.245 251.423 C 295.006 252.655,293.395 254.564,292.665 255.667 C 291.935 256.769,290.211 258.851,288.834 260.293 C 287.457 261.735,285.370 263.955,284.197 265.227 C 280.381 269.366,275.352 273.911,272.651 275.663 C 271.197 276.606,268.897 278.510,267.540 279.895 C 265.381 282.099,264.665 282.606,261.803 283.966 C 259.377 285.118,258.013 286.005,256.520 287.402 C 254.369 289.413,252.507 290.388,246.723 292.529 C 244.529 293.342,242.550 294.365,240.584 295.704 C 237.252 297.973,235.221 298.750,228.721 300.246 C 226.199 300.827,222.140 301.933,219.701 302.705 L 215.266 304.108 215.266 306.256 L 215.266 308.404 219.121 308.404 L 222.976 308.404 222.976 306.281 L 222.976 304.158 225.101 303.370 C 226.270 302.937,228.109 302.416,229.187 302.212 C 238.060 300.538,240.940 299.486,243.485 296.991 C 244.780 295.721,245.521 295.307,248.111 294.404 C 255.386 291.868,257.480 290.729,259.161 288.391 C 260.195 286.953,261.794 285.974,264.974 284.832 C 266.939 284.127,268.982 282.506,270.047 280.806 C 270.729 279.719,271.454 279.112,273.192 278.171 C 276.512 276.373,278.832 274.491,282.856 270.332 C 284.833 268.288,287.824 265.193,289.501 263.455 C 291.179 261.717,293.169 259.298,293.924 258.080 C 294.679 256.861,296.363 254.814,297.666 253.530 C 299.970 251.260,301.075 249.537,301.933 246.877 C 302.541 244.991,303.609 243.491,305.109 242.413 C 307.496 240.699,308.389 239.100,310.544 232.685 C 311.935 228.544,312.138 228.146,313.579 226.743 C 316.019 224.366,316.959 222.019,318.445 214.593 C 319.458 209.534,320.584 205.874,321.510 204.638 C 324.396 200.783,325.743 194.129,326.279 181.075 C 326.690 171.046,326.693 153.929,326.283 151.560 C 324.987 144.064,324.071 142.944,316.380 139.459 L 313.184 138.011 308.765 137.911 C 303.824 137.798,303.249 137.944,297.662 140.725 C 291.043 144.020,290.376 145.893,289.903 162.529 C 289.397 180.299,288.678 185.888,286.382 189.897 C 284.809 192.643,283.393 196.874,282.635 201.090 C 281.376 208.100,279.893 212.152,277.899 214.032 C 275.766 216.045,275.436 216.561,274.348 219.588 C 273.011 223.308,271.368 226.026,268.945 228.527 C 266.404 231.150,264.681 233.616,263.649 236.105 C 263.018 237.629,262.746 237.915,261.103 238.791 C 258.665 240.090,256.604 242.150,255.518 244.370 C 254.701 246.042,254.482 246.249,252.666 247.064 C 249.918 248.297,247.869 249.732,245.181 252.308 C 242.675 254.709,240.273 256.184,236.693 257.520 C 233.392 258.752,231.722 259.830,230.517 261.507 C 229.343 263.141,225.266 264.643,219.073 265.724 C 214.733 266.482,208.368 268.609,205.612 270.223 C 200.591 273.163,182.274 274.011,167.378 271.992 C 162.365 271.312,161.719 271.133,160.256 270.017 C 158.111 268.381,153.586 266.854,147.900 265.847 C 141.621 264.736,137.491 263.190,136.198 261.466 C 135.085 259.984,132.788 258.528,130.382 257.779 C 127.384 256.846,124.919 255.295,121.244 252.030 C 118.807 249.865,117.177 248.693,115.442 247.860 C 114.116 247.222,112.827 246.590,112.579 246.454 C 112.331 246.319,111.743 245.464,111.273 244.554 C 110.116 242.314,107.887 240.126,105.541 238.927 C 103.663 237.967,103.565 237.857,102.593 235.612 C 101.324 232.678,100.250 231.136,97.395 228.142 C 95.076 225.711,93.900 223.656,91.739 218.262 C 91.064 216.579,90.521 215.824,88.963 214.407 C 86.728 212.374,85.825 210.073,84.338 202.621 C 83.170 196.768,81.212 191.088,79.549 188.726 C 75.748 183.326,76.203 149.781,80.167 143.208 C 81.631 140.782,83.312 135.835,84.028 131.843 C 85.221 125.204,86.858 120.800,88.737 119.178 C 90.332 117.801,92.521 114.197,92.521 112.947 C 92.521 111.961,95.299 107.617,97.386 105.339 C 100.317 102.140,101.357 100.628,102.594 97.773 C 103.562 95.540,103.673 95.414,105.506 94.470 C 107.957 93.209,109.846 91.340,111.086 88.947 C 112.045 87.099,112.150 87.008,114.642 85.886 C 117.426 84.632,120.507 82.454,122.728 80.171 C 124.610 78.235,127.491 76.588,131.380 75.225 C 133.018 74.650,133.764 74.139,135.459 72.429 C 137.819 70.047,141.029 68.806,148.188 67.506 C 152.769 66.675,157.882 64.938,160.092 63.462 C 165.886 59.593,200.176 59.197,205.431 62.939 C 211.433 67.212,233.805 71.278,239.992 69.220 C 248.704 66.321,249.983 65.076,251.378 58.134 C 253.219 48.974,251.246 41.890,246.087 39.134 C 245.091 38.602,243.701 37.455,242.770 36.398 C 240.466 33.780,238.463 32.884,232.773 31.925 C 227.170 30.980,222.984 29.652,222.046 28.521 C 218.752 24.553,190.251 22.126,166.230 23.769 M302.082 49.151 C 299.817 49.886,298.310 50.849,296.797 52.526 C 295.972 53.440,294.651 54.560,293.862 55.016 C 291.764 56.227,289.725 58.126,288.355 60.142 C 287.637 61.200,286.368 62.479,285.210 63.311 C 282.880 64.987,281.260 66.623,279.935 68.639 C 279.394 69.463,278.327 70.594,277.564 71.154 C 274.779 73.196,273.444 74.481,271.812 76.687 C 270.782 78.080,269.474 79.396,268.381 80.138 C 266.305 81.548,264.374 83.567,263.060 85.703 C 262.487 86.633,261.598 87.539,260.797 88.009 C 258.717 89.228,256.403 91.474,255.015 93.620 C 254.201 94.877,253.278 95.862,252.467 96.338 C 250.387 97.559,248.386 99.505,246.881 101.768 C 246.063 102.998,244.983 104.187,244.321 104.584 C 242.117 105.909,239.830 108.089,238.517 110.120 C 237.517 111.665,236.700 112.488,235.187 113.474 C 232.895 114.967,231.159 116.740,229.923 118.849 C 229.322 119.874,228.402 120.760,226.850 121.807 C 224.428 123.441,223.146 124.761,221.538 127.274 C 220.800 128.428,219.903 129.286,218.526 130.155 C 216.315 131.552,214.487 133.407,213.098 135.665 C 212.533 136.583,211.636 137.502,210.858 137.958 C 208.747 139.197,206.755 141.133,205.228 143.431 C 204.225 144.940,203.300 145.903,202.146 146.641 C 199.687 148.214,198.160 149.711,196.770 151.911 C 195.807 153.436,195.066 154.176,193.525 155.149 C 191.393 156.496,189.470 158.472,188.220 160.601 L 187.451 161.912 183.360 161.912 L 179.269 161.912 177.989 159.934 C 176.694 157.932,174.873 156.206,172.464 154.699 C 171.689 154.214,170.685 153.156,170.034 152.138 C 168.631 149.945,166.727 148.036,164.560 146.650 C 163.629 146.054,162.456 144.969,161.953 144.238 C 159.978 141.368,157.585 139.791,153.022 138.353 C 151.609 137.907,150.009 137.204,149.466 136.790 C 148.923 136.376,147.867 135.763,147.120 135.429 L 145.761 134.820 144.353 135.552 C 143.579 135.954,142.529 136.567,142.020 136.914 C 141.511 137.260,139.804 137.975,138.225 138.502 C 133.586 140.052,131.589 142.042,130.034 146.668 C 129.597 147.968,128.908 149.466,128.503 149.998 C 128.098 150.529,127.400 151.688,126.952 152.573 L 126.137 154.183 126.918 155.950 C 127.348 156.922,128.020 158.140,128.413 158.658 C 128.805 159.176,129.444 160.571,129.834 161.758 C 131.124 165.696,132.198 167.416,135.352 170.598 C 136.984 172.243,139.238 174.536,140.362 175.692 C 141.485 176.849,143.359 178.720,144.525 179.851 C 145.692 180.982,147.641 182.925,148.858 184.169 C 150.074 185.413,151.948 187.264,153.021 188.283 C 154.095 189.301,155.579 190.872,156.319 191.773 C 157.059 192.674,158.625 194.050,159.800 194.831 C 161.418 195.907,162.339 196.828,163.607 198.637 C 164.583 200.029,166.012 201.581,167.040 202.362 C 168.008 203.098,169.879 204.694,171.198 205.908 C 174.874 209.292,175.748 209.558,183.192 209.559 C 190.538 209.561,192.059 209.149,194.898 206.387 C 195.838 205.472,197.595 203.986,198.802 203.084 C 200.008 202.183,201.604 200.709,202.348 199.809 C 204.057 197.743,206.057 195.740,208.079 194.071 C 208.947 193.354,210.468 191.769,211.459 190.549 C 212.450 189.328,214.296 187.479,215.560 186.440 C 216.824 185.401,218.704 183.523,219.738 182.267 C 220.771 181.010,222.645 179.137,223.901 178.103 C 225.158 177.070,227.031 175.196,228.065 173.940 C 229.098 172.683,230.978 170.805,232.242 169.766 C 233.507 168.727,235.130 167.124,235.850 166.205 C 237.746 163.783,238.941 162.580,241.266 160.754 C 242.401 159.862,244.077 158.121,244.991 156.886 C 245.904 155.650,247.230 154.257,247.936 153.790 C 249.959 152.451,251.519 150.921,253.371 148.461 C 254.392 147.104,255.796 145.696,256.841 144.979 C 258.854 143.600,260.282 142.151,262.103 139.640 C 262.825 138.644,264.177 137.337,265.207 136.637 C 266.211 135.955,267.702 134.605,268.520 133.636 C 270.457 131.342,273.013 128.785,275.037 127.115 C 275.927 126.381,277.241 124.997,277.957 124.039 C 279.341 122.189,280.099 121.446,282.806 119.283 C 283.739 118.538,285.157 117.104,285.956 116.096 C 287.775 113.802,288.659 112.917,290.957 111.091 C 291.962 110.291,293.634 108.603,294.672 107.339 C 295.710 106.075,297.593 104.190,298.858 103.151 C 300.122 102.112,301.947 100.289,302.913 99.099 C 304.841 96.725,305.290 96.282,307.777 94.304 C 308.704 93.567,310.069 92.205,310.810 91.277 C 312.943 88.607,313.702 87.830,315.562 86.409 C 317.187 85.168,318.950 83.142,320.308 80.956 C 320.624 80.447,321.732 79.198,322.770 78.180 C 325.780 75.228,326.137 74.016,326.137 66.769 C 326.137 59.879,325.647 58.200,322.934 55.794 C 321.163 54.223,320.796 53.856,319.225 52.085 C 316.604 49.130,307.134 47.509,302.082 49.151 M314.173 51.362 C 316.162 52.353,322.250 58.333,323.514 60.538 C 324.421 62.119,324.435 62.213,324.438 66.661 C 324.442 71.971,323.971 73.261,320.794 76.651 C 319.832 77.679,318.371 79.457,317.548 80.603 C 316.725 81.749,314.943 83.604,313.588 84.725 C 312.233 85.845,310.593 87.482,309.943 88.362 C 309.293 89.242,307.820 90.780,306.670 91.781 C 305.520 92.782,303.809 94.422,302.868 95.426 C 301.927 96.430,300.046 98.327,298.689 99.641 C 297.332 100.956,295.612 102.647,294.867 103.400 C 294.122 104.153,292.263 106.017,290.736 107.544 C 289.209 109.071,287.336 110.944,286.573 111.708 C 285.809 112.471,283.936 114.344,282.409 115.871 C 280.883 117.398,279.009 119.271,278.246 120.034 C 277.482 120.798,275.609 122.671,274.082 124.198 C 272.556 125.724,270.667 127.619,269.886 128.407 C 269.105 129.195,267.217 131.082,265.690 132.599 C 264.163 134.116,262.305 135.969,261.559 136.717 C 260.814 137.464,258.955 139.325,257.428 140.852 C 255.902 142.378,254.028 144.252,253.265 145.015 C 250.722 147.558,246.208 152.072,244.905 153.375 C 244.124 154.156,242.265 156.015,240.775 157.506 C 239.284 158.996,237.438 160.840,236.672 161.604 C 235.906 162.367,234.039 164.241,232.522 165.767 C 231.004 167.294,229.120 169.184,228.334 169.967 C 227.548 170.751,225.656 172.641,224.129 174.168 C 222.603 175.694,220.737 177.551,219.983 178.294 C 219.229 179.037,217.468 180.825,216.070 182.267 C 214.672 183.709,212.773 185.582,211.851 186.430 C 210.929 187.278,209.557 188.739,208.802 189.677 C 208.048 190.614,206.740 191.933,205.896 192.607 C 204.046 194.084,202.703 195.418,200.500 197.966 C 199.588 199.022,198.062 200.462,197.108 201.167 C 196.154 201.872,194.453 203.303,193.328 204.346 C 189.999 207.434,188.768 207.865,183.288 207.861 C 177.755 207.858,176.848 207.533,173.279 204.286 C 171.993 203.116,170.090 201.497,169.050 200.687 C 168.010 199.878,166.379 198.178,165.424 196.910 C 164.380 195.522,162.917 194.054,161.749 193.220 C 160.682 192.459,158.999 190.905,158.008 189.768 C 157.017 188.631,155.520 187.067,154.681 186.294 C 153.841 185.521,151.942 183.639,150.460 182.113 C 147.701 179.271,147.382 178.950,142.687 174.317 C 133.949 165.693,132.727 164.183,132.027 161.141 C 131.832 160.293,131.307 158.384,130.860 156.898 L 130.048 154.197 131.004 151.347 C 131.529 149.779,132.173 147.721,132.435 146.773 C 133.382 143.339,135.735 141.435,140.540 140.213 C 142.270 139.773,144.140 139.227,144.696 139.001 C 145.605 138.630,145.975 138.672,148.389 139.429 C 149.864 139.892,151.844 140.431,152.787 140.627 C 155.104 141.108,157.905 143.031,159.800 145.443 C 160.640 146.511,162.187 148.003,163.238 148.759 C 165.390 150.305,166.635 151.557,168.037 153.585 C 168.565 154.348,170.142 155.883,171.542 156.996 C 172.941 158.108,174.675 159.774,175.395 160.697 C 176.115 161.620,177.238 162.965,177.890 163.685 L 179.076 164.996 183.149 164.996 C 187.914 164.996,188.077 164.928,190.089 162.110 C 191.598 159.997,193.819 157.813,195.780 156.516 C 196.494 156.043,197.684 154.809,198.424 153.773 C 199.927 151.667,202.149 149.484,204.112 148.186 C 204.830 147.711,206.093 146.393,206.919 145.256 C 207.746 144.120,209.226 142.511,210.208 141.680 C 212.474 139.764,214.702 137.536,216.601 135.290 C 217.419 134.321,219.046 132.815,220.216 131.942 C 221.386 131.070,222.714 129.795,223.167 129.110 C 224.411 127.231,226.576 125.027,228.740 123.438 C 229.807 122.655,231.048 121.457,231.499 120.776 C 232.738 118.903,234.906 116.698,237.067 115.111 C 238.134 114.328,239.369 113.139,239.813 112.469 C 241.010 110.659,242.946 108.652,245.027 107.062 C 247.330 105.301,247.260 105.372,248.807 103.269 C 249.513 102.311,250.892 100.853,251.873 100.031 C 252.853 99.208,254.490 97.646,255.509 96.559 C 256.529 95.473,258.388 93.599,259.640 92.396 C 260.893 91.193,262.766 89.321,263.804 88.237 C 264.841 87.153,266.731 85.251,268.003 84.011 C 271.095 80.996,272.780 79.303,275.802 76.176 C 277.195 74.734,278.847 73.173,279.473 72.708 C 280.098 72.242,281.372 70.855,282.303 69.624 C 283.234 68.393,284.731 66.831,285.630 66.153 C 287.461 64.770,288.901 63.354,291.554 60.327 C 292.549 59.192,294.214 57.696,295.255 57.002 C 296.296 56.308,297.980 54.940,298.998 53.961 C 302.677 50.423,309.830 49.198,314.173 51.362 " stroke="none" fill="#abd4fc" fill-rule="evenodd"></path><path id="path2" d="M0.000 154.202 L 0.000 308.404 69.854 308.404 L 139.707 308.404 139.707 306.276 L 139.707 304.148 138.242 303.819 C 137.436 303.638,135.944 303.406,134.927 303.304 C 126.548 302.460,123.596 301.432,120.533 298.291 L 118.182 295.881 113.447 294.569 C 107.372 292.884,104.857 290.961,104.857 288.001 C 104.857 287.626,104.497 287.371,103.701 287.183 C 103.065 287.032,101.850 286.742,101.002 286.538 C 97.443 285.680,93.036 282.942,91.764 280.797 C 90.796 279.163,88.482 277.248,85.891 275.938 C 84.014 274.988,83.181 274.130,82.377 272.317 C 81.592 270.548,79.834 268.871,77.872 268.022 C 75.959 267.194,74.566 265.874,73.835 264.198 C 72.753 261.714,70.798 258.697,70.006 258.287 C 68.908 257.720,65.769 254.106,64.489 251.936 C 64.133 251.333,63.568 249.767,63.233 248.457 C 62.491 245.559,62.506 245.584,61.387 245.339 C 59.199 244.858,56.943 242.248,56.318 239.476 C 55.098 234.068,54.265 232.244,51.960 229.939 C 48.530 226.509,47.949 224.979,47.035 216.962 C 46.393 211.341,46.156 210.582,44.819 209.862 C 39.597 207.050,39.013 202.643,39.013 166.076 C 39.013 131.143,39.595 126.720,44.571 123.804 C 46.106 122.904,46.382 122.153,46.882 117.502 C 47.827 108.716,48.429 107.056,51.789 103.972 L 54.197 101.762 55.369 97.219 C 57.063 90.654,57.780 89.517,60.975 88.333 C 61.787 88.032,62.494 87.756,62.546 87.720 C 62.598 87.684,62.922 86.462,63.265 85.005 C 64.181 81.123,67.599 75.993,70.008 74.888 C 70.851 74.501,72.630 71.956,74.067 69.079 C 75.037 67.138,75.881 66.368,78.068 65.429 C 79.443 64.839,82.035 62.332,82.035 61.594 C 82.035 60.410,83.876 58.341,85.772 57.394 C 88.785 55.889,90.822 54.356,91.562 53.039 C 92.187 51.928,94.505 49.653,95.013 49.653 C 95.135 49.653,95.942 49.178,96.805 48.596 C 98.338 47.565,100.644 46.730,103.134 46.305 C 104.270 46.111,104.413 45.974,104.898 44.619 C 106.119 41.204,107.269 40.442,113.877 38.668 L 118.116 37.529 120.278 35.270 C 123.510 31.892,124.965 31.329,132.922 30.386 C 138.499 29.725,139.633 29.411,140.165 28.383 C 142.819 23.249,147.314 22.537,178.542 22.304 C 216.440 22.020,223.023 22.787,226.229 27.854 C 227.283 29.520,227.770 29.687,233.616 30.391 C 241.711 31.365,243.617 32.251,245.957 36.128 C 246.345 36.770,247.158 37.431,248.116 37.882 C 252.530 39.961,254.389 47.524,253.032 57.880 C 251.902 66.497,251.350 67.276,244.810 69.469 C 241.137 70.701,240.561 70.993,239.285 72.276 C 237.661 73.909,237.760 73.894,232.894 73.252 C 229.197 72.765,228.509 72.530,227.796 71.513 C 227.309 70.817,221.810 69.414,219.511 69.399 C 217.978 69.388,210.066 68.252,207.691 67.701 C 203.728 66.782,200.094 65.139,198.171 63.396 C 197.483 62.773,196.615 62.287,196.166 62.273 C 195.730 62.259,191.835 62.077,187.510 61.868 C 180.967 61.552,178.868 61.560,175.019 61.918 L 170.393 62.349 168.389 63.707 C 164.329 66.457,158.128 68.229,149.098 69.220 C 143.630 69.820,141.786 70.401,140.601 71.898 C 138.387 74.693,134.888 76.717,131.073 77.409 C 128.257 77.920,126.891 78.705,126.101 80.266 C 124.932 82.576,124.331 83.186,122.051 84.377 C 120.821 85.020,118.955 85.993,117.903 86.539 C 115.915 87.573,112.786 90.524,111.253 92.811 C 110.785 93.509,109.809 94.459,109.084 94.920 C 106.988 96.256,104.168 99.282,103.138 101.301 C 100.057 107.340,99.448 108.150,97.075 109.361 C 95.326 110.253,94.647 111.425,93.967 114.726 C 93.192 118.489,90.773 122.538,88.495 123.883 C 87.335 124.569,86.222 127.858,85.907 131.534 C 85.102 140.925,82.948 148.353,79.935 152.129 C 78.703 153.673,78.486 155.979,78.497 167.463 C 78.508 178.928,78.638 180.017,80.221 181.846 C 83.171 185.254,85.127 192.081,85.908 201.696 C 86.217 205.495,87.314 208.804,88.495 209.502 C 90.753 210.835,93.333 215.176,94.042 218.833 C 94.613 221.778,95.530 223.520,96.714 223.911 C 97.269 224.094,98.284 224.757,98.969 225.383 C 100.137 226.453,100.795 227.511,103.135 232.083 C 104.162 234.092,106.987 237.128,109.050 238.443 C 109.756 238.892,110.732 239.777,111.219 240.408 C 111.706 241.040,113.076 242.552,114.264 243.769 C 116.271 245.827,117.411 246.606,121.807 248.927 C 123.963 250.065,125.084 251.141,126.015 252.964 C 126.911 254.720,128.079 255.391,131.444 256.084 C 135.394 256.897,139.131 259.080,140.743 261.517 C 141.699 262.961,144.538 263.843,149.730 264.311 C 158.276 265.081,165.064 267.101,169.468 270.183 C 171.443 271.565,176.759 271.948,188.099 271.526 L 197.022 271.193 198.743 269.620 C 201.688 266.929,206.256 265.550,215.883 264.447 C 222.376 263.703,224.847 262.989,226.030 261.518 C 228.291 258.705,231.926 256.562,235.466 255.957 C 238.564 255.427,239.782 254.722,240.687 252.936 C 241.543 251.245,243.024 249.823,244.581 249.195 C 245.166 248.959,246.060 248.461,246.569 248.088 C 247.078 247.715,248.080 247.116,248.796 246.757 C 250.199 246.052,253.611 242.792,255.359 240.486 C 255.952 239.703,256.962 238.720,257.603 238.301 C 258.244 237.883,259.167 236.989,259.655 236.315 C 260.143 235.642,261.041 234.782,261.651 234.405 C 262.261 234.028,262.760 233.545,262.760 233.330 C 262.760 233.116,263.316 232.082,263.994 231.031 C 264.673 229.981,265.568 228.451,265.984 227.631 C 266.796 226.029,268.036 224.829,269.820 223.918 C 270.974 223.329,272.321 221.373,272.321 220.285 C 272.321 217.042,274.970 211.823,277.848 209.397 C 279.605 207.915,280.463 205.499,280.802 201.079 C 281.499 192.000,283.555 184.887,286.656 180.824 C 287.879 179.222,288.236 175.484,288.696 159.445 C 289.076 146.165,289.348 144.284,291.207 142.028 C 292.062 140.991,294.075 139.707,294.846 139.707 C 295.985 139.707,300.328 137.368,300.949 136.420 C 302.546 133.984,303.691 133.539,308.357 133.539 C 313.115 133.539,313.870 133.832,315.735 136.403 C 316.534 137.504,317.093 137.863,319.403 138.756 C 328.008 142.083,327.902 141.712,327.860 168.543 C 327.809 200.527,326.915 206.226,321.292 210.403 C 320.669 210.866,320.371 212.109,319.497 217.887 C 318.299 225.811,317.810 227.026,314.456 230.419 C 312.329 232.571,312.017 233.260,310.137 239.953 C 309.489 242.259,308.094 243.785,305.785 244.713 L 303.937 245.456 303.284 248.171 C 302.128 252.975,299.040 257.849,296.677 258.599 C 295.996 258.815,293.262 262.473,292.673 263.958 C 292.042 265.545,290.909 266.718,289.166 267.588 C 287.126 268.605,285.390 270.282,284.650 271.949 C 283.656 274.190,282.889 274.995,280.674 276.120 C 277.352 277.808,275.478 279.198,274.465 280.727 C 273.953 281.499,273.157 282.371,272.696 282.664 C 272.235 282.957,271.134 283.746,270.249 284.419 C 268.671 285.618,264.774 287.124,263.249 287.124 C 262.378 287.124,262.104 287.456,261.401 289.357 C 260.704 291.243,258.861 292.833,256.611 293.489 C 250.060 295.400,249.414 295.702,247.019 297.972 C 243.497 301.310,241.949 301.892,233.616 303.008 C 231.581 303.281,229.325 303.653,228.604 303.835 L 227.294 304.167 227.294 306.285 L 227.294 308.404 313.647 308.404 L 400.000 308.404 400.000 154.202 L 400.000 0.000 200.000 0.000 L 0.000 0.000 0.000 154.202 M315.798 47.647 C 320.534 48.643,324.009 51.418,326.463 56.162 C 327.862 58.868,328.376 69.566,327.347 74.549 C 326.538 78.463,324.203 82.270,321.873 83.475 C 321.368 83.737,320.594 84.382,320.153 84.909 C 319.713 85.436,318.990 86.220,318.547 86.650 C 318.104 87.080,317.520 87.867,317.248 88.398 C 316.463 89.930,315.207 91.266,313.945 91.910 C 312.586 92.603,309.520 95.576,308.873 96.827 C 308.122 98.278,306.845 99.611,305.590 100.251 C 304.168 100.976,301.263 103.899,300.245 105.628 C 299.382 107.094,298.461 107.979,296.990 108.757 C 295.755 109.410,292.832 112.323,292.198 113.533 C 291.447 114.964,290.164 116.278,288.873 116.937 C 287.408 117.684,284.656 120.484,283.565 122.337 C 282.789 123.655,280.789 125.520,280.151 125.520 C 279.575 125.520,276.195 129.026,275.302 130.549 C 274.481 131.950,272.487 133.847,271.835 133.847 C 271.479 133.847,267.386 137.686,267.386 138.020 C 267.386 138.684,265.277 141.065,264.061 141.775 C 262.193 142.865,259.431 145.639,258.442 147.417 C 257.956 148.290,257.099 149.174,256.129 149.800 C 253.993 151.179,250.901 154.206,250.169 155.633 C 249.462 157.011,248.529 157.928,247.092 158.654 C 246.039 159.187,242.406 162.634,242.406 163.101 C 242.406 163.760,240.094 166.295,238.970 166.868 C 237.574 167.581,234.394 170.688,233.859 171.864 C 233.306 173.078,231.753 174.693,230.512 175.345 C 229.147 176.063,226.035 179.086,225.538 180.179 C 224.979 181.404,223.431 183.017,222.185 183.672 C 220.717 184.444,217.751 187.410,216.980 188.878 C 216.308 190.156,214.754 191.627,213.303 192.358 C 212.197 192.915,209.296 196.082,208.212 197.915 C 207.809 198.596,206.929 199.482,206.255 199.885 C 204.311 201.047,201.152 203.931,200.192 205.420 C 197.442 209.686,192.955 211.235,183.346 211.235 C 173.816 211.235,169.019 209.578,166.451 205.397 C 165.587 203.990,162.313 200.733,161.181 200.155 C 160.204 199.655,157.903 197.185,157.903 196.635 C 157.903 196.173,154.447 193.059,152.506 191.771 C 151.658 191.208,150.506 190.054,149.946 189.206 C 148.838 187.528,145.728 184.117,145.305 184.117 C 144.644 184.117,142.365 182.101,141.543 180.789 C 140.387 178.946,137.637 176.059,136.599 175.600 C 135.310 175.029,133.550 173.321,132.862 171.971 C 132.509 171.280,131.830 170.226,131.352 169.628 C 130.874 169.031,130.193 167.884,129.838 167.078 C 129.483 166.273,128.533 164.954,127.728 164.148 C 122.376 158.797,122.289 150.806,127.521 145.275 C 128.412 144.333,129.418 142.928,129.756 142.153 C 130.538 140.361,132.303 138.641,133.951 138.064 C 134.657 137.816,135.998 136.890,136.931 136.004 C 142.337 130.873,149.137 130.864,154.637 135.980 C 155.746 137.012,156.870 137.857,157.134 137.857 C 157.857 137.857,160.395 139.216,161.840 140.377 C 162.543 140.941,163.675 141.780,164.355 142.241 C 165.036 142.702,165.954 143.652,166.396 144.353 C 167.404 145.949,170.600 149.139,172.286 150.233 C 172.988 150.688,174.010 151.711,174.557 152.506 C 175.104 153.301,176.441 154.841,177.527 155.927 L 179.503 157.903 183.324 157.903 L 187.146 157.903 189.332 155.729 C 190.535 154.534,191.519 153.424,191.519 153.263 C 191.519 152.772,193.729 150.491,194.681 149.998 C 195.716 149.463,199.071 146.050,200.554 144.025 C 201.112 143.261,202.025 142.359,202.581 142.020 C 203.719 141.325,208.173 136.996,208.173 136.584 C 208.173 136.126,210.396 133.830,211.285 133.370 C 212.303 132.844,215.917 129.182,216.890 127.692 C 217.273 127.106,218.209 126.165,218.970 125.602 C 220.948 124.140,224.451 120.685,224.966 119.689 C 225.426 118.800,227.722 116.577,228.180 116.577 C 228.550 116.577,233.153 112.001,233.153 111.633 C 233.153 111.151,235.348 108.864,236.266 108.389 C 237.261 107.875,240.717 104.371,242.179 102.394 C 242.742 101.632,243.682 100.696,244.269 100.313 C 245.759 99.340,249.421 95.726,249.947 94.708 C 250.392 93.848,252.697 91.596,253.133 91.596 C 253.477 91.596,258.134 86.982,258.134 86.640 C 258.134 86.181,260.265 83.954,261.339 83.290 C 262.213 82.749,266.153 79.027,266.153 78.741 C 266.153 78.182,268.062 75.993,269.198 75.250 C 270.475 74.415,274.480 70.743,274.480 70.407 C 274.480 69.805,276.623 67.395,277.742 66.739 C 279.374 65.782,282.167 62.940,283.428 60.952 C 283.916 60.182,284.913 59.168,285.643 58.698 C 286.373 58.228,287.842 57.042,288.909 56.062 C 289.975 55.081,290.981 54.279,291.145 54.279 C 291.308 54.279,291.442 54.090,291.442 53.860 C 291.442 52.124,296.974 48.382,300.611 47.659 C 303.594 47.066,312.999 47.058,315.798 47.647 " stroke="none" fill="#fcfcfc" fill-rule="evenodd"></path><path id="path3" d="M169.541 25.596 C 162.034 26.181,154.829 27.422,152.197 28.584 C 145.983 31.329,144.696 31.719,135.103 33.771 C 129.973 34.869,128.461 35.480,126.282 37.339 C 123.908 39.363,122.056 40.275,116.577 42.119 L 112.105 43.623 109.638 45.977 C 107.747 47.780,106.421 48.713,103.964 49.968 C 101.445 51.256,100.356 52.031,98.876 53.589 C 97.840 54.680,95.880 56.298,94.519 57.186 C 89.969 60.155,77.066 72.999,74.344 77.267 C 73.591 78.448,71.840 80.594,70.452 82.035 C 68.498 84.065,67.602 85.308,66.483 87.539 C 65.406 89.686,64.423 91.074,62.625 92.982 L 60.213 95.543 58.624 100.421 C 56.895 105.731,56.179 107.171,54.111 109.499 C 51.924 111.961,51.369 113.484,49.787 121.357 C 48.792 126.307,47.535 130.310,45.744 134.231 C 42.594 141.126,40.722 169.961,42.505 184.117 C 43.317 190.565,44.418 195.590,45.781 199.075 C 47.596 203.712,49.189 208.924,49.976 212.799 C 51.436 219.990,51.927 221.222,54.703 224.651 C 56.096 226.371,56.793 227.795,58.421 232.240 C 60.181 237.045,60.673 237.949,62.767 240.231 C 64.178 241.768,65.191 243.289,66.221 245.413 C 67.452 247.954,68.067 248.801,70.198 250.887 C 71.584 252.244,73.307 254.325,74.027 255.513 C 76.594 259.746,77.806 261.051,88.693 271.311 C 90.714 273.215,93.389 275.474,94.639 276.330 C 95.888 277.186,97.761 278.762,98.802 279.832 C 100.312 281.385,101.376 282.115,104.075 283.449 C 106.772 284.781,107.870 285.534,109.502 287.169 C 111.968 289.639,112.354 289.848,118.023 291.781 C 123.325 293.588,123.448 293.649,126.576 296.021 C 129.455 298.205,131.641 299.002,138.628 300.417 C 144.243 301.555,145.980 302.030,148.882 303.224 L 151.118 304.144 151.118 306.274 L 151.118 308.404 158.982 308.404 L 166.847 308.404 166.847 306.270 C 166.847 304.195,166.819 304.120,165.844 303.521 C 161.211 300.678,151.194 298.342,139.861 297.464 C 136.372 297.193,133.683 296.219,132.892 294.940 C 131.297 292.358,127.442 290.374,122.473 289.576 C 119.423 289.086,116.311 287.725,115.595 286.568 C 115.018 285.636,113.042 283.953,110.600 282.314 C 109.505 281.579,107.140 280.755,105.320 280.475 C 103.732 280.230,102.889 279.529,102.355 278.011 C 101.703 276.153,99.483 274.097,97.436 273.455 C 95.227 272.762,93.625 271.426,92.820 269.606 C 91.953 267.645,90.864 266.566,88.673 265.496 C 86.355 264.364,85.056 263.112,84.037 261.030 C 83.146 259.210,81.895 258.011,80.160 257.317 C 78.808 256.776,77.622 255.147,76.763 252.651 C 75.907 250.163,74.835 248.935,72.659 247.948 C 70.249 246.855,69.867 246.385,69.409 243.948 C 68.718 240.277,66.079 235.700,63.678 234.008 C 62.146 232.928,61.134 230.816,60.461 227.294 C 59.678 223.194,57.729 219.489,55.260 217.406 C 53.620 216.022,53.013 213.791,52.121 205.860 C 50.852 194.579,49.636 189.996,46.721 185.505 C 44.194 181.613,43.951 152.785,46.412 148.944 C 49.422 144.244,51.700 134.915,52.584 123.670 C 52.892 119.750,53.874 116.687,55.057 115.956 C 57.198 114.632,59.813 109.974,60.435 106.373 C 61.077 102.659,62.287 99.671,63.438 98.960 C 64.003 98.611,64.868 97.740,65.360 97.025 C 65.852 96.309,66.486 95.532,66.767 95.298 C 67.590 94.616,68.757 92.053,69.380 89.559 C 70.070 86.799,70.296 86.493,72.308 85.595 C 74.668 84.542,76.761 81.996,76.786 80.147 C 76.796 79.399,79.013 76.538,79.722 76.357 C 81.444 75.919,83.200 74.368,84.168 72.431 C 85.397 69.971,86.669 68.649,88.702 67.718 C 90.612 66.843,91.982 65.482,92.706 63.738 C 93.398 62.070,95.153 60.647,97.376 59.949 C 99.507 59.280,101.788 57.185,102.394 55.339 C 102.895 53.814,103.616 53.297,105.896 52.826 C 109.021 52.181,111.255 50.909,114.021 48.199 C 116.837 45.442,118.723 44.472,122.551 43.817 C 126.523 43.137,131.009 40.727,132.546 38.449 C 133.303 37.326,136.616 36.083,138.850 36.083 C 141.080 36.083,150.065 34.804,153.964 33.931 C 160.641 32.436,162.329 31.831,165.150 29.921 C 167.220 28.520,169.830 28.293,183.490 28.328 C 197.359 28.363,199.908 28.591,201.934 29.978 C 206.108 32.834,219.878 36.083,227.806 36.083 C 229.840 36.083,232.631 37.297,233.860 38.716 C 235.586 40.709,240.188 43.649,242.821 44.440 C 244.034 44.804,245.311 45.209,245.658 45.338 C 246.215 45.546,246.351 46.084,246.818 49.915 L 247.346 54.257 246.558 56.196 C 245.917 57.771,245.516 58.296,244.411 58.997 C 243.663 59.471,242.663 60.463,242.189 61.200 C 240.128 64.403,233.917 65.161,224.536 63.355 C 222.406 62.945,220.635 62.609,220.601 62.608 C 220.567 62.607,220.120 61.997,219.608 61.254 C 216.764 57.120,212.753 56.307,192.759 55.815 C 161.996 55.057,150.594 56.380,146.676 61.162 C 146.029 61.951,145.197 62.607,144.712 62.709 C 133.059 65.167,131.778 65.654,128.488 68.881 C 127.165 70.179,125.938 71.241,125.762 71.241 C 122.966 71.241,115.791 75.888,115.031 78.192 C 114.634 79.396,113.057 80.527,110.734 81.275 C 108.413 82.023,106.914 83.536,105.859 86.195 L 105.004 88.350 102.849 89.205 C 100.193 90.259,98.679 91.758,97.925 94.081 C 97.062 96.739,96.341 97.696,94.656 98.421 C 92.458 99.366,91.323 100.830,89.505 105.067 C 88.619 107.130,87.895 108.949,87.895 109.110 C 87.895 109.270,86.841 110.496,85.552 111.833 C 82.276 115.232,82.303 115.171,80.312 123.670 L 79.192 128.450 77.566 129.992 C 73.767 133.595,73.010 137.362,72.445 155.454 C 71.899 172.936,72.725 193.589,74.130 197.570 C 75.128 200.398,76.759 202.595,78.711 203.739 C 79.009 203.914,79.579 205.918,80.322 209.406 C 81.987 217.228,82.616 218.883,84.359 220.025 C 85.972 221.082,87.526 222.850,87.902 224.056 C 89.919 230.534,91.993 233.899,94.579 234.886 C 96.169 235.494,97.146 236.731,97.850 239.031 C 98.586 241.433,100.132 243.134,102.320 243.951 C 104.568 244.789,105.330 245.513,105.961 247.412 C 106.784 249.890,109.870 252.566,111.922 252.580 C 112.750 252.586,114.440 254.178,115.093 255.569 C 115.975 257.444,117.553 258.916,119.469 259.650 C 125.892 262.111,126.532 262.462,129.067 264.910 C 131.348 267.114,133.936 268.620,135.441 268.620 C 138.217 268.620,145.511 270.980,146.614 272.236 C 150.059 276.157,154.138 277.054,170.856 277.566 C 193.214 278.252,211.846 277.219,216.180 275.053 C 217.855 274.216,218.313 273.789,220.497 271.022 C 220.593 270.901,223.343 270.243,226.609 269.559 C 233.106 268.200,235.080 267.422,236.454 265.680 C 238.146 263.533,239.179 262.539,239.939 262.325 C 246.336 260.523,250.554 258.041,251.520 255.514 C 252.155 253.851,253.384 252.864,255.734 252.130 C 258.177 251.367,259.787 249.909,260.604 247.718 C 261.458 245.428,262.106 244.773,264.311 243.969 C 266.567 243.146,268.126 241.442,268.828 239.029 C 269.485 236.768,270.331 235.698,272.044 234.961 C 274.755 233.795,276.988 230.115,278.945 223.593 C 279.072 223.169,280.315 221.712,281.706 220.355 C 284.598 217.535,284.976 216.505,287.267 205.215 C 287.391 204.601,287.886 203.941,288.653 203.364 C 293.282 199.885,294.487 190.954,294.520 159.872 C 294.527 152.995,294.878 151.793,297.344 150.195 C 298.391 149.517,299.174 148.673,299.822 147.524 C 302.554 142.683,314.450 142.392,316.579 147.114 C 317.161 148.404,319.007 150.287,320.243 150.850 C 322.197 151.740,322.757 162.576,321.539 175.944 C 320.868 183.299,321.057 182.616,317.566 190.309 C 316.127 193.482,314.699 201.483,314.104 209.715 C 313.903 212.487,312.910 215.855,312.160 216.307 C 309.220 218.081,307.036 222.095,306.252 227.165 C 305.745 230.446,304.526 233.127,303.036 234.241 C 300.425 236.192,298.181 239.861,297.421 243.420 C 296.744 246.597,296.489 246.974,294.382 247.931 C 292.133 248.952,290.769 250.428,290.039 252.632 C 289.316 254.814,287.934 256.478,286.214 257.239 C 284.380 258.049,283.192 259.193,282.370 260.937 C 281.244 263.328,279.900 264.747,277.765 265.798 C 275.727 266.801,274.573 267.986,273.776 269.893 C 273.316 270.994,271.182 272.935,270.426 272.941 C 268.460 272.955,265.022 275.898,264.350 278.144 C 263.893 279.669,263.023 280.230,260.222 280.807 C 256.235 281.629,251.411 284.549,250.151 286.903 C 249.589 287.954,246.639 289.160,243.177 289.754 C 238.697 290.523,232.845 293.879,232.845 295.680 C 232.845 296.343,228.260 297.312,221.588 298.062 C 211.571 299.187,209.483 299.679,204.552 302.078 L 200.463 304.068 200.463 306.236 L 200.463 308.404 207.864 308.404 L 215.266 308.404 215.266 306.256 L 215.266 304.108 219.701 302.705 C 222.140 301.933,226.199 300.827,228.721 300.246 C 235.221 298.750,237.252 297.973,240.584 295.704 C 242.550 294.365,244.529 293.342,246.723 292.529 C 252.507 290.388,254.369 289.413,256.520 287.402 C 258.013 286.005,259.377 285.118,261.803 283.966 C 264.665 282.606,265.381 282.099,267.540 279.895 C 268.897 278.510,271.197 276.606,272.651 275.663 C 275.352 273.911,280.381 269.366,284.197 265.227 C 285.370 263.955,287.457 261.735,288.834 260.293 C 290.211 258.851,291.935 256.769,292.665 255.667 C 293.395 254.564,295.006 252.655,296.245 251.423 C 298.126 249.552,298.777 248.613,300.201 245.718 C 301.533 243.010,302.352 241.789,303.945 240.141 C 306.157 237.850,306.419 237.352,308.912 230.698 C 310.127 227.454,310.998 225.668,312.105 224.151 C 314.679 220.623,315.824 217.653,317.026 211.383 C 317.983 206.396,319.069 202.644,320.579 199.108 C 323.464 192.353,324.108 187.741,324.715 169.468 C 325.369 149.790,324.313 146.205,316.728 142.362 L 312.706 140.324 308.297 140.324 L 303.888 140.324 300.518 142.011 C 293.446 145.551,291.752 149.000,291.748 159.870 C 291.741 179.831,290.584 188.696,286.972 196.453 C 285.920 198.713,284.913 201.567,284.197 204.318 C 281.946 212.961,281.641 213.681,278.842 216.939 C 277.481 218.524,276.672 219.876,275.704 222.182 C 273.774 226.780,272.766 228.400,270.021 231.315 C 268.657 232.763,266.985 234.910,266.307 236.084 C 264.921 238.484,263.713 239.796,261.121 241.719 C 260.144 242.444,258.899 243.683,258.354 244.472 C 256.576 247.047,255.647 247.927,253.131 249.418 C 251.768 250.226,249.376 252.070,247.817 253.516 C 244.902 256.218,242.980 257.368,238.023 259.377 C 236.268 260.088,235.055 260.869,233.401 262.352 C 230.477 264.974,229.823 265.280,224.016 266.744 C 218.023 268.254,216.030 268.931,213.601 270.281 C 206.660 274.138,189.936 275.915,172.731 274.622 C 162.115 273.824,159.606 273.322,155.127 271.103 C 151.681 269.395,149.933 268.774,144.333 267.266 C 137.153 265.332,136.101 264.886,133.684 262.752 C 132.537 261.740,130.821 260.548,129.870 260.105 C 123.053 256.924,121.619 256.086,119.352 253.961 C 116.668 251.444,115.385 250.462,113.578 249.541 C 111.757 248.614,110.351 247.307,108.728 245.033 C 107.838 243.786,106.522 242.494,105.093 241.465 C 102.398 239.525,101.843 238.903,100.228 236.006 C 99.542 234.776,97.903 232.625,96.586 231.225 C 94.153 228.642,92.334 225.722,90.968 222.205 C 90.040 219.818,89.166 218.430,87.283 216.350 C 85.182 214.030,84.710 212.974,83.268 207.357 C 81.564 200.726,81.577 200.764,79.711 196.916 C 73.337 183.772,73.248 149.850,79.553 136.777 C 81.227 133.305,81.541 132.379,83.110 126.291 C 84.460 121.051,85.474 118.822,87.561 116.515 C 88.648 115.313,89.678 113.635,90.818 111.208 C 92.979 106.609,94.288 104.586,96.862 101.868 C 98.017 100.648,99.522 98.636,100.206 97.396 C 101.644 94.790,102.430 93.820,103.933 92.795 C 106.349 91.149,107.301 90.269,108.491 88.584 C 110.202 86.161,111.692 84.839,114.459 83.287 C 115.753 82.561,117.791 81.033,118.986 79.890 C 121.355 77.627,123.627 76.184,128.604 73.782 C 130.386 72.922,132.398 71.707,133.076 71.081 C 135.910 68.468,136.869 68.060,145.412 65.834 C 148.301 65.082,151.009 64.113,153.593 62.907 C 161.577 59.182,170.539 58.069,188.206 58.612 C 201.498 59.020,207.528 60.040,212.916 62.790 C 220.587 66.707,234.227 68.928,239.322 67.092 C 246.099 64.648,247.436 63.526,248.859 59.084 C 250.155 55.038,250.231 54.297,249.816 49.774 C 249.307 44.234,248.564 43.099,243.622 40.312 C 242.849 39.877,241.668 38.987,240.997 38.336 C 237.999 35.427,236.821 34.924,229.144 33.283 C 224.302 32.248,220.277 31.009,215.385 29.046 C 212.098 27.727,208.211 26.858,201.941 26.039 C 197.557 25.466,175.140 25.160,169.541 25.596 M302.390 51.394 C 301.542 51.827,300.015 52.983,298.998 53.961 C 297.980 54.940,296.296 56.308,295.255 57.002 C 294.214 57.696,292.549 59.192,291.554 60.327 C 288.901 63.354,287.461 64.770,285.630 66.153 C 284.731 66.831,283.234 68.393,282.303 69.624 C 281.372 70.855,280.098 72.242,279.473 72.708 C 278.847 73.173,277.195 74.734,275.802 76.176 C 272.780 79.303,271.095 80.996,268.003 84.011 C 266.731 85.251,264.841 87.153,263.804 88.237 C 262.766 89.321,260.893 91.193,259.640 92.396 C 258.388 93.599,256.529 95.473,255.509 96.559 C 254.490 97.646,252.853 99.208,251.873 100.031 C 250.892 100.853,249.513 102.311,248.807 103.269 C 247.260 105.372,247.330 105.301,245.027 107.062 C 242.946 108.652,241.010 110.659,239.813 112.469 C 239.369 113.139,238.134 114.328,237.067 115.111 C 234.906 116.698,232.738 118.903,231.499 120.776 C 231.048 121.457,229.807 122.655,228.740 123.438 C 226.576 125.027,224.411 127.231,223.167 129.110 C 222.714 129.795,221.386 131.070,220.216 131.942 C 219.046 132.815,217.419 134.321,216.601 135.290 C 214.702 137.536,212.474 139.764,210.208 141.680 C 209.226 142.511,207.746 144.120,206.919 145.256 C 206.093 146.393,204.830 147.711,204.112 148.186 C 202.149 149.484,199.927 151.667,198.424 153.773 C 197.684 154.809,196.494 156.043,195.780 156.516 C 193.819 157.813,191.598 159.997,190.089 162.110 C 188.077 164.928,187.914 164.996,183.149 164.996 L 179.076 164.996 177.890 163.685 C 177.238 162.965,176.115 161.620,175.395 160.697 C 174.675 159.774,172.941 158.108,171.542 156.996 C 170.142 155.883,168.565 154.348,168.037 153.585 C 166.635 151.557,165.390 150.305,163.238 148.759 C 162.187 148.003,160.640 146.511,159.800 145.443 C 157.905 143.031,155.104 141.108,152.787 140.627 C 151.844 140.431,149.864 139.892,148.389 139.429 C 145.975 138.672,145.605 138.630,144.696 139.001 C 144.140 139.227,142.270 139.773,140.540 140.213 C 135.735 141.435,133.382 143.339,132.435 146.773 C 132.173 147.721,131.529 149.779,131.004 151.347 L 130.048 154.197 130.860 156.898 C 131.307 158.384,131.832 160.293,132.027 161.141 C 132.727 164.183,133.949 165.693,142.687 174.317 C 147.382 178.950,147.701 179.271,150.460 182.113 C 151.942 183.639,153.841 185.521,154.681 186.294 C 155.520 187.067,157.017 188.631,158.008 189.768 C 158.999 190.905,160.682 192.459,161.749 193.220 C 162.917 194.054,164.380 195.522,165.424 196.910 C 166.379 198.178,168.010 199.878,169.050 200.687 C 170.090 201.497,171.993 203.116,173.279 204.286 C 176.848 207.533,177.755 207.858,183.288 207.861 C 188.768 207.865,189.999 207.434,193.328 204.346 C 194.453 203.303,196.154 201.872,197.108 201.167 C 198.062 200.462,199.588 199.022,200.500 197.966 C 202.703 195.418,204.046 194.084,205.896 192.607 C 206.740 191.933,208.048 190.614,208.802 189.677 C 209.557 188.739,210.929 187.278,211.851 186.430 C 212.773 185.582,214.672 183.709,216.070 182.267 C 217.468 180.825,219.229 179.037,219.983 178.294 C 220.737 177.551,222.603 175.694,224.129 174.168 C 225.656 172.641,227.548 170.751,228.334 169.967 C 229.120 169.184,231.004 167.294,232.522 165.767 C 234.039 164.241,235.906 162.367,236.672 161.604 C 237.438 160.840,239.284 158.996,240.775 157.506 C 242.265 156.015,244.124 154.156,244.905 153.375 C 245.687 152.593,247.575 150.705,249.101 149.179 C 250.628 147.652,252.502 145.778,253.265 145.015 C 254.028 144.252,255.902 142.378,257.428 140.852 C 258.955 139.325,260.814 137.464,261.559 136.717 C 262.305 135.969,264.163 134.116,265.690 132.599 C 267.217 131.082,269.105 129.195,269.886 128.407 C 270.667 127.619,272.556 125.724,274.082 124.198 C 275.609 122.671,277.482 120.798,278.246 120.034 C 279.009 119.271,280.883 117.398,282.409 115.871 C 283.936 114.344,285.809 112.471,286.573 111.708 C 287.336 110.944,289.209 109.071,290.736 107.544 C 292.263 106.017,294.122 104.153,294.867 103.400 C 295.612 102.647,297.332 100.956,298.689 99.641 C 300.046 98.327,301.927 96.430,302.868 95.426 C 303.809 94.422,305.520 92.782,306.670 91.781 C 307.820 90.780,309.293 89.242,309.943 88.362 C 310.593 87.482,312.233 85.845,313.588 84.725 C 314.943 83.604,316.725 81.749,317.548 80.603 C 318.371 79.457,319.832 77.679,320.794 76.651 C 323.971 73.261,324.442 71.971,324.438 66.661 C 324.435 61.041,324.180 60.505,319.170 55.539 C 314.433 50.844,313.837 50.574,308.266 50.593 C 304.242 50.606,303.822 50.663,302.390 51.394 M312.892 53.898 C 313.070 54.023,313.451 54.749,313.739 55.513 C 314.896 58.584,316.277 59.964,319.400 61.173 L 321.203 61.871 321.291 66.171 C 321.403 71.573,321.383 71.650,319.745 72.185 C 317.780 72.827,315.773 74.992,315.044 77.255 C 314.325 79.489,312.830 81.196,311.153 81.698 C 309.395 82.225,307.804 83.769,306.835 85.891 C 305.846 88.056,304.407 89.521,302.749 90.050 C 301.009 90.605,299.465 92.123,298.508 94.217 C 297.519 96.383,296.080 97.848,294.422 98.377 C 292.683 98.932,291.138 100.450,290.181 102.544 C 289.192 104.710,287.753 106.175,286.095 106.704 C 284.356 107.259,282.811 108.777,281.854 110.871 C 280.865 113.036,279.426 114.502,277.768 115.031 C 276.029 115.586,274.485 117.104,273.527 119.198 C 272.533 121.376,271.098 122.829,269.410 123.368 C 267.820 123.876,265.485 126.241,264.947 127.889 C 264.429 129.475,262.702 131.179,261.090 131.693 C 259.340 132.251,257.365 134.203,256.712 136.017 C 256.045 137.872,254.462 139.427,252.511 140.143 C 250.785 140.777,248.878 142.785,248.279 144.600 C 247.762 146.165,246.055 147.784,244.203 148.463 C 242.470 149.099,240.486 151.137,239.943 152.840 C 239.437 154.425,237.723 156.188,236.261 156.626 C 234.524 157.146,232.374 159.186,231.739 160.915 C 231.044 162.809,229.433 164.495,227.812 165.024 C 226.186 165.555,223.883 167.836,223.326 169.468 C 222.745 171.172,221.298 172.594,219.179 173.545 C 217.178 174.443,215.630 176.033,214.995 177.843 C 214.402 179.529,212.937 180.953,210.778 181.938 C 208.702 182.885,207.247 184.408,206.629 186.281 C 206.088 187.921,204.713 189.243,202.484 190.266 C 200.258 191.288,199.510 192.045,198.504 194.298 C 197.538 196.460,196.116 197.780,194.021 198.459 C 191.866 199.158,190.196 200.692,189.339 202.761 C 188.448 204.910,187.989 205.089,183.346 205.089 C 178.780 205.089,178.188 204.877,177.468 202.993 C 176.693 200.965,174.695 199.093,172.598 198.432 C 170.526 197.779,169.031 196.321,168.249 194.193 C 167.540 192.262,166.014 190.761,164.056 190.068 C 162.076 189.367,160.811 188.135,159.856 185.977 C 158.851 183.704,158.113 182.963,155.790 181.897 C 153.356 180.781,152.573 180.009,151.569 177.739 C 150.527 175.383,149.838 174.690,147.306 173.450 C 144.847 172.246,144.233 171.627,143.204 169.314 C 142.219 167.100,141.278 166.157,139.064 165.163 C 136.309 163.927,135.880 163.149,135.404 158.520 C 134.826 152.903,135.480 146.325,136.740 145.070 C 137.942 143.874,144.796 143.281,150.104 143.915 C 154.926 144.490,155.721 144.877,156.360 146.955 C 157.117 149.419,158.086 150.392,161.425 152.043 C 163.536 153.087,163.644 153.196,164.688 155.343 C 166.203 158.459,168.691 160.657,170.725 160.675 C 171.318 160.681,172.317 162.023,173.253 164.071 C 175.135 168.192,176.793 169.001,183.346 168.996 C 190.063 168.990,192.735 167.490,193.777 163.137 C 194.039 162.042,195.415 160.877,197.224 160.218 C 199.207 159.496,201.131 157.572,201.853 155.590 C 202.603 153.530,203.498 152.621,205.459 151.927 C 207.528 151.195,209.433 149.313,210.180 147.263 C 210.839 145.453,212.004 144.077,213.099 143.816 C 215.733 143.187,218.658 140.307,218.658 138.342 C 218.658 137.618,220.488 135.714,221.391 135.497 C 223.900 134.895,225.924 133.064,226.844 130.564 C 227.496 128.793,228.669 127.421,229.752 127.162 C 232.224 126.570,234.256 124.724,235.171 122.238 C 235.914 120.219,236.819 119.309,238.766 118.620 C 240.836 117.887,242.741 116.005,243.487 113.955 C 244.146 112.146,245.311 110.770,246.406 110.508 C 248.878 109.916,250.909 108.070,251.825 105.584 C 252.581 103.530,253.558 102.567,255.664 101.799 C 257.798 101.021,259.338 99.466,260.146 97.272 C 260.908 95.203,261.881 94.242,263.990 93.472 C 266.125 92.694,267.665 91.139,268.473 88.945 C 269.220 86.914,270.261 85.855,272.111 85.241 C 274.139 84.567,276.086 82.621,276.758 80.597 C 277.381 78.721,278.744 77.388,280.802 76.642 C 282.748 75.936,284.445 74.196,285.095 72.240 C 285.634 70.617,287.113 68.978,288.358 68.622 C 290.773 67.932,292.740 65.998,293.560 63.505 C 294.055 62.000,295.381 60.809,297.156 60.275 C 300.239 59.347,301.919 57.942,302.851 55.513 C 303.571 53.635,303.493 53.662,308.210 53.667 C 310.607 53.670,312.713 53.774,312.892 53.898 " stroke="none" fill="#51a4fc" fill-rule="evenodd"></path><path id="path4" d="M157.749 22.537 C 147.045 23.088,142.042 24.752,140.165 28.383 C 139.633 29.411,138.499 29.725,132.922 30.386 C 124.965 31.329,123.510 31.892,120.278 35.270 L 118.116 37.529 113.877 38.668 C 107.269 40.442,106.119 41.204,104.898 44.619 C 104.413 45.974,104.270 46.111,103.134 46.305 C 100.644 46.730,98.338 47.565,96.805 48.596 C 95.942 49.178,95.135 49.653,95.013 49.653 C 94.505 49.653,92.187 51.928,91.562 53.039 C 90.822 54.356,88.785 55.889,85.772 57.394 C 83.876 58.341,82.035 60.410,82.035 61.594 C 82.035 62.332,79.443 64.839,78.068 65.429 C 75.881 66.368,75.037 67.138,74.067 69.079 C 72.630 71.956,70.851 74.501,70.008 74.888 C 67.599 75.993,64.181 81.123,63.265 85.005 C 62.922 86.462,62.598 87.684,62.546 87.720 C 62.494 87.756,61.787 88.032,60.975 88.333 C 57.780 89.517,57.063 90.654,55.369 97.219 L 54.197 101.762 51.789 103.972 C 48.429 107.056,47.827 108.716,46.882 117.502 C 46.382 122.153,46.106 122.904,44.571 123.804 C 39.595 126.720,39.013 131.143,39.013 166.076 C 39.013 202.643,39.597 207.050,44.819 209.862 C 46.156 210.582,46.393 211.341,47.035 216.962 C 47.949 224.979,48.530 226.509,51.960 229.939 C 54.265 232.244,55.098 234.068,56.318 239.476 C 56.943 242.248,59.199 244.858,61.387 245.339 C 62.506 245.584,62.491 245.559,63.233 248.457 C 63.568 249.767,64.133 251.333,64.489 251.936 C 65.769 254.106,68.908 257.720,70.006 258.287 C 70.798 258.697,72.753 261.714,73.835 264.198 C 74.566 265.874,75.959 267.194,77.872 268.022 C 79.834 268.871,81.592 270.548,82.377 272.317 C 83.181 274.130,84.014 274.988,85.891 275.938 C 88.482 277.248,90.796 279.163,91.764 280.797 C 93.036 282.942,97.443 285.680,101.002 286.538 C 101.850 286.742,103.065 287.032,103.701 287.183 C 104.497 287.371,104.857 287.626,104.857 288.001 C 104.857 290.961,107.372 292.884,113.447 294.569 L 118.182 295.881 120.533 298.291 C 123.596 301.432,126.548 302.460,134.927 303.304 C 135.944 303.406,137.436 303.638,138.242 303.819 L 139.707 304.148 139.707 306.276 L 139.707 308.404 142.174 308.404 L 144.641 308.404 144.641 306.297 L 144.641 304.190 141.987 303.367 C 140.527 302.914,137.378 302.190,134.991 301.757 C 127.980 300.487,125.914 299.607,123.088 296.691 C 121.799 295.361,121.337 295.118,118.423 294.241 C 110.883 291.972,108.712 290.841,107.473 288.540 C 106.730 287.162,105.249 286.098,102.988 285.320 C 100.037 284.305,98.605 283.400,96.535 281.243 C 95.430 280.092,93.485 278.454,92.213 277.603 C 90.941 276.753,88.443 274.652,86.662 272.934 C 84.880 271.217,81.987 268.538,80.232 266.980 C 76.756 263.895,73.873 260.303,71.898 256.595 C 70.864 254.654,70.352 254.048,69.089 253.263 C 67.303 252.152,65.559 249.679,64.484 246.732 C 63.908 245.151,63.343 244.378,61.247 242.300 C 58.580 239.657,57.331 237.099,55.386 230.300 C 54.967 228.835,54.556 228.219,53.028 226.764 C 50.305 224.172,49.320 221.719,48.408 215.266 C 47.888 211.586,46.469 207.301,45.230 205.672 C 41.373 200.602,40.243 191.745,40.254 166.692 C 40.266 140.571,41.211 133.541,45.493 127.708 C 46.569 126.242,47.656 122.596,48.409 117.925 C 49.536 110.930,50.165 109.460,53.344 106.387 C 54.817 104.963,55.179 104.398,55.515 102.995 C 57.098 96.386,58.934 92.547,61.338 90.820 C 63.022 89.611,64.210 88.012,64.773 86.199 C 65.654 83.366,67.468 80.852,69.568 79.554 C 70.191 79.169,70.987 78.205,71.547 77.157 C 74.414 71.794,87.414 58.584,93.219 55.135 C 94.482 54.384,95.755 53.332,96.284 52.602 C 97.813 50.492,99.963 49.023,102.853 48.115 C 104.836 47.492,106.040 46.612,107.369 44.813 C 109.352 42.128,110.749 41.423,118.873 39.006 C 121.415 38.250,121.755 38.051,123.187 36.487 C 125.820 33.613,128.174 32.666,135.312 31.608 C 139.378 31.005,143.678 29.605,145.200 28.387 C 149.741 24.753,159.832 23.447,183.399 23.441 C 206.247 23.436,219.243 25.145,222.046 28.521 C 222.984 29.652,227.170 30.980,232.773 31.925 C 238.463 32.884,240.466 33.780,242.770 36.398 C 243.701 37.455,245.091 38.602,246.087 39.134 C 251.246 41.890,253.219 48.974,251.378 58.134 C 249.983 65.076,248.704 66.321,239.992 69.220 C 233.805 71.278,211.433 67.212,205.431 62.939 C 200.176 59.197,165.886 59.593,160.092 63.462 C 157.882 64.938,152.769 66.675,148.188 67.506 C 141.029 68.806,137.819 70.047,135.459 72.429 C 133.764 74.139,133.018 74.650,131.380 75.225 C 127.491 76.588,124.610 78.235,122.728 80.171 C 120.507 82.454,117.426 84.632,114.642 85.886 C 112.150 87.008,112.045 87.099,111.086 88.947 C 109.846 91.340,107.957 93.209,105.506 94.470 C 103.673 95.414,103.562 95.540,102.594 97.773 C 101.357 100.628,100.317 102.140,97.386 105.339 C 95.299 107.617,92.521 111.961,92.521 112.947 C 92.521 114.197,90.332 117.801,88.737 119.178 C 86.858 120.800,85.221 125.204,84.028 131.843 C 83.312 135.835,81.631 140.782,80.167 143.208 C 76.203 149.781,75.748 183.326,79.549 188.726 C 81.212 191.088,83.170 196.768,84.338 202.621 C 85.825 210.073,86.728 212.374,88.963 214.407 C 90.521 215.824,91.064 216.579,91.739 218.262 C 93.900 223.656,95.076 225.711,97.395 228.142 C 100.250 231.136,101.324 232.678,102.593 235.612 C 103.565 237.857,103.663 237.967,105.541 238.927 C 107.887 240.126,110.116 242.314,111.273 244.554 C 111.743 245.464,112.331 246.319,112.579 246.454 C 112.827 246.590,114.116 247.222,115.442 247.860 C 117.177 248.693,118.807 249.865,121.244 252.030 C 124.919 255.295,127.384 256.846,130.382 257.779 C 132.788 258.528,135.085 259.984,136.198 261.466 C 137.491 263.190,141.621 264.736,147.900 265.847 C 153.586 266.854,158.111 268.381,160.256 270.017 C 161.719 271.133,162.365 271.312,167.378 271.992 C 182.274 274.011,200.591 273.163,205.612 270.223 C 208.368 268.609,214.733 266.482,219.073 265.724 C 225.266 264.643,229.343 263.141,230.517 261.507 C 231.722 259.830,233.392 258.752,236.693 257.520 C 240.273 256.184,242.675 254.709,245.181 252.308 C 247.869 249.732,249.918 248.297,252.666 247.064 C 254.482 246.249,254.701 246.042,255.518 244.370 C 256.604 242.150,258.665 240.090,261.103 238.791 C 262.746 237.915,263.018 237.629,263.649 236.105 C 264.681 233.616,266.404 231.150,268.945 228.527 C 271.368 226.026,273.011 223.308,274.348 219.588 C 275.436 216.561,275.766 216.045,277.899 214.032 C 279.893 212.152,281.376 208.100,282.635 201.090 C 283.393 196.874,284.809 192.643,286.382 189.897 C 288.678 185.888,289.397 180.299,289.903 162.529 C 290.376 145.893,291.043 144.020,297.662 140.725 C 303.249 137.944,303.824 137.798,308.765 137.911 L 313.184 138.011 316.380 139.459 C 324.071 142.944,324.987 144.064,326.283 151.560 C 326.693 153.929,326.690 171.046,326.279 181.075 C 325.743 194.129,324.396 200.783,321.510 204.638 C 320.584 205.874,319.458 209.534,318.445 214.593 C 316.959 222.019,316.019 224.366,313.579 226.743 C 312.138 228.146,311.935 228.544,310.544 232.685 C 308.389 239.100,307.496 240.699,305.109 242.413 C 303.609 243.491,302.541 244.991,301.933 246.877 C 301.075 249.537,299.970 251.260,297.666 253.530 C 296.363 254.814,294.679 256.861,293.924 258.080 C 293.169 259.298,291.179 261.717,289.501 263.455 C 287.824 265.193,284.833 268.288,282.856 270.332 C 278.832 274.491,276.512 276.373,273.192 278.171 C 271.454 279.112,270.729 279.719,270.047 280.806 C 268.982 282.506,266.939 284.127,264.974 284.832 C 261.794 285.974,260.195 286.953,259.161 288.391 C 257.480 290.729,255.386 291.868,248.111 294.404 C 245.521 295.307,244.780 295.721,243.485 296.991 C 240.940 299.486,238.060 300.538,229.187 302.212 C 228.109 302.416,226.270 302.937,225.101 303.370 L 222.976 304.158 222.976 306.281 L 222.976 308.404 225.135 308.404 L 227.294 308.404 227.294 306.285 L 227.294 304.167 228.604 303.835 C 229.325 303.653,231.581 303.281,233.616 303.008 C 241.949 301.892,243.497 301.310,247.019 297.972 C 249.414 295.702,250.060 295.400,256.611 293.489 C 258.861 292.833,260.704 291.243,261.401 289.357 C 262.104 287.456,262.378 287.124,263.249 287.124 C 264.774 287.124,268.671 285.618,270.249 284.419 C 271.134 283.746,272.235 282.957,272.696 282.664 C 273.157 282.371,273.953 281.499,274.465 280.727 C 275.478 279.198,277.352 277.808,280.674 276.120 C 282.889 274.995,283.656 274.190,284.650 271.949 C 285.390 270.282,287.126 268.605,289.166 267.588 C 290.909 266.718,292.042 265.545,292.673 263.958 C 293.262 262.473,295.996 258.815,296.677 258.599 C 299.040 257.849,302.128 252.975,303.284 248.171 L 303.937 245.456 305.785 244.713 C 308.094 243.785,309.489 242.259,310.137 239.953 C 312.017 233.260,312.329 232.571,314.456 230.419 C 317.810 227.026,318.299 225.811,319.497 217.887 C 320.371 212.109,320.669 210.866,321.292 210.403 C 326.915 206.226,327.809 200.527,327.860 168.543 C 327.894 147.143,327.596 144.117,325.227 141.748 C 324.146 140.666,323.548 140.359,319.403 138.756 C 317.093 137.863,316.534 137.504,315.735 136.403 C 313.870 133.832,313.115 133.539,308.357 133.539 C 303.691 133.539,302.546 133.984,300.949 136.420 C 300.328 137.368,295.985 139.707,294.846 139.707 C 294.075 139.707,292.062 140.991,291.207 142.028 C 289.348 144.284,289.076 146.165,288.696 159.445 C 288.236 175.484,287.879 179.222,286.656 180.824 C 283.555 184.887,281.499 192.000,280.802 201.079 C 280.463 205.499,279.605 207.915,277.848 209.397 C 274.970 211.823,272.321 217.042,272.321 220.285 C 272.321 221.373,270.974 223.329,269.820 223.918 C 268.036 224.829,266.796 226.029,265.984 227.631 C 265.568 228.451,264.673 229.981,263.994 231.031 C 263.316 232.082,262.760 233.116,262.760 233.330 C 262.760 233.545,262.261 234.028,261.651 234.405 C 261.041 234.782,260.143 235.642,259.655 236.315 C 259.167 236.989,258.244 237.883,257.603 238.301 C 256.962 238.720,255.952 239.703,255.359 240.486 C 253.611 242.792,250.199 246.052,248.796 246.757 C 248.080 247.116,247.078 247.715,246.569 248.088 C 246.060 248.461,245.166 248.959,244.581 249.195 C 243.024 249.823,241.543 251.245,240.687 252.936 C 239.782 254.722,238.564 255.427,235.466 255.957 C 231.926 256.562,228.291 258.705,226.030 261.518 C 224.847 262.989,222.376 263.703,215.883 264.447 C 206.256 265.550,201.688 266.929,198.743 269.620 L 197.022 271.193 188.099 271.526 C 176.759 271.948,171.443 271.565,169.468 270.183 C 165.064 267.101,158.276 265.081,149.730 264.311 C 144.538 263.843,141.699 262.961,140.743 261.517 C 139.131 259.080,135.394 256.897,131.444 256.084 C 128.079 255.391,126.911 254.720,126.015 252.964 C 125.084 251.141,123.963 250.065,121.807 248.927 C 117.411 246.606,116.271 245.827,114.264 243.769 C 113.076 242.552,111.706 241.040,111.219 240.408 C 110.732 239.777,109.756 238.892,109.050 238.443 C 106.987 237.128,104.162 234.092,103.135 232.083 C 100.795 227.511,100.137 226.453,98.969 225.383 C 98.284 224.757,97.269 224.094,96.714 223.911 C 95.530 223.520,94.613 221.778,94.042 218.833 C 93.333 215.176,90.753 210.835,88.495 209.502 C 87.314 208.804,86.217 205.495,85.908 201.696 C 85.127 192.081,83.171 185.254,80.221 181.846 C 77.808 179.058,77.577 155.083,79.935 152.129 C 82.948 148.353,85.102 140.925,85.907 131.534 C 86.222 127.858,87.335 124.569,88.495 123.883 C 90.773 122.538,93.192 118.489,93.967 114.726 C 94.647 111.425,95.326 110.253,97.075 109.361 C 99.449 108.150,100.068 107.325,103.138 101.298 C 104.128 99.354,107.159 96.145,109.464 94.599 C 110.163 94.131,111.113 93.155,111.574 92.431 C 112.903 90.344,115.839 87.613,117.912 86.535 C 124.943 82.878,124.676 83.083,126.101 80.266 C 126.891 78.705,128.257 77.920,131.073 77.409 C 134.888 76.717,138.387 74.693,140.601 71.898 C 141.786 70.401,143.630 69.820,149.098 69.220 C 158.128 68.229,164.329 66.457,168.389 63.707 L 170.393 62.349 175.019 61.918 C 178.868 61.560,180.967 61.552,187.510 61.868 C 191.835 62.077,195.730 62.259,196.166 62.273 C 196.615 62.287,197.483 62.773,198.171 63.396 C 200.094 65.139,203.728 66.782,207.691 67.701 C 210.066 68.252,217.978 69.388,219.511 69.399 C 221.810 69.414,227.309 70.817,227.796 71.513 C 228.509 72.530,229.197 72.765,232.894 73.252 C 237.760 73.894,237.661 73.909,239.285 72.276 C 240.561 70.993,241.137 70.701,244.810 69.469 C 251.350 67.276,251.902 66.497,253.032 57.880 C 254.389 47.524,252.530 39.961,248.116 37.882 C 247.158 37.431,246.345 36.770,245.957 36.128 C 243.617 32.251,241.711 31.365,233.616 30.391 C 227.786 29.689,227.281 29.517,226.244 27.877 C 223.982 24.303,220.307 23.220,208.061 22.520 C 201.808 22.163,164.772 22.175,157.749 22.537 M300.611 47.659 C 296.974 48.382,291.442 52.124,291.442 53.860 C 291.442 54.090,291.308 54.279,291.145 54.279 C 290.981 54.279,289.975 55.081,288.909 56.062 C 287.842 57.042,286.373 58.228,285.643 58.698 C 284.913 59.168,283.916 60.182,283.428 60.952 C 282.167 62.940,279.374 65.782,277.742 66.739 C 276.623 67.395,274.480 69.805,274.480 70.407 C 274.480 70.743,270.475 74.415,269.198 75.250 C 268.062 75.993,266.153 78.182,266.153 78.741 C 266.153 79.027,262.213 82.749,261.339 83.290 C 260.265 83.954,258.134 86.181,258.134 86.640 C 258.134 86.982,253.477 91.596,253.133 91.596 C 252.697 91.596,250.392 93.848,249.947 94.708 C 249.421 95.726,245.759 99.340,244.269 100.313 C 243.682 100.696,242.742 101.632,242.179 102.394 C 240.717 104.371,237.261 107.875,236.266 108.389 C 235.348 108.864,233.153 111.151,233.153 111.633 C 233.153 112.001,228.550 116.577,228.180 116.577 C 227.722 116.577,225.426 118.800,224.966 119.689 C 224.451 120.685,220.948 124.140,218.970 125.602 C 218.209 126.165,217.273 127.106,216.890 127.692 C 215.917 129.182,212.303 132.844,211.285 133.370 C 210.396 133.830,208.173 136.126,208.173 136.584 C 208.173 136.996,203.719 141.325,202.581 142.020 C 202.025 142.359,201.112 143.261,200.554 144.025 C 199.071 146.050,195.716 149.463,194.681 149.998 C 193.729 150.491,191.519 152.772,191.519 153.263 C 191.519 153.424,190.535 154.534,189.332 155.729 L 187.146 157.903 183.324 157.903 L 179.503 157.903 177.527 155.927 C 176.441 154.841,175.104 153.301,174.557 152.506 C 174.010 151.711,172.988 150.688,172.286 150.233 C 170.600 149.139,167.404 145.949,166.396 144.353 C 165.954 143.652,165.036 142.702,164.355 142.241 C 163.675 141.780,162.543 140.941,161.840 140.377 C 160.395 139.216,157.857 137.857,157.134 137.857 C 156.870 137.857,155.746 137.012,154.637 135.980 C 149.137 130.864,142.337 130.873,136.931 136.004 C 135.998 136.890,134.657 137.816,133.951 138.064 C 132.303 138.641,130.538 140.361,129.756 142.153 C 129.418 142.928,128.412 144.333,127.521 145.275 C 122.289 150.806,122.376 158.797,127.728 164.148 C 128.533 164.954,129.483 166.273,129.838 167.078 C 130.193 167.884,130.874 169.031,131.352 169.628 C 131.830 170.226,132.509 171.280,132.862 171.971 C 133.550 173.321,135.310 175.029,136.599 175.600 C 137.637 176.059,140.387 178.946,141.543 180.789 C 142.365 182.101,144.644 184.117,145.305 184.117 C 145.728 184.117,148.838 187.528,149.946 189.206 C 150.506 190.054,151.658 191.208,152.506 191.771 C 154.447 193.059,157.903 196.173,157.903 196.635 C 157.903 197.185,160.204 199.655,161.181 200.155 C 162.313 200.733,165.587 203.990,166.451 205.397 C 169.019 209.578,173.816 211.235,183.346 211.235 C 192.955 211.235,197.442 209.686,200.192 205.420 C 201.152 203.931,204.311 201.047,206.255 199.885 C 206.929 199.482,207.809 198.596,208.212 197.915 C 209.296 196.082,212.197 192.915,213.303 192.358 C 214.754 191.627,216.308 190.156,216.980 188.878 C 217.751 187.410,220.717 184.444,222.185 183.672 C 223.431 183.017,224.979 181.404,225.538 180.179 C 226.035 179.086,229.147 176.063,230.512 175.345 C 231.753 174.693,233.306 173.078,233.859 171.864 C 234.394 170.688,237.574 167.581,238.970 166.868 C 240.094 166.295,242.406 163.760,242.406 163.101 C 242.406 162.634,246.039 159.187,247.092 158.654 C 248.529 157.928,249.462 157.011,250.169 155.633 C 250.901 154.206,253.993 151.179,256.129 149.800 C 257.099 149.174,257.956 148.290,258.442 147.417 C 259.431 145.639,262.193 142.865,264.061 141.775 C 265.277 141.065,267.386 138.684,267.386 138.020 C 267.386 137.686,271.479 133.847,271.835 133.847 C 272.487 133.847,274.481 131.950,275.302 130.549 C 276.195 129.026,279.575 125.520,280.151 125.520 C 280.789 125.520,282.789 123.655,283.565 122.337 C 284.656 120.484,287.408 117.684,288.873 116.937 C 290.164 116.278,291.447 114.964,292.198 113.533 C 292.832 112.323,295.755 109.410,296.990 108.757 C 298.461 107.979,299.382 107.094,300.245 105.628 C 301.263 103.899,304.168 100.976,305.590 100.251 C 306.845 99.611,308.122 98.278,308.873 96.827 C 309.520 95.576,312.586 92.603,313.945 91.910 C 315.207 91.266,316.463 89.930,317.248 88.398 C 317.520 87.867,318.104 87.080,318.547 86.650 C 318.990 86.220,319.713 85.436,320.153 84.909 C 320.594 84.382,321.368 83.737,321.873 83.475 C 326.732 80.963,329.437 69.035,327.373 59.222 C 326.376 54.485,323.602 51.010,318.857 48.557 C 316.253 47.210,305.523 46.682,300.611 47.659 M316.036 49.772 C 317.259 50.337,318.424 51.182,319.225 52.085 C 320.796 53.856,321.163 54.223,322.934 55.794 C 325.647 58.200,326.137 59.879,326.137 66.769 C 326.137 74.016,325.780 75.228,322.770 78.180 C 321.732 79.198,320.624 80.447,320.308 80.956 C 318.950 83.142,317.187 85.168,315.562 86.409 C 313.702 87.830,312.943 88.607,310.810 91.277 C 310.069 92.205,308.704 93.567,307.777 94.304 C 305.290 96.282,304.841 96.725,302.913 99.099 C 301.947 100.289,300.122 102.112,298.858 103.151 C 297.593 104.190,295.710 106.075,294.672 107.339 C 293.634 108.603,291.962 110.291,290.957 111.091 C 288.659 112.917,287.775 113.802,285.956 116.096 C 285.157 117.104,283.739 118.538,282.806 119.283 C 280.099 121.446,279.341 122.189,277.957 124.039 C 277.241 124.997,275.927 126.381,275.037 127.115 C 273.013 128.785,270.457 131.342,268.520 133.636 C 267.702 134.605,266.211 135.955,265.207 136.637 C 264.177 137.337,262.825 138.644,262.103 139.640 C 260.282 142.151,258.854 143.600,256.841 144.979 C 255.796 145.696,254.392 147.104,253.371 148.461 C 251.519 150.921,249.959 152.451,247.936 153.790 C 247.230 154.257,245.904 155.650,244.991 156.886 C 244.077 158.121,242.401 159.862,241.266 160.754 C 238.941 162.580,237.746 163.783,235.850 166.205 C 235.130 167.124,233.507 168.727,232.242 169.766 C 230.978 170.805,229.098 172.683,228.065 173.940 C 227.031 175.196,225.158 177.070,223.901 178.103 C 222.645 179.137,220.771 181.010,219.738 182.267 C 218.704 183.523,216.824 185.401,215.560 186.440 C 214.296 187.479,212.450 189.328,211.459 190.549 C 210.468 191.769,208.947 193.354,208.079 194.071 C 206.057 195.740,204.057 197.743,202.348 199.809 C 201.604 200.709,200.008 202.183,198.802 203.084 C 197.595 203.986,195.838 205.472,194.898 206.387 C 192.059 209.149,190.538 209.561,183.192 209.559 C 175.748 209.558,174.874 209.292,171.198 205.908 C 169.879 204.694,168.008 203.098,167.040 202.362 C 166.012 201.581,164.583 200.029,163.607 198.637 C 162.339 196.828,161.418 195.907,159.800 194.831 C 158.625 194.050,157.059 192.674,156.319 191.773 C 155.579 190.872,154.095 189.301,153.021 188.283 C 151.948 187.264,150.074 185.413,148.858 184.169 C 147.641 182.925,145.692 180.982,144.525 179.851 C 143.359 178.720,141.485 176.849,140.362 175.692 C 139.238 174.536,136.984 172.243,135.352 170.598 C 132.198 167.416,131.124 165.696,129.834 161.758 C 129.444 160.571,128.805 159.176,128.413 158.658 C 128.020 158.140,127.348 156.922,126.918 155.950 L 126.137 154.183 126.952 152.573 C 127.400 151.688,128.098 150.529,128.503 149.998 C 128.908 149.466,129.597 147.968,130.034 146.668 C 131.589 142.042,133.586 140.052,138.225 138.502 C 139.804 137.975,141.511 137.260,142.020 136.914 C 142.529 136.567,143.579 135.954,144.353 135.552 L 145.761 134.820 147.120 135.429 C 147.867 135.763,148.923 136.376,149.466 136.790 C 150.009 137.204,151.609 137.907,153.022 138.353 C 157.585 139.791,159.978 141.368,161.953 144.238 C 162.456 144.969,163.629 146.054,164.560 146.650 C 166.727 148.036,168.631 149.945,170.034 152.138 C 170.685 153.156,171.689 154.214,172.464 154.699 C 174.873 156.206,176.694 157.932,177.989 159.934 L 179.269 161.912 183.360 161.912 L 187.451 161.912 188.220 160.601 C 189.470 158.472,191.393 156.496,193.525 155.149 C 195.066 154.176,195.807 153.436,196.770 151.911 C 198.160 149.711,199.687 148.214,202.146 146.641 C 203.300 145.903,204.225 144.940,205.228 143.431 C 206.755 141.133,208.747 139.197,210.858 137.958 C 211.636 137.502,212.533 136.583,213.098 135.665 C 214.487 133.407,216.315 131.552,218.526 130.155 C 219.903 129.286,220.800 128.428,221.538 127.274 C 223.146 124.761,224.428 123.441,226.850 121.807 C 228.402 120.760,229.322 119.874,229.923 118.849 C 231.159 116.740,232.895 114.967,235.187 113.474 C 236.700 112.488,237.517 111.665,238.517 110.120 C 239.830 108.089,242.117 105.909,244.321 104.584 C 244.983 104.187,246.063 102.998,246.881 101.768 C 248.386 99.505,250.387 97.559,252.467 96.338 C 253.278 95.862,254.201 94.877,255.015 93.620 C 256.403 91.474,258.717 89.228,260.797 88.009 C 261.598 87.539,262.487 86.633,263.060 85.703 C 264.374 83.567,266.305 81.548,268.381 80.138 C 269.474 79.396,270.782 78.080,271.812 76.687 C 273.444 74.481,274.779 73.196,277.564 71.154 C 278.327 70.594,279.394 69.463,279.935 68.639 C 281.260 66.623,282.880 64.987,285.210 63.311 C 286.368 62.479,287.637 61.200,288.355 60.142 C 289.725 58.126,291.764 56.227,293.862 55.016 C 294.651 54.560,295.972 53.440,296.797 52.526 C 299.663 49.349,301.654 48.729,308.712 48.816 C 313.943 48.880,314.169 48.909,316.036 49.772 " stroke="none" fill="#bcdcfc" fill-rule="evenodd"></path></g></svg>