<svg xmlns="http://www.w3.org/2000/svg" width="20.211" height="24.081" viewBox="0 0 20.211 24.081">
  <g id="Lease_Icon" data-name="Lease Icon" transform="translate(-74.5 -10.054)">
    <path id="Rectangle_54_-_Outline" data-name="Rectangle 54 - Outline" d="M2.15,2.15h0V21.931s0,0,0,0H18.061V2.15s0,0,0,0H2.15M2.15,0H18.061a2.15,2.15,0,0,1,2.15,2.15V21.931a2.15,2.15,0,0,1-2.15,2.15H2.15A2.15,2.15,0,0,1,0,21.931V2.15A2.15,2.15,0,0,1,2.15,0Z" transform="translate(74.5 10.054)" fill="#007aff"/>
    <path id="Path_116" data-name="Path 116" d="M9.752-.081H-1.04A.96.96,0,0,1-2-1.04.96.96,0,0,1-1.04-2H9.752a.96.96,0,0,1,.96.96A.96.96,0,0,1,9.752-.081Z" transform="translate(80.25 17.377)" fill="#007aff"/>
    <path id="Path_117" data-name="Path 117" d="M9.752-.081H-1.04A.96.96,0,0,1-2-1.04.96.96,0,0,1-1.04-2H9.752a.96.96,0,0,1,.96.96A.96.96,0,0,1,9.752-.081Z" transform="translate(80.25 21.216)" fill="#007aff"/>
    <path id="Path_118" data-name="Path 118" d="M9.752-.081H-1.04A.96.96,0,0,1-2-1.04.96.96,0,0,1-1.04-2H9.752a.96.96,0,0,1,.96.96A.96.96,0,0,1,9.752-.081Z" transform="translate(80.25 25.055)" fill="#007aff"/>
    <path id="Path_119" data-name="Path 119" d="M9.752-.081H-1.04A.96.96,0,0,1-2-1.04.96.96,0,0,1-1.04-2H9.752a.96.96,0,0,1,.96.96A.96.96,0,0,1,9.752-.081Z" transform="translate(80.25 28.894)" fill="#007aff"/>
  </g>
</svg>
