<svg id="svg" xmlns="http://www.w3.org/2000/svg" xmlns:xlink="http://www.w3.org/1999/xlink" width="400" height="400" viewBox="0, 0, 400,400"><g id="svgg"><path id="path0" d="M241.539 22.122 C 207.426 47.276,157.074 98.310,162.064 102.673 C 178.564 117.098,231.127 112.140,247.497 94.613 C 285.745 53.662,322.411 46.932,338.946 77.828 C 360.839 118.736,240.774 233.762,199.835 211.099 C 145.518 181.031,115.300 232.304,168.736 263.869 C 265.040 320.757,440.436 146.662,388.331 45.902 C 362.777 -3.516,291.882 -15.000,241.539 22.122 M134.615 135.079 C -13.089 211.292,-43.854 400.000,91.425 400.000 C 131.963 400.000,238.462 327.347,238.462 299.692 C 238.462 281.477,172.264 287.620,150.000 307.901 C 104.731 349.139,71.765 353.129,58.652 318.957 C 42.701 277.390,161.950 167.748,200.126 188.880 C 226.878 203.688,244.286 202.480,253.548 185.173 C 277.398 140.608,192.886 105.012,134.615 135.079 " stroke="none" fill="#000000" fill-rule="evenodd"></path></g></svg>