<svg id="svg" version="1.1" xmlns="http://www.w3.org/2000/svg" xmlns:xlink="http://www.w3.org/1999/xlink" width="400" height="340.2597402597403" viewBox="0, 0, 400,340.2597402597403"><g id="svgg"><path id="path0" d="M193.353 76.563 C 192.319 76.710,191.151 77.002,190.758 77.212 C 189.470 77.902,186.888 78.315,181.873 78.632 C 177.370 78.918,176.823 79.024,175.648 79.838 C 174.698 80.496,173.483 80.868,171.010 81.258 C 168.412 81.668,167.482 81.963,166.869 82.574 C 166.108 83.332,165.745 83.456,163.015 83.901 C 162.332 84.012,161.198 84.560,160.494 85.119 C 159.790 85.679,158.614 86.232,157.881 86.350 C 157.098 86.475,155.980 87.036,155.177 87.707 C 154.424 88.336,153.506 88.851,153.137 88.851 C 152.218 88.851,151.116 89.482,150.363 90.439 C 150.014 90.882,149.063 91.407,148.222 91.618 C 147.214 91.872,146.477 92.325,146.013 92.978 C 145.629 93.517,145.108 93.957,144.856 93.957 C 144.603 93.957,143.588 94.647,142.601 95.489 C 141.614 96.332,140.692 97.021,140.552 97.021 C 140.411 97.021,139.589 97.634,138.723 98.383 C 137.858 99.132,136.954 99.745,136.715 99.745 C 136.475 99.745,136.107 100.123,135.896 100.586 C 135.685 101.049,134.986 101.648,134.342 101.917 C 133.699 102.186,133.074 102.715,132.954 103.093 C 132.834 103.471,132.206 104.093,131.559 104.474 C 130.912 104.856,130.383 105.409,130.383 105.702 C 130.383 105.996,129.859 106.545,129.219 106.923 C 128.578 107.301,127.897 108.062,127.704 108.615 C 127.505 109.186,126.978 109.764,126.485 109.951 C 126.008 110.132,125.617 110.505,125.617 110.779 C 125.617 111.053,125.004 111.986,124.255 112.851 C 123.506 113.716,122.894 114.539,122.894 114.679 C 122.894 114.820,122.204 115.742,121.362 116.729 C 120.519 117.716,119.830 118.731,119.830 118.983 C 119.830 119.236,119.388 119.758,118.847 120.143 C 118.205 120.600,117.784 121.270,117.633 122.079 C 117.499 122.791,116.921 123.809,116.269 124.480 C 115.630 125.138,114.979 126.276,114.773 127.092 C 114.573 127.887,114.027 128.897,113.560 129.336 C 113.031 129.832,112.572 130.799,112.344 131.896 C 112.113 133.013,111.608 134.065,110.968 134.766 C 110.412 135.374,109.957 136.085,109.957 136.345 C 109.957 137.804,109.103 140.449,108.429 141.074 C 107.896 141.569,107.590 142.360,107.429 143.660 C 106.984 147.242,106.517 149.034,105.875 149.614 C 105.057 150.355,104.949 150.929,104.497 156.936 C 104.217 160.655,103.906 162.502,103.239 164.426 C 102.093 167.730,101.916 178.064,102.968 180.280 C 103.743 181.914,104.382 185.793,104.675 190.638 C 104.886 194.131,105.013 194.708,105.857 195.989 C 106.587 197.098,106.894 198.144,107.207 200.585 C 107.532 203.125,107.773 203.913,108.433 204.603 C 108.966 205.160,109.425 206.274,109.741 207.781 C 110.056 209.286,110.523 210.420,111.067 211.008 C 111.530 211.507,112.088 212.660,112.309 213.570 C 112.529 214.480,113.139 215.782,113.664 216.463 C 114.189 217.145,114.801 218.351,115.024 219.143 C 115.246 219.936,115.729 220.746,116.098 220.943 C 116.811 221.325,117.787 223.316,117.787 224.389 C 117.787 224.745,118.155 225.203,118.604 225.408 C 119.054 225.613,119.686 226.367,120.009 227.083 C 120.332 227.799,120.799 228.463,121.048 228.559 C 121.297 228.654,121.923 229.391,122.440 230.196 C 122.957 231.001,123.884 232.234,124.499 232.937 C 125.114 233.640,125.617 234.439,125.617 234.712 C 125.617 234.986,125.926 235.375,126.303 235.577 C 126.680 235.779,127.364 236.538,127.822 237.264 C 128.280 237.990,128.960 238.681,129.332 238.799 C 129.703 238.917,130.106 239.323,130.226 239.700 C 130.346 240.078,130.905 240.668,131.469 241.011 C 132.032 241.354,132.782 242.109,133.135 242.689 C 133.488 243.270,134.005 243.745,134.283 243.745 C 134.561 243.745,135.121 244.195,135.527 244.745 C 135.934 245.295,136.689 245.920,137.206 246.134 C 137.723 246.348,138.505 246.908,138.945 247.380 C 139.385 247.851,140.281 248.513,140.936 248.851 C 141.591 249.189,142.468 249.859,142.884 250.341 C 143.300 250.823,144.166 251.436,144.808 251.705 C 145.451 251.973,146.069 252.482,146.181 252.835 C 146.309 253.240,146.953 253.628,147.929 253.889 C 148.859 254.138,149.947 254.776,150.663 255.492 C 151.317 256.146,152.192 256.681,152.607 256.682 C 153.449 256.684,155.574 257.866,155.574 258.333 C 155.574 258.498,156.532 258.902,157.702 259.230 C 158.899 259.565,160.319 260.255,160.948 260.807 C 161.724 261.487,162.431 261.787,163.257 261.787 C 164.628 261.787,166.736 262.586,167.284 263.313 C 167.505 263.605,168.954 264.018,170.796 264.312 C 173.938 264.815,174.978 265.173,176.079 266.134 C 176.503 266.503,177.986 266.727,181.356 266.930 C 187.071 267.274,188.199 267.447,190.809 268.378 C 193.852 269.464,203.457 269.457,206.468 268.367 C 208.660 267.574,213.681 266.897,217.433 266.889 C 218.705 266.886,220.069 266.694,220.466 266.463 C 220.863 266.232,221.677 265.765,222.275 265.427 C 222.874 265.088,224.842 264.589,226.648 264.318 C 228.908 263.978,230.028 263.656,230.235 263.285 C 230.632 262.577,232.555 261.787,233.884 261.787 C 235.057 261.787,235.992 261.370,236.937 260.424 C 237.284 260.077,238.498 259.533,239.635 259.214 C 240.772 258.895,241.702 258.498,241.702 258.333 C 241.702 257.869,243.825 256.684,244.660 256.682 C 245.070 256.681,246.091 256.088,246.929 255.363 C 247.766 254.638,248.986 253.944,249.640 253.821 C 250.361 253.686,251.044 253.268,251.378 252.759 C 251.681 252.296,252.464 251.695,253.118 251.421 C 253.772 251.148,254.400 250.684,254.513 250.389 C 254.626 250.095,255.360 249.478,256.146 249.018 C 256.931 248.558,257.931 247.800,258.369 247.334 C 258.806 246.869,259.655 246.326,260.255 246.128 C 260.864 245.927,261.517 245.393,261.733 244.919 C 261.945 244.453,262.496 243.928,262.957 243.753 C 263.417 243.578,264.055 243.037,264.373 242.551 C 264.692 242.065,265.389 241.441,265.923 241.165 C 266.457 240.889,266.894 240.450,266.894 240.190 C 266.894 239.930,267.506 239.231,268.255 238.638 C 269.004 238.045,269.617 237.336,269.617 237.062 C 269.617 236.788,270.076 236.303,270.637 235.984 C 271.201 235.664,271.815 234.931,272.009 234.348 C 272.202 233.767,272.741 232.934,273.207 232.496 C 273.672 232.059,274.430 231.059,274.890 230.273 C 275.350 229.488,275.967 228.753,276.262 228.640 C 276.556 228.527,277.020 227.900,277.294 227.246 C 277.567 226.591,278.169 225.808,278.631 225.505 C 279.141 225.171,279.559 224.488,279.694 223.767 C 279.816 223.114,280.510 221.894,281.235 221.056 C 281.960 220.218,282.554 219.198,282.554 218.788 C 282.556 217.963,283.739 215.830,284.195 215.830 C 284.354 215.830,284.747 214.883,285.069 213.726 C 285.404 212.522,286.083 211.134,286.657 210.480 C 287.358 209.681,287.660 208.980,287.660 208.147 C 287.660 206.706,288.468 204.656,289.138 204.399 C 289.454 204.278,289.769 203.233,290.034 201.425 C 290.546 197.923,290.917 196.704,291.816 195.561 C 292.430 194.780,292.571 193.949,292.819 189.639 C 293.001 186.479,293.365 183.691,293.802 182.100 C 295.423 176.204,295.604 168.501,294.205 164.936 C 293.372 162.811,293.111 161.047,292.786 155.332 C 292.600 152.059,292.385 150.641,292.010 150.211 C 291.048 149.108,290.688 148.072,290.184 144.952 C 289.789 142.512,289.500 141.662,288.840 141.003 C 288.378 140.541,287.999 140.068,287.998 139.954 C 287.981 138.164,287.198 135.612,286.381 134.681 C 285.790 134.008,285.246 132.827,284.981 131.641 C 284.742 130.575,284.402 129.702,284.226 129.702 C 283.736 129.702,282.556 127.590,282.554 126.712 C 282.554 126.278,282.024 125.406,281.356 124.737 C 280.642 124.023,279.995 122.928,279.753 122.026 C 279.499 121.076,279.110 120.436,278.707 120.308 C 278.354 120.196,277.846 119.579,277.577 118.936 C 277.309 118.293,276.695 117.427,276.213 117.012 C 275.732 116.596,275.061 115.719,274.723 115.064 C 274.385 114.409,273.723 113.513,273.252 113.073 C 272.781 112.633,272.220 111.850,272.006 111.334 C 271.792 110.817,271.167 110.062,270.617 109.655 C 270.067 109.248,269.617 108.692,269.617 108.418 C 269.617 108.145,269.088 107.575,268.442 107.152 C 267.796 106.729,267.109 106.036,266.915 105.612 C 266.722 105.188,266.181 104.667,265.714 104.454 C 265.246 104.241,264.772 103.778,264.660 103.425 C 264.548 103.072,263.863 102.408,263.137 101.950 C 262.411 101.491,261.657 100.818,261.462 100.454 C 261.267 100.089,260.762 99.687,260.341 99.560 C 259.919 99.433,259.115 98.911,258.553 98.399 C 257.991 97.887,256.996 97.145,256.340 96.750 C 255.685 96.354,254.715 95.564,254.184 94.994 C 253.653 94.424,253.013 93.957,252.762 93.957 C 252.510 93.957,251.949 93.525,251.514 92.996 C 251.060 92.444,250.088 91.852,249.233 91.607 C 248.413 91.373,247.341 90.746,246.850 90.216 C 246.359 89.685,245.327 89.084,244.556 88.880 C 243.786 88.676,242.603 88.070,241.928 87.534 C 241.253 86.997,240.087 86.460,239.338 86.340 C 238.545 86.213,237.490 85.696,236.814 85.103 C 236.009 84.396,235.144 84.016,233.996 83.866 C 232.163 83.626,230.646 82.975,230.230 82.249 C 230.060 81.953,228.639 81.583,226.453 81.264 C 223.759 80.871,222.648 80.544,221.644 79.849 C 220.457 79.026,219.913 78.917,215.616 78.641 C 210.595 78.319,207.742 77.837,206.203 77.051 C 205.083 76.479,196.289 76.145,193.353 76.563 M209.611 129.559 C 210.029 129.643,210.598 130.151,210.876 130.688 C 211.154 131.228,211.777 131.764,212.266 131.887 C 212.840 132.031,213.318 132.509,213.627 133.249 C 213.936 133.988,214.414 134.466,214.988 134.610 C 215.561 134.754,215.998 135.190,216.226 135.844 C 216.449 136.484,216.892 136.934,217.432 137.069 C 217.966 137.203,218.459 137.698,218.748 138.389 C 219.044 139.097,219.528 139.574,220.095 139.717 C 220.670 139.861,221.148 140.339,221.457 141.079 C 221.760 141.803,222.246 142.296,222.791 142.433 C 223.329 142.568,223.730 142.969,223.865 143.507 C 224.002 144.052,224.495 144.538,225.219 144.841 C 225.959 145.150,226.437 145.628,226.581 146.202 C 226.723 146.770,227.201 147.254,227.909 147.550 C 228.595 147.837,229.095 148.332,229.226 148.856 C 229.354 149.365,229.848 149.871,230.468 150.128 C 231.086 150.384,231.582 150.891,231.709 151.396 C 231.842 151.924,232.298 152.369,232.933 152.590 C 233.578 152.815,234.113 153.344,234.407 154.049 C 234.688 154.721,235.191 155.235,235.689 155.360 C 236.172 155.481,236.685 155.989,236.936 156.596 C 237.193 157.215,237.699 157.710,238.207 157.838 C 238.732 157.969,239.227 158.469,239.514 159.155 C 239.810 159.863,240.294 160.340,240.861 160.483 C 241.436 160.627,241.914 161.105,242.223 161.845 C 242.510 162.531,243.015 163.063,243.494 163.183 C 243.955 163.299,244.525 163.876,244.849 164.556 C 245.156 165.201,245.700 165.822,246.057 165.935 C 247.987 166.547,247.930 171.078,245.981 171.966 C 245.519 172.177,244.988 172.787,244.801 173.323 C 244.614 173.858,244.059 174.479,243.567 174.704 C 243.075 174.928,242.447 175.548,242.171 176.081 C 241.895 176.614,241.291 177.194,240.829 177.370 C 240.366 177.546,239.844 178.068,239.668 178.531 C 239.492 178.993,238.876 179.616,238.298 179.915 C 237.720 180.214,237.103 180.837,236.928 181.299 C 236.752 181.761,236.230 182.284,235.767 182.460 C 235.305 182.635,234.682 183.252,234.383 183.830 C 234.084 184.408,233.461 185.024,232.999 185.200 C 232.536 185.376,232.011 185.907,231.831 186.381 C 231.650 186.855,231.118 187.418,230.647 187.632 C 230.176 187.847,229.489 188.534,229.120 189.160 C 228.751 189.786,228.208 190.298,227.915 190.298 C 227.621 190.298,227.058 190.846,226.662 191.517 C 226.267 192.187,225.580 192.874,225.136 193.043 C 224.692 193.211,224.181 193.737,224.001 194.211 C 223.821 194.685,223.276 195.253,222.790 195.475 C 222.304 195.696,221.681 196.314,221.405 196.847 C 221.129 197.380,220.525 197.960,220.063 198.136 C 219.600 198.312,219.084 198.819,218.915 199.263 C 218.746 199.707,218.059 200.394,217.389 200.790 C 216.719 201.185,216.170 201.749,216.170 202.043 C 216.170 202.336,215.658 202.878,215.033 203.247 C 214.407 203.617,213.717 204.309,213.500 204.786 C 213.282 205.263,212.667 205.806,212.131 205.992 C 211.596 206.179,210.985 206.710,210.775 207.173 C 209.799 209.313,205.795 209.178,204.523 206.961 C 204.206 206.409,203.718 205.957,203.439 205.957 C 202.457 205.957,201.872 204.541,201.872 202.158 C 201.872 199.332,200.975 200.404,215.280 186.128 C 221.236 180.183,226.056 175.283,225.991 175.239 C 225.926 175.195,207.759 175.080,185.621 174.984 L 145.371 174.809 143.749 173.187 L 142.128 171.566 142.128 168.850 L 142.128 166.134 143.583 164.722 C 145.681 162.685,144.177 162.754,186.809 162.738 C 208.200 162.730,225.702 162.599,225.702 162.447 C 225.702 162.296,220.776 157.279,214.754 151.299 C 208.733 145.318,203.448 140.058,203.009 139.609 C 201.015 137.568,201.237 132.149,203.337 131.622 C 203.778 131.511,204.317 131.029,204.535 130.551 C 205.162 129.175,206.454 128.923,209.611 129.559 " stroke="none" fill="#2c2424" fill-rule="evenodd"></path><path id="path1" d="M0.000 170.213 L 0.000 340.426 200.000 340.426 L 400.000 340.426 400.000 170.213 L 400.000 0.000 200.000 0.000 L 0.000 0.000 0.000 170.213 M215.319 75.218 C 216.255 75.415,217.711 75.869,218.553 76.228 C 219.396 76.587,221.387 77.054,222.979 77.264 C 226.233 77.695,228.013 78.175,228.766 78.824 C 229.047 79.067,230.579 79.595,232.170 79.999 C 233.762 80.402,235.370 81.017,235.745 81.363 C 236.119 81.710,237.191 82.180,238.128 82.408 C 240.115 82.891,240.936 83.261,241.872 84.097 C 242.247 84.432,243.206 84.878,244.004 85.090 C 244.803 85.302,245.952 85.907,246.558 86.434 C 247.164 86.961,248.219 87.574,248.903 87.797 C 249.587 88.019,250.555 88.579,251.053 89.041 C 251.552 89.503,252.534 90.175,253.237 90.533 C 253.939 90.891,254.722 91.435,254.977 91.742 C 255.231 92.049,255.911 92.544,256.486 92.841 C 258.076 93.663,263.974 98.684,268.482 103.054 C 271.697 106.171,278.809 114.546,278.809 115.216 C 278.809 115.449,279.131 115.931,279.526 116.288 C 279.920 116.644,280.518 117.472,280.855 118.128 C 281.191 118.783,281.864 119.779,282.351 120.340 C 282.837 120.902,283.410 121.898,283.624 122.553 C 283.837 123.209,284.443 124.240,284.970 124.845 C 285.496 125.451,286.113 126.600,286.340 127.399 C 286.568 128.197,287.027 129.160,287.361 129.537 C 288.076 130.344,289.021 132.499,289.021 133.321 C 289.021 133.638,289.466 134.601,290.009 135.460 C 290.553 136.319,291.190 137.940,291.425 139.064 C 291.660 140.187,292.279 142.026,292.802 143.149 C 293.381 144.394,293.901 146.321,294.135 148.085 C 294.346 149.677,294.811 151.645,295.170 152.460 C 296.505 155.493,296.681 157.857,296.681 172.766 C 296.681 187.658,296.506 190.023,295.176 193.072 C 294.821 193.887,294.301 196.143,294.021 198.086 C 293.668 200.531,293.291 201.915,292.799 202.581 C 292.408 203.110,291.829 204.719,291.514 206.156 C 291.198 207.593,290.600 209.269,290.185 209.881 C 289.770 210.492,289.172 211.889,288.856 212.985 C 288.540 214.082,288.001 215.285,287.657 215.660 C 287.314 216.034,286.730 217.142,286.360 218.122 C 285.989 219.102,285.288 220.378,284.801 220.957 C 284.313 221.536,283.915 222.207,283.915 222.449 C 283.915 222.923,280.602 228.162,279.605 229.266 C 279.272 229.635,278.761 230.401,278.470 230.968 C 277.961 231.962,276.111 234.308,273.672 237.052 C 271.896 239.051,264.089 246.799,262.238 248.399 C 258.182 251.908,257.274 252.605,256.510 252.797 C 256.062 252.909,255.462 253.358,255.176 253.794 C 254.890 254.230,254.308 254.693,253.881 254.822 C 253.455 254.952,252.340 255.634,251.404 256.338 C 250.468 257.042,249.146 257.796,248.467 258.013 C 247.787 258.231,246.962 258.706,246.633 259.070 C 246.304 259.433,245.175 260.051,244.124 260.443 C 243.073 260.835,241.906 261.438,241.532 261.783 C 241.157 262.127,239.954 262.668,238.858 262.984 C 237.761 263.300,236.346 263.910,235.713 264.340 C 235.080 264.770,233.382 265.384,231.940 265.705 C 230.497 266.025,228.925 266.576,228.446 266.928 C 227.967 267.280,226.655 267.726,225.532 267.919 C 220.332 268.810,219.530 268.994,218.119 269.618 C 215.599 270.733,209.516 271.073,195.574 270.879 C 182.836 270.702,181.565 270.583,178.213 269.262 C 177.277 268.893,174.996 268.375,173.144 268.112 C 170.973 267.802,169.462 267.400,168.889 266.978 C 168.400 266.618,166.851 266.050,165.447 265.714 C 164.043 265.379,162.216 264.665,161.388 264.127 C 160.561 263.589,159.598 263.149,159.250 263.149 C 158.380 263.149,156.240 262.224,155.409 261.488 C 155.032 261.155,154.070 260.696,153.271 260.468 C 152.472 260.241,151.303 259.602,150.673 259.048 C 150.043 258.495,149.318 258.042,149.061 258.041 C 148.529 258.040,146.527 256.874,145.788 256.134 C 145.514 255.861,144.732 255.352,144.050 255.004 C 143.367 254.655,142.517 254.048,142.160 253.653 C 141.803 253.259,141.306 252.936,141.055 252.936 C 140.803 252.936,140.023 252.427,139.320 251.805 C 138.617 251.183,137.696 250.439,137.272 250.153 C 133.210 247.407,120.812 234.378,118.843 230.786 C 118.477 230.118,117.946 229.380,117.664 229.146 C 117.382 228.911,116.817 228.080,116.410 227.298 C 116.002 226.515,115.226 225.372,114.685 224.756 C 114.145 224.140,113.702 223.356,113.702 223.014 C 113.702 222.671,113.251 221.824,112.701 221.131 C 112.150 220.438,111.432 219.153,111.105 218.276 C 110.778 217.399,110.174 216.269,109.762 215.765 C 109.351 215.261,108.826 214.035,108.597 213.041 C 108.369 212.047,107.806 210.677,107.348 209.996 C 106.889 209.315,106.237 207.630,105.898 206.251 C 105.559 204.873,104.960 203.205,104.568 202.545 C 104.124 201.801,103.654 199.994,103.327 197.779 C 103.037 195.818,102.500 193.506,102.133 192.641 C 99.894 187.358,99.894 158.174,102.133 152.891 C 102.500 152.026,103.023 149.806,103.296 147.957 C 103.602 145.883,104.125 143.926,104.659 142.850 C 105.136 141.891,105.747 140.133,106.018 138.944 C 106.288 137.754,106.894 136.222,107.365 135.539 C 107.835 134.857,108.364 133.653,108.539 132.865 C 108.714 132.076,109.179 130.927,109.571 130.311 C 109.963 129.695,110.456 128.809,110.665 128.340 C 110.875 127.872,111.336 126.838,111.689 126.043 C 112.043 125.247,112.466 124.596,112.631 124.596 C 112.796 124.596,113.237 123.857,113.613 122.954 C 113.988 122.052,114.851 120.585,115.530 119.694 C 116.210 118.804,116.766 117.869,116.766 117.616 C 116.766 117.363,117.128 116.871,117.571 116.522 C 118.014 116.174,118.485 115.546,118.618 115.127 C 118.751 114.708,119.472 113.641,120.219 112.757 C 120.967 111.872,122.219 110.393,123.002 109.468 C 124.355 107.871,132.596 99.545,134.679 97.671 C 137.025 95.561,139.859 93.323,140.809 92.832 C 141.374 92.539,142.046 92.048,142.301 91.741 C 142.557 91.433,143.465 90.826,144.319 90.393 C 145.173 89.960,146.165 89.282,146.522 88.886 C 146.880 88.491,147.738 88.015,148.429 87.829 C 149.121 87.642,150.083 87.123,150.566 86.675 C 151.050 86.227,152.183 85.588,153.085 85.256 C 153.986 84.924,155.059 84.354,155.469 83.988 C 155.879 83.623,157.245 83.038,158.505 82.689 C 159.764 82.340,161.114 81.757,161.504 81.393 C 161.894 81.030,163.471 80.413,165.009 80.022 C 166.546 79.631,168.321 79.006,168.953 78.634 C 169.626 78.237,171.566 77.737,173.641 77.427 C 175.587 77.136,177.818 76.616,178.597 76.271 C 180.536 75.413,181.764 75.165,185.532 74.868 C 190.054 74.512,213.254 74.784,215.319 75.218 M205.207 133.207 C 203.273 134.358,203.122 135.962,204.779 137.733 C 205.465 138.465,206.125 139.172,206.247 139.304 C 206.369 139.436,211.562 144.600,217.787 150.780 C 228.252 161.168,229.106 162.103,229.106 163.179 C 229.106 165.414,231.929 165.260,187.607 165.447 L 147.234 165.617 145.957 166.638 C 144.181 168.060,144.155 169.680,145.884 171.199 L 147.088 172.255 187.098 172.255 C 227.427 172.255,228.085 172.274,228.846 173.413 C 229.617 174.567,228.602 177.362,227.413 177.362 C 227.231 177.362,226.845 177.819,226.556 178.377 C 226.267 178.936,225.585 179.623,225.040 179.905 C 224.494 180.187,223.954 180.715,223.839 181.078 C 223.724 181.441,223.100 182.050,222.453 182.432 C 221.806 182.814,221.277 183.363,221.277 183.653 C 221.277 183.943,220.802 184.469,220.221 184.822 C 219.641 185.175,218.877 185.939,218.524 186.519 C 218.171 187.100,217.648 187.574,217.362 187.574 C 217.075 187.574,216.552 188.049,216.199 188.630 C 215.846 189.210,215.083 189.974,214.502 190.327 C 213.922 190.680,213.447 191.203,213.447 191.489 C 213.447 191.776,212.972 192.299,212.391 192.652 C 211.811 193.005,211.047 193.768,210.694 194.349 C 210.341 194.929,209.815 195.404,209.525 195.404 C 209.236 195.404,208.686 195.934,208.304 196.581 C 207.922 197.228,207.312 197.852,206.948 197.967 C 206.584 198.083,205.976 198.786,205.596 199.531 C 205.216 200.275,204.695 200.965,204.438 201.064 C 203.855 201.287,204.601 203.312,205.709 204.511 C 206.579 205.453,208.461 205.531,209.745 204.679 C 210.868 203.933,242.680 172.100,243.487 170.915 C 245.249 168.326,245.939 169.187,226.631 149.879 C 207.070 130.318,208.365 131.326,205.207 133.207 " stroke="none" fill="#ffffff" fill-rule="evenodd"></path><path id="path2" d="M185.532 74.868 C 181.764 75.165,180.536 75.413,178.597 76.271 C 177.818 76.616,175.587 77.136,173.641 77.427 C 171.566 77.737,169.626 78.237,168.953 78.634 C 168.321 79.006,166.546 79.631,165.009 80.022 C 163.471 80.413,161.894 81.030,161.504 81.393 C 161.114 81.757,159.764 82.340,158.505 82.689 C 157.245 83.038,155.879 83.623,155.469 83.988 C 155.059 84.354,153.986 84.924,153.085 85.256 C 152.183 85.588,151.050 86.227,150.566 86.675 C 150.083 87.123,149.121 87.642,148.429 87.829 C 147.738 88.015,146.880 88.491,146.522 88.886 C 146.165 89.282,145.173 89.960,144.319 90.393 C 143.465 90.826,142.557 91.433,142.301 91.741 C 142.046 92.048,141.374 92.539,140.809 92.832 C 139.859 93.323,137.025 95.561,134.679 97.671 C 132.596 99.545,124.355 107.871,123.002 109.468 C 122.219 110.393,120.967 111.872,120.219 112.757 C 119.472 113.641,118.751 114.708,118.618 115.127 C 118.485 115.546,118.014 116.174,117.571 116.522 C 117.128 116.871,116.766 117.363,116.766 117.616 C 116.766 117.869,116.210 118.804,115.530 119.694 C 114.851 120.585,113.988 122.052,113.613 122.954 C 113.237 123.857,112.796 124.596,112.631 124.596 C 112.466 124.596,112.043 125.247,111.689 126.043 C 111.336 126.838,110.875 127.872,110.665 128.340 C 110.456 128.809,109.963 129.695,109.571 130.311 C 109.179 130.927,108.714 132.076,108.539 132.865 C 108.364 133.653,107.835 134.857,107.365 135.539 C 106.894 136.222,106.288 137.754,106.018 138.944 C 105.747 140.133,105.136 141.891,104.659 142.850 C 104.125 143.926,103.602 145.883,103.296 147.957 C 103.023 149.806,102.500 152.026,102.133 152.891 C 99.894 158.174,99.894 187.358,102.133 192.641 C 102.500 193.506,103.037 195.818,103.327 197.779 C 103.654 199.994,104.124 201.801,104.568 202.545 C 104.960 203.205,105.559 204.873,105.898 206.251 C 106.237 207.630,106.889 209.315,107.348 209.996 C 107.806 210.677,108.369 212.047,108.597 213.041 C 108.826 214.035,109.351 215.261,109.762 215.765 C 110.174 216.269,110.778 217.399,111.105 218.276 C 111.432 219.153,112.150 220.438,112.701 221.131 C 113.251 221.824,113.702 222.671,113.702 223.014 C 113.702 223.356,114.145 224.140,114.685 224.756 C 115.226 225.372,116.002 226.515,116.410 227.298 C 116.817 228.080,117.382 228.911,117.664 229.146 C 117.946 229.380,118.477 230.118,118.843 230.786 C 120.812 234.378,133.210 247.407,137.272 250.153 C 137.696 250.439,138.617 251.183,139.320 251.805 C 140.023 252.427,140.803 252.936,141.055 252.936 C 141.306 252.936,141.803 253.259,142.160 253.653 C 142.517 254.048,143.367 254.655,144.050 255.004 C 144.732 255.352,145.514 255.861,145.788 256.134 C 146.527 256.874,148.529 258.040,149.061 258.041 C 149.318 258.042,150.043 258.495,150.673 259.048 C 151.303 259.602,152.472 260.241,153.271 260.468 C 154.070 260.696,155.032 261.155,155.409 261.488 C 156.240 262.224,158.380 263.149,159.250 263.149 C 159.598 263.149,160.561 263.589,161.388 264.127 C 162.216 264.665,164.043 265.379,165.447 265.714 C 166.851 266.050,168.400 266.618,168.889 266.978 C 169.462 267.400,170.973 267.802,173.144 268.112 C 174.996 268.375,177.277 268.893,178.213 269.262 C 181.565 270.583,182.836 270.702,195.574 270.879 C 209.516 271.073,215.599 270.733,218.119 269.618 C 219.530 268.994,220.332 268.810,225.532 267.919 C 226.655 267.726,227.967 267.280,228.446 266.928 C 228.925 266.576,230.497 266.025,231.940 265.705 C 233.382 265.384,235.080 264.770,235.713 264.340 C 236.346 263.910,237.761 263.300,238.858 262.984 C 239.954 262.668,241.157 262.127,241.532 261.783 C 241.906 261.438,243.073 260.835,244.124 260.443 C 245.175 260.051,246.304 259.433,246.633 259.070 C 246.962 258.706,247.787 258.231,248.467 258.013 C 249.146 257.796,250.468 257.042,251.404 256.338 C 252.340 255.634,253.455 254.952,253.881 254.822 C 254.308 254.693,254.890 254.230,255.176 253.794 C 255.462 253.358,256.062 252.909,256.510 252.797 C 257.274 252.605,258.182 251.908,262.238 248.399 C 264.089 246.799,271.896 239.051,273.672 237.052 C 276.111 234.308,277.961 231.962,278.470 230.968 C 278.761 230.401,279.272 229.635,279.605 229.266 C 280.602 228.162,283.915 222.923,283.915 222.449 C 283.915 222.207,284.313 221.536,284.801 220.957 C 285.288 220.378,285.989 219.102,286.360 218.122 C 286.730 217.142,287.314 216.034,287.657 215.660 C 288.001 215.285,288.540 214.082,288.856 212.985 C 289.172 211.889,289.770 210.492,290.185 209.881 C 290.600 209.269,291.198 207.593,291.514 206.156 C 291.829 204.719,292.408 203.110,292.799 202.581 C 293.291 201.915,293.668 200.531,294.021 198.086 C 294.301 196.143,294.821 193.887,295.176 193.072 C 296.506 190.023,296.681 187.658,296.681 172.766 C 296.681 157.857,296.505 155.493,295.170 152.460 C 294.811 151.645,294.346 149.677,294.135 148.085 C 293.901 146.321,293.381 144.394,292.802 143.149 C 292.279 142.026,291.660 140.187,291.425 139.064 C 291.190 137.940,290.553 136.319,290.009 135.460 C 289.466 134.601,289.021 133.638,289.021 133.321 C 289.021 132.499,288.076 130.344,287.361 129.537 C 287.027 129.160,286.568 128.197,286.340 127.399 C 286.113 126.600,285.496 125.451,284.970 124.845 C 284.443 124.240,283.837 123.209,283.624 122.553 C 283.410 121.898,282.837 120.902,282.351 120.340 C 281.864 119.779,281.191 118.783,280.855 118.128 C 280.518 117.472,279.920 116.644,279.526 116.288 C 279.131 115.931,278.809 115.449,278.809 115.216 C 278.809 114.546,271.697 106.171,268.482 103.054 C 263.974 98.684,258.076 93.663,256.486 92.841 C 255.911 92.544,255.231 92.049,254.977 91.742 C 254.722 91.435,253.939 90.891,253.237 90.533 C 252.534 90.175,251.552 89.503,251.053 89.041 C 250.555 88.579,249.587 88.019,248.903 87.797 C 248.219 87.574,247.164 86.961,246.558 86.434 C 245.952 85.907,244.803 85.302,244.004 85.090 C 243.206 84.878,242.247 84.432,241.872 84.097 C 240.936 83.261,240.115 82.891,238.128 82.408 C 237.191 82.180,236.119 81.710,235.745 81.363 C 235.370 81.017,233.762 80.402,232.170 79.999 C 230.579 79.595,229.047 79.067,228.766 78.824 C 228.013 78.175,226.233 77.695,222.979 77.264 C 221.387 77.054,219.396 76.587,218.553 76.228 C 217.711 75.869,216.255 75.415,215.319 75.218 C 213.254 74.784,190.054 74.512,185.532 74.868 M208.499 75.581 C 215.549 76.267,229.093 79.594,234.034 81.854 C 235.080 82.332,236.016 82.723,236.115 82.723 C 236.578 82.723,244.539 86.587,246.809 87.914 C 248.213 88.735,249.868 89.703,250.486 90.065 C 251.567 90.698,254.742 92.887,257.470 94.880 C 263.388 99.204,272.198 108.014,276.524 113.934 C 278.515 116.658,280.706 119.837,281.339 120.918 C 284.381 126.113,285.177 127.568,286.609 130.553 C 290.004 137.627,292.964 146.335,294.131 152.681 C 294.510 154.740,295.055 157.498,295.342 158.809 C 296.624 164.657,296.330 182.755,294.846 189.363 C 294.499 190.907,294.025 193.243,293.793 194.553 C 293.561 195.864,292.992 198.085,292.527 199.489 C 292.063 200.894,291.330 203.191,290.898 204.596 C 281.693 234.564,251.103 262.033,220.380 267.920 C 218.345 268.310,215.727 268.852,214.560 269.125 C 207.318 270.820,190.188 270.743,182.015 268.980 C 180.298 268.609,177.974 268.135,176.851 267.926 C 172.248 267.069,162.673 263.739,156.936 261.000 C 150.935 258.134,146.532 255.451,138.894 250.003 C 125.513 240.460,111.428 220.521,106.217 203.745 C 105.694 202.060,105.041 200.068,104.767 199.319 C 104.493 198.570,103.925 196.119,103.506 193.872 C 103.087 191.626,102.534 188.972,102.277 187.975 C 101.121 183.476,100.800 166.507,101.759 160.511 C 105.710 135.789,115.277 117.505,133.076 100.657 C 136.882 97.055,140.892 93.968,146.296 90.480 C 155.676 84.427,167.653 79.528,178.117 77.465 C 180.498 76.995,183.102 76.447,183.904 76.246 C 187.602 75.319,201.842 74.934,208.499 75.581 M204.936 132.322 C 202.584 134.172,202.223 135.944,203.830 137.754 C 204.345 138.334,205.013 139.096,205.316 139.447 C 205.618 139.798,210.952 145.113,217.168 151.259 C 228.211 162.175,228.459 162.451,227.962 163.211 C 227.169 164.420,227.250 164.418,185.780 164.422 L 146.708 164.426 145.184 165.831 C 142.914 167.923,142.945 170.093,145.273 172.085 L 146.864 173.447 187.133 173.541 L 227.401 173.636 227.946 174.467 C 228.490 175.299,228.485 175.304,216.973 186.798 C 203.698 200.053,203.080 200.767,203.352 202.519 C 203.843 205.666,207.780 207.278,210.296 205.362 C 211.851 204.178,243.023 172.990,244.219 171.422 C 246.610 168.286,246.961 168.741,226.166 148.023 C 207.580 129.508,208.061 129.863,204.936 132.322 M226.631 149.879 C 245.939 169.187,245.249 168.326,243.487 170.915 C 242.680 172.100,210.868 203.933,209.745 204.679 C 208.461 205.531,206.579 205.453,205.709 204.511 C 204.601 203.312,203.855 201.287,204.438 201.064 C 204.695 200.965,205.216 200.275,205.596 199.531 C 205.976 198.786,206.584 198.083,206.948 197.967 C 207.312 197.852,207.922 197.228,208.304 196.581 C 208.686 195.934,209.236 195.404,209.525 195.404 C 209.815 195.404,210.341 194.929,210.694 194.349 C 211.047 193.768,211.811 193.005,212.391 192.652 C 212.972 192.299,213.447 191.776,213.447 191.489 C 213.447 191.203,213.922 190.680,214.502 190.327 C 215.083 189.974,215.846 189.210,216.199 188.630 C 216.552 188.049,217.075 187.574,217.362 187.574 C 217.648 187.574,218.171 187.100,218.524 186.519 C 218.877 185.939,219.641 185.175,220.221 184.822 C 220.802 184.469,221.277 183.943,221.277 183.653 C 221.277 183.363,221.806 182.814,222.453 182.432 C 223.100 182.050,223.724 181.441,223.839 181.078 C 223.954 180.715,224.494 180.187,225.040 179.905 C 225.585 179.623,226.267 178.936,226.556 178.377 C 226.845 177.819,227.231 177.362,227.413 177.362 C 228.602 177.362,229.617 174.567,228.846 173.413 C 228.085 172.274,227.427 172.255,187.098 172.255 L 147.088 172.255 145.884 171.199 C 144.155 169.680,144.181 168.060,145.957 166.638 L 147.234 165.617 187.607 165.447 C 231.929 165.260,229.106 165.414,229.106 163.179 C 229.106 162.103,228.252 161.168,217.787 150.780 C 211.562 144.600,206.369 139.436,206.247 139.304 C 206.125 139.172,205.465 138.465,204.779 137.733 C 202.529 135.329,204.167 132.481,207.823 132.441 C 209.163 132.426,209.365 132.613,226.631 149.879 " stroke="none" fill="#ffffff" fill-rule="evenodd"></path><path id="path3" d="M191.489 75.945 C 189.617 76.096,186.706 76.531,185.021 76.910 C 183.336 77.290,180.727 77.749,179.222 77.930 C 177.718 78.112,174.808 78.790,172.754 79.438 C 170.701 80.085,168.255 80.848,167.319 81.132 C 165.341 81.733,159.946 83.960,157.363 85.242 C 156.381 85.729,155.485 86.128,155.372 86.128 C 155.259 86.128,153.645 87.009,151.785 88.085 C 149.926 89.162,147.782 90.389,147.022 90.812 C 146.261 91.235,145.002 92.079,144.224 92.688 C 142.018 94.414,140.877 95.252,139.404 96.229 C 138.655 96.725,137.660 97.476,137.191 97.896 C 136.723 98.316,135.498 99.378,134.468 100.256 C 131.866 102.473,125.710 108.842,124.679 110.383 C 124.209 111.085,123.730 111.661,123.614 111.662 C 123.499 111.663,123.021 112.237,122.553 112.936 C 122.085 113.636,120.822 115.388,119.746 116.830 C 117.585 119.726,116.372 121.617,114.547 124.936 C 113.878 126.153,113.110 127.532,112.840 128.000 C 111.893 129.640,108.936 136.096,108.936 136.524 C 108.936 136.761,108.499 137.889,107.965 139.031 C 107.430 140.172,106.720 142.255,106.385 143.660 C 106.051 145.064,105.590 146.596,105.362 147.064 C 104.802 148.208,103.913 152.210,103.659 154.723 C 103.545 155.847,103.247 157.532,102.995 158.468 C 101.327 164.679,101.212 179.773,102.783 186.282 C 103.158 187.835,103.563 190.026,103.683 191.149 C 103.934 193.502,104.666 196.720,105.361 198.522 C 105.626 199.207,106.155 200.995,106.538 202.495 C 106.921 203.994,107.617 205.984,108.085 206.916 C 108.553 207.847,108.936 208.796,108.936 209.023 C 108.936 209.251,109.626 210.883,110.468 212.650 C 111.311 214.417,112.000 215.948,112.000 216.051 C 112.000 216.154,112.881 217.760,113.957 219.619 C 115.034 221.479,116.238 223.579,116.633 224.286 C 117.028 224.993,117.871 226.259,118.505 227.100 C 119.140 227.942,120.349 229.607,121.191 230.800 C 125.582 237.022,134.473 246.046,139.745 249.631 C 140.494 250.140,142.026 251.244,143.149 252.085 C 144.272 252.926,145.881 254.023,146.723 254.524 C 147.566 255.025,148.485 255.623,148.766 255.853 C 149.725 256.641,160.166 261.830,162.122 262.492 C 163.196 262.855,164.728 263.450,165.526 263.814 C 166.938 264.457,170.625 265.598,175.489 266.896 C 176.800 267.246,179.404 267.778,181.277 268.077 C 183.149 268.377,185.830 268.841,187.234 269.109 C 193.287 270.262,207.042 270.073,212.081 268.767 C 213.126 268.496,215.622 268.044,217.629 267.763 C 219.636 267.481,222.388 266.881,223.745 266.429 C 225.102 265.977,227.433 265.275,228.924 264.870 C 230.416 264.464,231.800 263.996,232.000 263.830 C 232.200 263.664,233.483 263.124,234.851 262.630 C 237.022 261.848,241.587 259.769,243.548 258.671 C 243.907 258.469,244.903 257.922,245.760 257.456 C 246.618 256.989,247.855 256.267,248.511 255.852 C 249.166 255.436,250.411 254.648,251.278 254.101 C 253.321 252.811,256.145 250.830,257.919 249.442 C 258.693 248.836,260.072 247.772,260.983 247.077 C 263.043 245.504,271.067 237.414,273.067 234.892 C 273.884 233.862,275.204 232.138,276.000 231.063 C 276.796 229.987,278.042 228.302,278.768 227.319 C 279.495 226.336,280.356 224.996,280.682 224.340 C 281.007 223.685,281.470 222.919,281.709 222.638 C 282.480 221.735,287.670 211.351,288.332 209.388 C 288.684 208.344,289.365 206.647,289.845 205.617 C 290.324 204.587,290.718 203.468,290.720 203.131 C 290.722 202.793,291.261 200.911,291.917 198.949 C 292.574 196.987,293.332 193.816,293.602 191.903 C 293.872 189.991,294.321 187.430,294.601 186.213 C 296.128 179.560,296.153 165.627,294.647 159.628 C 294.384 158.581,293.930 156.009,293.638 153.913 C 293.345 151.818,292.794 149.228,292.413 148.158 C 292.032 147.088,291.345 144.868,290.886 143.225 C 290.427 141.582,289.831 139.813,289.563 139.294 C 289.294 138.775,288.766 137.438,288.389 136.324 C 287.693 134.267,283.236 125.293,281.585 122.624 C 280.711 121.211,278.882 118.552,276.190 114.779 C 271.823 108.659,263.087 99.793,257.702 96.015 C 257.047 95.555,256.357 95.059,256.170 94.912 C 249.496 89.666,239.033 84.180,229.957 81.169 C 223.515 79.031,220.612 78.239,218.082 77.926 C 216.562 77.739,214.017 77.288,212.426 76.925 C 207.180 75.726,198.954 75.341,191.489 75.945 M206.203 77.051 C 207.742 77.837,210.595 78.319,215.616 78.641 C 219.913 78.917,220.457 79.026,221.644 79.849 C 222.648 80.544,223.759 80.871,226.453 81.264 C 228.639 81.583,230.060 81.953,230.230 82.249 C 230.646 82.975,232.163 83.626,233.996 83.866 C 235.144 84.016,236.009 84.396,236.814 85.103 C 237.490 85.696,238.545 86.213,239.338 86.340 C 240.087 86.460,241.253 86.997,241.928 87.534 C 242.603 88.070,243.786 88.676,244.556 88.880 C 245.327 89.084,246.359 89.685,246.850 90.216 C 247.341 90.746,248.413 91.373,249.233 91.607 C 250.088 91.852,251.060 92.444,251.514 92.996 C 251.949 93.525,252.510 93.957,252.762 93.957 C 253.013 93.957,253.653 94.424,254.184 94.994 C 254.715 95.564,255.685 96.354,256.340 96.750 C 256.996 97.145,257.991 97.887,258.553 98.399 C 259.115 98.911,259.919 99.433,260.341 99.560 C 260.762 99.687,261.267 100.089,261.462 100.454 C 261.657 100.818,262.411 101.491,263.137 101.950 C 263.863 102.408,264.548 103.072,264.660 103.425 C 264.772 103.778,265.246 104.241,265.714 104.454 C 266.181 104.667,266.722 105.188,266.915 105.612 C 267.109 106.036,267.796 106.729,268.442 107.152 C 269.088 107.575,269.617 108.145,269.617 108.418 C 269.617 108.692,270.067 109.248,270.617 109.655 C 271.167 110.062,271.792 110.817,272.006 111.334 C 272.220 111.850,272.781 112.633,273.252 113.073 C 273.723 113.513,274.385 114.409,274.723 115.064 C 275.061 115.719,275.732 116.596,276.213 117.012 C 276.695 117.427,277.309 118.293,277.577 118.936 C 277.846 119.579,278.354 120.196,278.707 120.308 C 279.110 120.436,279.499 121.076,279.753 122.026 C 279.995 122.928,280.642 124.023,281.356 124.737 C 282.024 125.406,282.554 126.278,282.554 126.712 C 282.556 127.590,283.736 129.702,284.226 129.702 C 284.402 129.702,284.742 130.575,284.981 131.641 C 285.246 132.827,285.790 134.008,286.381 134.681 C 287.198 135.612,287.981 138.164,287.998 139.954 C 287.999 140.068,288.378 140.541,288.840 141.003 C 289.500 141.662,289.789 142.512,290.184 144.952 C 290.688 148.072,291.048 149.108,292.010 150.211 C 292.385 150.641,292.600 152.059,292.786 155.332 C 293.111 161.047,293.372 162.811,294.205 164.936 C 295.604 168.501,295.423 176.204,293.802 182.100 C 293.365 183.691,293.001 186.479,292.819 189.639 C 292.571 193.949,292.430 194.780,291.816 195.561 C 290.917 196.704,290.546 197.923,290.034 201.425 C 289.769 203.233,289.454 204.278,289.138 204.399 C 288.468 204.656,287.660 206.706,287.660 208.147 C 287.660 208.980,287.358 209.681,286.657 210.480 C 286.083 211.134,285.404 212.522,285.069 213.726 C 284.747 214.883,284.354 215.830,284.195 215.830 C 283.739 215.830,282.556 217.963,282.554 218.788 C 282.554 219.198,281.960 220.218,281.235 221.056 C 280.510 221.894,279.816 223.114,279.694 223.767 C 279.559 224.488,279.141 225.171,278.631 225.505 C 278.169 225.808,277.567 226.591,277.294 227.246 C 277.020 227.900,276.556 228.527,276.262 228.640 C 275.967 228.753,275.350 229.488,274.890 230.273 C 274.430 231.059,273.672 232.059,273.207 232.496 C 272.741 232.934,272.202 233.767,272.009 234.348 C 271.815 234.931,271.201 235.664,270.637 235.984 C 270.076 236.303,269.617 236.788,269.617 237.062 C 269.617 237.336,269.004 238.045,268.255 238.638 C 267.506 239.231,266.894 239.930,266.894 240.190 C 266.894 240.450,266.457 240.889,265.923 241.165 C 265.389 241.441,264.692 242.065,264.373 242.551 C 264.055 243.037,263.417 243.578,262.957 243.753 C 262.496 243.928,261.945 244.453,261.733 244.919 C 261.517 245.393,260.864 245.927,260.255 246.128 C 259.655 246.326,258.806 246.869,258.369 247.334 C 257.931 247.800,256.931 248.558,256.146 249.018 C 255.360 249.478,254.626 250.095,254.513 250.389 C 254.400 250.684,253.772 251.148,253.118 251.421 C 252.464 251.695,251.681 252.296,251.378 252.759 C 251.044 253.268,250.361 253.686,249.640 253.821 C 248.986 253.944,247.766 254.638,246.929 255.363 C 246.091 256.088,245.070 256.681,244.660 256.682 C 243.825 256.684,241.702 257.869,241.702 258.333 C 241.702 258.498,240.772 258.895,239.635 259.214 C 238.498 259.533,237.284 260.077,236.937 260.424 C 235.992 261.370,235.057 261.787,233.884 261.787 C 232.555 261.787,230.632 262.577,230.235 263.285 C 230.028 263.656,228.908 263.978,226.648 264.318 C 224.842 264.589,222.874 265.088,222.275 265.427 C 221.677 265.765,220.863 266.232,220.466 266.463 C 220.069 266.694,218.705 266.886,217.433 266.889 C 213.681 266.897,208.660 267.574,206.468 268.367 C 203.457 269.457,193.852 269.464,190.809 268.378 C 188.199 267.447,187.071 267.274,181.356 266.930 C 177.986 266.727,176.503 266.503,176.079 266.134 C 174.978 265.173,173.938 264.815,170.796 264.312 C 168.954 264.018,167.505 263.605,167.284 263.313 C 166.736 262.586,164.628 261.787,163.257 261.787 C 162.431 261.787,161.724 261.487,160.948 260.807 C 160.319 260.255,158.899 259.565,157.702 259.230 C 156.532 258.902,155.574 258.498,155.574 258.333 C 155.574 257.866,153.449 256.684,152.607 256.682 C 152.192 256.681,151.317 256.146,150.663 255.492 C 149.947 254.776,148.859 254.138,147.929 253.889 C 146.953 253.628,146.309 253.240,146.181 252.835 C 146.069 252.482,145.451 251.973,144.808 251.705 C 144.166 251.436,143.300 250.823,142.884 250.341 C 142.468 249.859,141.591 249.189,140.936 248.851 C 140.281 248.513,139.385 247.851,138.945 247.380 C 138.505 246.908,137.723 246.348,137.206 246.134 C 136.689 245.920,135.934 245.295,135.527 244.745 C 135.121 244.195,134.561 243.745,134.283 243.745 C 134.005 243.745,133.488 243.270,133.135 242.689 C 132.782 242.109,132.032 241.354,131.469 241.011 C 130.905 240.668,130.346 240.078,130.226 239.700 C 130.106 239.323,129.703 238.917,129.332 238.799 C 128.960 238.681,128.280 237.990,127.822 237.264 C 127.364 236.538,126.680 235.779,126.303 235.577 C 125.926 235.375,125.617 234.986,125.617 234.712 C 125.617 234.439,125.114 233.640,124.499 232.937 C 123.884 232.234,122.957 231.001,122.440 230.196 C 121.923 229.391,121.297 228.654,121.048 228.559 C 120.799 228.463,120.332 227.799,120.009 227.083 C 119.686 226.367,119.054 225.613,118.604 225.408 C 118.155 225.203,117.787 224.745,117.787 224.389 C 117.787 223.316,116.811 221.325,116.098 220.943 C 115.729 220.746,115.246 219.936,115.024 219.143 C 114.801 218.351,114.189 217.145,113.664 216.463 C 113.139 215.782,112.529 214.480,112.309 213.570 C 112.088 212.660,111.530 211.507,111.067 211.008 C 110.523 210.420,110.056 209.286,109.741 207.781 C 109.425 206.274,108.966 205.160,108.433 204.603 C 107.773 203.913,107.532 203.125,107.207 200.585 C 106.894 198.144,106.587 197.098,105.857 195.989 C 105.013 194.708,104.886 194.131,104.675 190.638 C 104.382 185.793,103.743 181.914,102.968 180.280 C 101.916 178.064,102.093 167.730,103.239 164.426 C 103.906 162.502,104.217 160.655,104.497 156.936 C 104.949 150.929,105.057 150.355,105.875 149.614 C 106.517 149.034,106.984 147.242,107.429 143.660 C 107.590 142.360,107.896 141.569,108.429 141.074 C 109.103 140.449,109.957 137.804,109.957 136.345 C 109.957 136.085,110.412 135.374,110.968 134.766 C 111.608 134.065,112.113 133.013,112.344 131.896 C 112.572 130.799,113.031 129.832,113.560 129.336 C 114.027 128.897,114.573 127.887,114.773 127.092 C 114.979 126.276,115.630 125.138,116.269 124.480 C 116.921 123.809,117.499 122.791,117.633 122.079 C 117.784 121.270,118.205 120.600,118.847 120.143 C 119.388 119.758,119.830 119.236,119.830 118.983 C 119.830 118.731,120.519 117.716,121.362 116.729 C 122.204 115.742,122.894 114.820,122.894 114.679 C 122.894 114.539,123.506 113.716,124.255 112.851 C 125.004 111.986,125.617 111.053,125.617 110.779 C 125.617 110.505,126.008 110.132,126.485 109.951 C 126.978 109.764,127.505 109.186,127.704 108.615 C 127.897 108.062,128.578 107.301,129.219 106.923 C 129.859 106.545,130.383 105.996,130.383 105.702 C 130.383 105.409,130.912 104.856,131.559 104.474 C 132.206 104.093,132.834 103.471,132.954 103.093 C 133.074 102.715,133.699 102.186,134.342 101.917 C 134.986 101.648,135.685 101.049,135.896 100.586 C 136.107 100.123,136.475 99.745,136.715 99.745 C 136.954 99.745,137.858 99.132,138.723 98.383 C 139.589 97.634,140.411 97.021,140.552 97.021 C 140.692 97.021,141.614 96.332,142.601 95.489 C 143.588 94.647,144.603 93.957,144.856 93.957 C 145.108 93.957,145.629 93.517,146.013 92.978 C 146.477 92.325,147.214 91.872,148.222 91.618 C 149.063 91.407,150.014 90.882,150.363 90.439 C 151.116 89.482,152.218 88.851,153.137 88.851 C 153.506 88.851,154.424 88.336,155.177 87.707 C 155.980 87.036,157.098 86.475,157.881 86.350 C 158.614 86.232,159.790 85.679,160.494 85.119 C 161.198 84.560,162.332 84.012,163.015 83.901 C 165.745 83.456,166.108 83.332,166.869 82.574 C 167.482 81.963,168.412 81.668,171.010 81.258 C 173.483 80.868,174.698 80.496,175.648 79.838 C 176.823 79.024,177.370 78.918,181.873 78.632 C 186.888 78.315,189.470 77.902,190.758 77.212 C 192.670 76.189,204.278 76.068,206.203 77.051 M205.699 129.392 C 205.277 129.552,204.752 130.073,204.535 130.551 C 204.317 131.029,203.778 131.511,203.337 131.622 C 201.237 132.149,201.015 137.568,203.009 139.609 C 203.448 140.058,208.733 145.318,214.754 151.299 C 220.776 157.279,225.702 162.296,225.702 162.447 C 225.702 162.599,208.200 162.730,186.809 162.738 C 144.177 162.754,145.681 162.685,143.583 164.722 L 142.128 166.134 142.128 168.850 L 142.128 171.566 143.749 173.187 L 145.371 174.809 185.621 174.984 C 207.759 175.080,225.926 175.195,225.991 175.239 C 226.056 175.283,221.236 180.183,215.280 186.128 C 200.975 200.404,201.872 199.332,201.872 202.158 C 201.872 204.541,202.457 205.957,203.439 205.957 C 203.718 205.957,204.206 206.409,204.523 206.961 C 205.795 209.178,209.799 209.313,210.775 207.173 C 210.985 206.710,211.596 206.179,212.131 205.992 C 212.667 205.806,213.282 205.263,213.500 204.786 C 213.717 204.309,214.407 203.617,215.033 203.247 C 215.658 202.878,216.170 202.336,216.170 202.043 C 216.170 201.749,216.719 201.185,217.389 200.790 C 218.059 200.394,218.746 199.707,218.915 199.263 C 219.084 198.819,219.600 198.312,220.063 198.136 C 220.525 197.960,221.129 197.380,221.405 196.847 C 221.681 196.314,222.304 195.696,222.790 195.475 C 223.276 195.253,223.821 194.685,224.001 194.211 C 224.181 193.737,224.692 193.211,225.136 193.043 C 225.580 192.874,226.267 192.187,226.662 191.517 C 227.058 190.846,227.621 190.298,227.915 190.298 C 228.208 190.298,228.751 189.786,229.120 189.160 C 229.489 188.534,230.176 187.847,230.647 187.632 C 231.118 187.418,231.650 186.855,231.831 186.381 C 232.011 185.907,232.536 185.376,232.999 185.200 C 233.461 185.024,234.084 184.408,234.383 183.830 C 234.682 183.252,235.305 182.635,235.767 182.460 C 236.230 182.284,236.752 181.761,236.928 181.299 C 237.103 180.837,237.720 180.214,238.298 179.915 C 238.876 179.616,239.492 178.993,239.668 178.531 C 239.844 178.068,240.366 177.546,240.829 177.370 C 241.291 177.194,241.895 176.614,242.171 176.081 C 242.447 175.548,243.075 174.928,243.567 174.704 C 244.059 174.479,244.614 173.858,244.801 173.323 C 244.988 172.787,245.519 172.177,245.981 171.966 C 247.930 171.078,247.987 166.547,246.057 165.935 C 245.700 165.822,245.156 165.201,244.849 164.556 C 244.525 163.876,243.955 163.299,243.494 163.183 C 243.015 163.063,242.510 162.531,242.223 161.845 C 241.914 161.105,241.436 160.627,240.861 160.483 C 240.294 160.340,239.810 159.863,239.514 159.155 C 239.227 158.469,238.732 157.969,238.207 157.838 C 237.699 157.710,237.193 157.215,236.936 156.596 C 236.685 155.989,236.172 155.481,235.689 155.360 C 235.191 155.235,234.688 154.721,234.407 154.049 C 234.113 153.344,233.578 152.815,232.933 152.590 C 232.298 152.369,231.842 151.924,231.709 151.396 C 231.582 150.891,231.086 150.384,230.468 150.128 C 229.848 149.871,229.354 149.365,229.226 148.856 C 229.095 148.332,228.595 147.837,227.909 147.550 C 227.201 147.254,226.723 146.770,226.581 146.202 C 226.437 145.628,225.959 145.150,225.219 144.841 C 224.495 144.538,224.002 144.052,223.865 143.507 C 223.730 142.969,223.329 142.568,222.791 142.433 C 222.246 142.296,221.760 141.803,221.457 141.079 C 221.148 140.339,220.670 139.861,220.095 139.717 C 219.528 139.574,219.044 139.097,218.748 138.389 C 218.459 137.698,217.966 137.203,217.432 137.069 C 216.892 136.934,216.449 136.484,216.226 135.844 C 215.998 135.190,215.561 134.754,214.988 134.610 C 214.414 134.466,213.936 133.988,213.627 133.249 C 213.318 132.509,212.840 132.031,212.266 131.887 C 211.777 131.764,211.154 131.228,210.876 130.688 C 210.598 130.151,210.029 129.643,209.611 129.559 C 207.733 129.180,206.410 129.124,205.699 129.392 M210.338 131.601 C 212.461 133.442,243.561 164.628,244.851 166.209 C 247.502 169.459,248.254 168.445,228.277 188.540 C 207.648 209.290,208.313 208.804,204.756 205.733 C 200.675 202.210,200.449 202.590,215.731 187.297 C 223.303 179.719,227.671 175.109,227.469 174.907 C 226.635 174.074,222.146 173.973,185.432 173.966 L 146.354 173.957 144.666 172.379 C 143.058 170.874,142.979 170.717,142.979 169.012 C 142.979 167.134,143.128 166.871,145.299 164.926 L 146.427 163.915 186.563 163.745 C 224.689 163.583,226.730 163.544,227.307 162.959 C 227.891 162.369,227.890 162.330,227.281 161.985 C 226.932 161.787,226.377 161.317,226.047 160.940 C 225.717 160.564,225.215 160.027,224.932 159.749 C 224.649 159.470,224.035 158.859,223.567 158.391 C 223.099 157.923,222.507 157.331,222.251 157.075 C 221.996 156.820,221.355 156.186,220.826 155.667 C 220.298 155.148,219.762 154.615,219.635 154.482 C 219.508 154.349,215.852 150.720,211.510 146.416 C 207.168 142.112,203.348 138.184,203.022 137.686 C 200.313 133.552,206.579 128.340,210.338 131.601 " stroke="none" fill="#ffffff" fill-rule="evenodd"></path><path id="path4" d="M188.255 75.604 C 186.664 75.756,184.706 76.045,183.904 76.246 C 183.102 76.447,180.498 76.995,178.117 77.465 C 172.727 78.528,167.197 80.241,161.362 82.654 C 150.806 87.021,140.661 93.478,133.076 100.657 C 115.277 117.505,105.710 135.789,101.759 160.511 C 100.800 166.507,101.121 183.476,102.277 187.975 C 102.534 188.972,103.087 191.626,103.506 193.872 C 103.925 196.119,104.493 198.570,104.767 199.319 C 105.041 200.068,105.694 202.060,106.217 203.745 C 111.428 220.521,125.513 240.460,138.894 250.003 C 146.532 255.451,150.935 258.134,156.936 261.000 C 162.673 263.739,172.248 267.069,176.851 267.926 C 177.974 268.135,180.298 268.609,182.015 268.980 C 190.188 270.743,207.318 270.820,214.560 269.125 C 215.727 268.852,218.345 268.310,220.380 267.920 C 251.103 262.033,281.693 234.564,290.898 204.596 C 291.330 203.191,292.063 200.894,292.527 199.489 C 292.992 198.085,293.561 195.864,293.793 194.553 C 294.025 193.243,294.499 190.907,294.846 189.363 C 296.330 182.755,296.624 164.657,295.342 158.809 C 295.055 157.498,294.510 154.740,294.131 152.681 C 292.964 146.335,290.004 137.627,286.609 130.553 C 285.177 127.568,284.381 126.113,281.339 120.918 C 280.706 119.837,278.515 116.658,276.524 113.934 C 272.198 108.014,263.388 99.204,257.470 94.880 C 254.742 92.887,251.567 90.698,250.486 90.065 C 249.868 89.703,248.213 88.735,246.809 87.914 C 244.539 86.587,236.578 82.723,236.115 82.723 C 236.016 82.723,235.080 82.332,234.034 81.854 C 229.093 79.594,215.549 76.267,208.499 75.581 C 204.512 75.194,192.401 75.207,188.255 75.604 M205.142 75.919 C 207.556 76.109,210.834 76.561,212.426 76.925 C 214.017 77.288,216.562 77.739,218.082 77.926 C 220.612 78.239,223.515 79.031,229.957 81.169 C 239.033 84.180,249.496 89.666,256.170 94.912 C 256.357 95.059,257.047 95.555,257.702 96.015 C 267.629 102.979,278.327 115.935,285.096 129.191 C 286.530 132.000,288.012 135.210,288.389 136.324 C 288.766 137.438,289.294 138.775,289.563 139.294 C 289.831 139.813,290.427 141.582,290.886 143.225 C 291.345 144.868,292.032 147.088,292.413 148.158 C 292.794 149.228,293.345 151.818,293.638 153.913 C 293.930 156.009,294.384 158.581,294.647 159.628 C 296.153 165.627,296.128 179.560,294.601 186.213 C 294.321 187.430,293.872 189.991,293.602 191.903 C 293.332 193.816,292.574 196.987,291.917 198.949 C 291.261 200.911,290.722 202.793,290.720 203.131 C 290.718 203.468,290.324 204.587,289.845 205.617 C 289.365 206.647,288.684 208.344,288.332 209.388 C 287.670 211.351,282.480 221.735,281.709 222.638 C 281.470 222.919,281.007 223.685,280.682 224.340 C 280.356 224.996,279.495 226.336,278.768 227.319 C 278.042 228.302,276.796 229.987,276.000 231.063 C 275.204 232.138,273.884 233.862,273.067 234.892 C 271.067 237.414,263.043 245.504,260.983 247.077 C 260.072 247.772,258.693 248.836,257.919 249.442 C 256.145 250.830,253.321 252.811,251.278 254.101 C 250.411 254.648,249.166 255.436,248.511 255.852 C 247.855 256.267,246.618 256.989,245.760 257.456 C 244.903 257.922,243.907 258.469,243.548 258.671 C 241.587 259.769,237.022 261.848,234.851 262.630 C 233.483 263.124,232.200 263.664,232.000 263.830 C 231.800 263.996,230.416 264.464,228.924 264.870 C 227.433 265.275,225.102 265.977,223.745 266.429 C 222.388 266.881,219.636 267.481,217.629 267.763 C 215.622 268.044,213.126 268.496,212.081 268.767 C 207.042 270.073,193.287 270.262,187.234 269.109 C 185.830 268.841,183.149 268.377,181.277 268.077 C 179.404 267.778,176.800 267.246,175.489 266.896 C 170.625 265.598,166.938 264.457,165.526 263.814 C 164.728 263.450,163.196 262.855,162.122 262.492 C 160.166 261.830,149.725 256.641,148.766 255.853 C 148.485 255.623,147.566 255.025,146.723 254.524 C 145.881 254.023,144.272 252.926,143.149 252.085 C 142.026 251.244,140.494 250.140,139.745 249.631 C 134.473 246.046,125.582 237.022,121.191 230.800 C 120.349 229.607,119.140 227.942,118.505 227.100 C 117.871 226.259,117.028 224.993,116.633 224.286 C 116.238 223.579,115.034 221.479,113.957 219.619 C 112.881 217.760,112.000 216.154,112.000 216.051 C 112.000 215.948,111.311 214.417,110.468 212.650 C 109.626 210.883,108.936 209.251,108.936 209.023 C 108.936 208.796,108.553 207.847,108.085 206.916 C 107.617 205.984,106.921 203.994,106.538 202.495 C 106.155 200.995,105.626 199.207,105.361 198.522 C 104.666 196.720,103.934 193.502,103.683 191.149 C 103.563 190.026,103.158 187.835,102.783 186.282 C 101.212 179.773,101.327 164.679,102.995 158.468 C 103.247 157.532,103.545 155.847,103.659 154.723 C 103.913 152.210,104.802 148.208,105.362 147.064 C 105.590 146.596,106.051 145.064,106.385 143.660 C 106.720 142.255,107.430 140.172,107.965 139.031 C 108.499 137.889,108.936 136.761,108.936 136.524 C 108.936 136.096,111.893 129.640,112.840 128.000 C 113.110 127.532,113.878 126.153,114.547 124.936 C 116.372 121.617,117.585 119.726,119.746 116.830 C 120.822 115.388,122.085 113.636,122.553 112.936 C 123.021 112.237,123.499 111.663,123.614 111.662 C 123.730 111.661,124.209 111.085,124.679 110.383 C 125.710 108.842,131.866 102.473,134.468 100.256 C 135.498 99.378,136.723 98.316,137.191 97.896 C 137.660 97.476,138.655 96.725,139.404 96.229 C 140.877 95.252,142.018 94.414,144.224 92.688 C 145.002 92.079,146.261 91.235,147.022 90.812 C 147.782 90.389,149.926 89.162,151.785 88.085 C 153.645 87.009,155.259 86.128,155.372 86.128 C 155.485 86.128,156.381 85.729,157.363 85.242 C 159.946 83.960,165.341 81.733,167.319 81.132 C 168.255 80.848,170.701 80.085,172.754 79.438 C 174.808 78.790,177.718 78.112,179.222 77.930 C 180.727 77.749,183.336 77.290,185.021 76.910 C 190.385 75.703,197.757 75.339,205.142 75.919 M204.505 131.893 C 200.636 135.368,200.886 135.886,211.510 146.416 C 215.852 150.720,219.508 154.349,219.635 154.482 C 219.762 154.615,220.298 155.148,220.826 155.667 C 221.355 156.186,221.996 156.820,222.251 157.075 C 222.507 157.331,223.099 157.923,223.567 158.391 C 224.035 158.859,224.649 159.470,224.932 159.749 C 225.215 160.027,225.717 160.564,226.047 160.940 C 226.377 161.317,226.932 161.787,227.281 161.985 C 227.890 162.330,227.891 162.369,227.307 162.959 C 226.730 163.544,224.689 163.583,186.563 163.745 L 146.427 163.915 145.299 164.926 C 143.128 166.871,142.979 167.134,142.979 169.012 C 142.979 170.717,143.058 170.874,144.666 172.379 L 146.354 173.957 185.432 173.966 C 222.146 173.973,226.635 174.074,227.469 174.907 C 227.671 175.109,223.303 179.719,215.731 187.297 C 200.449 202.590,200.675 202.210,204.756 205.733 C 208.313 208.804,207.648 209.290,228.277 188.540 C 248.254 168.445,247.502 169.459,244.851 166.209 C 243.561 164.628,212.461 133.442,210.338 131.601 C 208.250 129.790,206.764 129.864,204.505 131.893 M208.914 131.427 C 209.903 131.803,241.427 162.971,243.783 165.903 C 246.697 169.530,247.522 168.390,227.428 188.506 C 207.376 208.579,208.228 207.953,204.964 205.021 C 201.655 202.049,201.570 202.178,216.973 186.798 C 228.485 175.304,228.490 175.299,227.946 174.467 L 227.401 173.636 187.133 173.541 L 146.864 173.447 145.273 172.085 C 142.945 170.093,142.914 167.923,145.184 165.831 L 146.708 164.426 185.780 164.422 C 227.250 164.418,227.169 164.420,227.962 163.211 C 228.459 162.451,228.211 162.175,217.168 151.259 C 210.952 145.113,205.618 139.798,205.316 139.447 C 205.013 139.096,204.345 138.334,203.830 137.754 C 201.273 134.874,205.181 130.011,208.914 131.427 " stroke="none" fill="#ffffff" fill-rule="evenodd"></path></g></svg>