<svg id="Component_171_4" data-name="Component 171 – 4" xmlns="http://www.w3.org/2000/svg" width="40" height="40" viewBox="0 0 40 40">
  <g id="Rectangle_12" data-name="Rectangle 12" fill="#fff" stroke="#000000" stroke-width="1">
    <rect width="40" height="40" rx="5" stroke="none"/>
    <rect x="0.5" y="0.5" width="39" height="39" rx="4.5" fill="none"/>
  </g>
  <g id="eye-svgrepo-com_2_" data-name="eye-svgrepo-com(2)" transform="translate(4.965 -87.687)">
    <path id="Path_155" data-name="Path 155" d="M15.035,98.725c-5.745,0-10.955,3.143-14.8,8.249a1.19,1.19,0,0,0,0,1.421c3.844,5.112,9.054,8.255,14.8,8.255s10.955-3.143,14.8-8.249a1.19,1.19,0,0,0,0-1.421C25.99,101.868,20.78,98.725,15.035,98.725ZM15.447,114a6.324,6.324,0,1,1,5.9-5.9A6.328,6.328,0,0,1,15.447,114Zm-.191-2.916a3.405,3.405,0,1,1,3.18-3.18A3.4,3.4,0,0,1,15.256,111.083Z" transform="translate(0 0)" fill="#000000"/>
  </g>
</svg>
