<svg id="Component_10_1" data-name="Component 10 – 1" xmlns="http://www.w3.org/2000/svg" width="40" height="40" viewBox="0 0 40 40">
  <g id="Rectangle_11" data-name="Rectangle 11" fill="#fff" stroke="#007aff" stroke-width="1">
    <rect width="40" height="40" rx="5" stroke="none"/>
    <rect x="0.5" y="0.5" width="39" height="39" rx="4.5" fill="none"/>
  </g>
  <path id="Icon_ionic-ios-call" data-name="Icon ionic-ios-call" d="M28.768,24.077a21,21,0,0,0-4.386-2.935c-1.315-.631-1.8-.618-2.727.052-.774.56-1.276,1.08-2.167.885s-2.649-1.523-4.354-3.222S12.1,15.4,11.912,14.5s.332-1.393.885-2.167c.67-.931.69-1.412.052-2.727A20.584,20.584,0,0,0,9.914,5.223c-.957-.957-1.171-.748-1.7-.56a9.666,9.666,0,0,0-1.555.827A4.692,4.692,0,0,0,4.792,7.461c-.371.8-.8,2.291,1.386,6.183a34.5,34.5,0,0,0,6.066,8.09h0l.007.007.007.007h0a34.634,34.634,0,0,0,8.09,6.066C24.238,30,25.729,29.57,26.529,29.2A4.612,4.612,0,0,0,28.5,27.331a9.666,9.666,0,0,0,.827-1.555C29.516,25.249,29.731,25.034,28.768,24.077Z" transform="translate(3.01 2.998)" fill="#007aff"/>
</svg>
