<svg id="account_box_black_24dp" xmlns="http://www.w3.org/2000/svg" width="30" height="30" viewBox="0 0 30 30">
  <path id="Path_106" data-name="Path 106" d="M0,0H30V30H0Z" fill="none"/>
  <path id="Path_107" data-name="Path 107" d="M3,5.667V24.333A2.666,2.666,0,0,0,5.667,27H24.333A2.675,2.675,0,0,0,27,24.333V5.667A2.675,2.675,0,0,0,24.333,3H5.667A2.666,2.666,0,0,0,3,5.667ZM19,11a4,4,0,1,1-4-4A3.995,3.995,0,0,1,19,11ZM7,21.667c0-2.667,5.333-4.133,8-4.133S23,19,23,21.667V23H7Z" fill="#007aff"/>
</svg>
