<svg id="Component_168_2" data-name="Component 168 – 2" xmlns="http://www.w3.org/2000/svg" width="113" height="113" viewBox="0 0 113 113">
  <g id="Rectangle_55" data-name="Rectangle 55" fill="#f5f5f5" stroke="#c4c4c4" stroke-width="1">
    <rect width="113" height="113" stroke="none"/>
    <rect x="0.5" y="0.5" width="112" height="112" fill="none"/>
  </g>
  <g id="construction_black_24dp" transform="translate(26.5 26.5)">
    <g id="Group_1" data-name="Group 1">
      <rect id="Rectangle_4" data-name="Rectangle 4" width="60" height="60" fill="none"/>
    </g>
    <g id="Group_3" data-name="Group 3" transform="translate(3.74 5.263)">
      <g id="Group_2" data-name="Group 2">
          <path id="Icon_awesome-building" data-name="Icon awesome-building" d="M43.795,48.214H41.786V2.411A2.411,2.411,0,0,0,39.375,0H5.625A2.411,2.411,0,0,0,3.214,2.411v45.8H1.205A1.205,1.205,0,0,0,0,49.42v2.009H45V49.42A1.205,1.205,0,0,0,43.795,48.214ZM12.857,7.634a1.205,1.205,0,0,1,1.205-1.205H18.08a1.205,1.205,0,0,1,1.205,1.205v4.018a1.205,1.205,0,0,1-1.205,1.205H14.063a1.205,1.205,0,0,1-1.205-1.205Zm0,9.643a1.205,1.205,0,0,1,1.205-1.205H18.08a1.205,1.205,0,0,1,1.205,1.205v4.018A1.205,1.205,0,0,1,18.08,22.5H14.063a1.205,1.205,0,0,1-1.205-1.205ZM18.08,32.143H14.063a1.205,1.205,0,0,1-1.205-1.205V26.92a1.205,1.205,0,0,1,1.205-1.205H18.08a1.205,1.205,0,0,1,1.205,1.205v4.018A1.205,1.205,0,0,1,18.08,32.143Zm7.634,16.071H19.286V39.777a1.205,1.205,0,0,1,1.205-1.205h4.018a1.205,1.205,0,0,1,1.205,1.205Zm6.429-17.277a1.205,1.205,0,0,1-1.205,1.205H26.92a1.205,1.205,0,0,1-1.205-1.205V26.92a1.205,1.205,0,0,1,1.205-1.205h4.018a1.205,1.205,0,0,1,1.205,1.205Zm0-9.643A1.205,1.205,0,0,1,30.938,22.5H26.92a1.205,1.205,0,0,1-1.205-1.205V17.277a1.205,1.205,0,0,1,1.205-1.205h4.018a1.205,1.205,0,0,1,1.205,1.205Zm0-9.643a1.205,1.205,0,0,1-1.205,1.205H26.92a1.205,1.205,0,0,1-1.205-1.205V7.634A1.205,1.205,0,0,1,26.92,6.429h4.018a1.205,1.205,0,0,1,1.205,1.205Z" fill="#007aff"/>
          </g>
    </g>
  </g>
</svg>
