<svg xmlns="http://www.w3.org/2000/svg" width="45" height="51.429" viewBox="0 0 45 51.429">
  <path id="Icon_awesome-building" data-name="Icon awesome-building" d="M43.795,48.214H41.786V2.411A2.411,2.411,0,0,0,39.375,0H5.625A2.411,2.411,0,0,0,3.214,2.411v45.8H1.205A1.205,1.205,0,0,0,0,49.42v2.009H45V49.42A1.205,1.205,0,0,0,43.795,48.214ZM12.857,7.634a1.205,1.205,0,0,1,1.205-1.205H18.08a1.205,1.205,0,0,1,1.205,1.205v4.018a1.205,1.205,0,0,1-1.205,1.205H14.063a1.205,1.205,0,0,1-1.205-1.205Zm0,9.643a1.205,1.205,0,0,1,1.205-1.205H18.08a1.205,1.205,0,0,1,1.205,1.205v4.018A1.205,1.205,0,0,1,18.08,22.5H14.063a1.205,1.205,0,0,1-1.205-1.205ZM18.08,32.143H14.063a1.205,1.205,0,0,1-1.205-1.205V26.92a1.205,1.205,0,0,1,1.205-1.205H18.08a1.205,1.205,0,0,1,1.205,1.205v4.018A1.205,1.205,0,0,1,18.08,32.143Zm7.634,16.071H19.286V39.777a1.205,1.205,0,0,1,1.205-1.205h4.018a1.205,1.205,0,0,1,1.205,1.205Zm6.429-17.277a1.205,1.205,0,0,1-1.205,1.205H26.92a1.205,1.205,0,0,1-1.205-1.205V26.92a1.205,1.205,0,0,1,1.205-1.205h4.018a1.205,1.205,0,0,1,1.205,1.205Zm0-9.643A1.205,1.205,0,0,1,30.938,22.5H26.92a1.205,1.205,0,0,1-1.205-1.205V17.277a1.205,1.205,0,0,1,1.205-1.205h4.018a1.205,1.205,0,0,1,1.205,1.205Zm0-9.643a1.205,1.205,0,0,1-1.205,1.205H26.92a1.205,1.205,0,0,1-1.205-1.205V7.634A1.205,1.205,0,0,1,26.92,6.429h4.018a1.205,1.205,0,0,1,1.205,1.205Z" fill="#007aff"/>
</svg>
