<svg xmlns="http://www.w3.org/2000/svg" width="43.801" height="38.326" viewBox="0 0 43.801 38.326">
  <path id="Icon_material-stop-screen-share" data-name="Icon material-stop-screen-share" d="M38.727,32.325l3.65,3.65H43.8v-3.65Zm1.405-3.65.018-18.25a3.649,3.649,0,0,0-3.65-3.65H13.177l9.545,9.545c.329-.073.657-.128,1-.183V12.249l7.3,6.807L28.142,21.74,38.253,31.85a3.618,3.618,0,0,0,1.88-3.176ZM4.362,2.6,2.026,4.913,4.836,7.723a3.62,3.62,0,0,0-1.186,2.7v18.25a3.649,3.649,0,0,0,3.65,3.65H0v3.65H33.088l4.946,4.946L40.351,38.6ZM12.775,26.85a14.1,14.1,0,0,1,3.778-7.41l2.9,2.9A11.364,11.364,0,0,0,12.775,26.85Z" transform="translate(0 -2.595)" fill="#007aff"/>
</svg>
