<?xml version="1.0" encoding="UTF-8"?>
<svg width="700pt" height="700pt" version="1.1" viewBox="0 0 700 700" fill="#ff0000" xmlns="http://www.w3.org/2000/svg" xmlns:xlink="http://www.w3.org/1999/xlink">

 

 <g>
  <path d="m250.32 185.36c25.762-31.922 57.68-47.602 97.441-47.602 75.039 0 136.08 52.078 136.08 115.92h13.441c0-71.121-67.199-129.36-149.52-129.36-44.801 0-80.641 17.922-109.76 54.32l-35.84-19.602 2.2383 95.199 81.762-49.84zm-33.602-2.8008 42 22.961-40.879 25.199z"/>

  <path d="m495.04 306.32-81.762 49.281 36.398 20.16c-25.199 31.359-57.121 46.48-95.762 46.48-73.922 0-134.4-50.961-134.4-114.24h-13.441c0 70.559 66.641 127.68 147.84 127.68 44.238 0 79.52-17.359 108.08-53.762l35.281 19.039zm-54.32 48.719 40.879-25.199 1.1211 48.16z"/>

 </g>
</svg>
