<svg xmlns="http://www.w3.org/2000/svg" xmlns:xlink="http://www.w3.org/1999/xlink" width="50" height="50" viewBox="0 0 50 50">
  <defs>
    <clipPath id="clip-path">
      <rect id="Rectangle_4" data-name="Rectangle 4" width="50" height="50" transform="translate(0.5)" fill="none"/>
    </clipPath>
  </defs>
  <g id="construction_black_24dp" transform="translate(-0.5)">
    <g id="Group_1" data-name="Group 1">
      <g id="Mask_Group_1" data-name="Mask Group 1" clip-path="url(#clip-path)">
        <g id="engineering_black_24dp">
          <g id="Group_7" data-name="Group 7">
            <rect id="Rectangle_8" data-name="Rectangle 8" width="50" height="50" transform="translate(0.5)" fill="none"/>
          </g>
          <g id="Group_9" data-name="Group 9" transform="translate(2.083 6.25)">
            <g id="Group_8" data-name="Group 8">
              <path id="Path_7" data-name="Path 7" d="M18.75,31.25c-5.563,0-16.667,2.792-16.667,8.333V43.75H35.417V39.583C35.417,34.042,24.313,31.25,18.75,31.25ZM6.25,39.583c.458-1.5,6.9-4.167,12.5-4.167,5.625,0,12.083,2.688,12.5,4.167Z" transform="translate(-2.083 -6.25)" fill="#007aff"/>
              <path id="Path_8" data-name="Path 8" d="M9.875,18.75h.542a8.333,8.333,0,0,0,16.667,0h.542a1.022,1.022,0,0,0,1.021-1.021v-.042a1.022,1.022,0,0,0-1.021-1.021h-.542a8.327,8.327,0,0,0-4.167-7.187v1.979a1.042,1.042,0,1,1-2.083,0V8.625a8.522,8.522,0,0,0-2.083-.292,8.522,8.522,0,0,0-2.083.292v2.833a1.042,1.042,0,1,1-2.083,0V9.479a8.327,8.327,0,0,0-4.167,7.187H9.875a1.022,1.022,0,0,0-1.021,1.021v.063A1.018,1.018,0,0,0,9.875,18.75Zm13.042,0a4.167,4.167,0,0,1-8.333,0Z" transform="translate(-2.083 -6.25)" fill="#007aff"/>
              <path id="Path_9" data-name="Path 9" d="M45.792,12.979l1.938-1.729L46.167,8.542l-2.479.813a4.13,4.13,0,0,0-.979-.562L42.188,6.25H39.063l-.521,2.542a4.733,4.733,0,0,0-1,.563l-2.458-.812L33.521,11.25l1.938,1.729a4.71,4.71,0,0,0,0,1.083l-1.937,1.771,1.563,2.708,2.5-.792a4.788,4.788,0,0,0,.9.521l.583,2.563h3.125l.563-2.542a4.959,4.959,0,0,0,.917-.521l2.479.792,1.563-2.708-1.937-1.771A4.937,4.937,0,0,0,45.792,12.979Zm-5.167,3.167a2.6,2.6,0,1,1,2.6-2.6A2.605,2.605,0,0,1,40.625,16.146Z" transform="translate(-2.083 -6.25)" fill="#007aff"/>
              <path id="Path_10" data-name="Path 10" d="M40.417,22.479l-1.771.583a2.813,2.813,0,0,0-.687-.4l-.375-1.833H35.354l-.375,1.813a3.881,3.881,0,0,0-.708.4l-1.75-.583L31.4,24.4l1.375,1.229a4.76,4.76,0,0,0,0,.771L31.4,27.667,32.521,29.6l1.792-.563a4.007,4.007,0,0,0,.646.375l.375,1.833h2.229l.4-1.812a4.2,4.2,0,0,0,.667-.375l1.771.563,1.125-1.938-1.375-1.271a4.759,4.759,0,0,0,0-.771l1.375-1.229ZM36.458,27.9a1.854,1.854,0,1,1,1.854-1.854A1.858,1.858,0,0,1,36.458,27.9Z" transform="translate(-2.083 -6.25)" fill="#007aff"/>
            </g>
          </g>
        </g>
      </g>
    </g>
  </g>
</svg>
