<svg xmlns="http://www.w3.org/2000/svg" xmlns:xlink="http://www.w3.org/1999/xlink" width="111" height="99" viewBox="0 0 111 99">
  <defs>
    <clipPath id="clip-path">
      <rect id="Rectangle_4" data-name="Rectangle 4" width="50" height="50" transform="translate(0.5)" fill="none"/>
    </clipPath>
  </defs>
  <g id="Group_606" data-name="Group 606" transform="translate(-430 -283)">
    <g id="Rectangle_6" data-name="Rectangle 6" transform="translate(430 283)" fill="#fff" stroke="#131413" stroke-width="1">
      <rect width="111" height="99" rx="5" stroke="none"/>
      <rect x="0.5" y="0.5" width="110" height="98" rx="4.5" fill="none"/>
    </g>
    <text id="Resident_Announcements" data-name="Resident
Announcements" transform="translate(482 359)" font-size="11" font-family="SFProDisplay-Semibold, SF Pro Display" font-weight="600"><tspan x="-21" y="0">Resident</tspan><tspan x="-40" y="11">Announcements</tspan></text>
    <g id="construction_black_24dp" transform="translate(460.5 293)">
      <g id="Group_1" data-name="Group 1">
        <g id="Mask_Group_3" data-name="Mask Group 3" clip-path="url(#clip-path)">
          <g id="campaign_black_24dp">
            <g id="Group_13" data-name="Group 13">
              <rect id="Rectangle_10" data-name="Rectangle 10" width="50" height="50" transform="translate(0.5)" fill="none"/>
            </g>
            <path id="Path_13" data-name="Path 13" d="M37.5,22.917v4.167h8.333V22.917Z" fill="#007aff"/>
            <path id="Path_14" data-name="Path 14" d="M33.333,36.688c2,1.479,4.6,3.438,6.667,4.979.833-1.1,1.667-2.229,2.5-3.333-2.062-1.542-4.667-3.5-6.667-5C35,34.458,34.167,35.583,33.333,36.688Z" fill="#007aff"/>
            <path id="Path_15" data-name="Path 15" d="M42.5,11.667c-.833-1.1-1.667-2.229-2.5-3.333-2.062,1.542-4.667,3.5-6.667,5,.833,1.1,1.667,2.229,2.5,3.333C37.833,15.167,40.438,13.229,42.5,11.667Z" fill="#007aff"/>
            <path id="Path_16" data-name="Path 16" d="M8.333,18.75a4.179,4.179,0,0,0-4.167,4.167v4.167A4.179,4.179,0,0,0,8.333,31.25h2.083v8.333h4.167V31.25h2.083L27.083,37.5v-25L16.667,18.75Zm10.479,3.563,4.1-2.458V30.146l-4.1-2.458-1-.6H8.333V22.917h9.479Z" fill="#007aff"/>
            <path id="Path_17" data-name="Path 17" d="M32.292,25a9.333,9.333,0,0,0-3.125-6.979V31.958A9.255,9.255,0,0,0,32.292,25Z" fill="#007aff"/>
          </g>
        </g>
      </g>
    </g>
  </g>
</svg>
