<svg id="recent_actors_black_24dp" xmlns="http://www.w3.org/2000/svg" width="30" height="30" viewBox="0 0 30 30">
  <path id="Path_104" data-name="Path 104" d="M0,0H30V30H0Z" fill="none"/>
  <path id="Path_105" data-name="Path 105" d="M26.455,5V25H29V5ZM21.364,25h2.545V5H21.364ZM17.545,5H2.273A1.361,1.361,0,0,0,1,6.429V23.571A1.361,1.361,0,0,0,2.273,25H17.545a1.361,1.361,0,0,0,1.273-1.429V6.429A1.361,1.361,0,0,0,17.545,5ZM9.909,8.929a3.059,3.059,0,0,1,2.864,3.214,3.059,3.059,0,0,1-2.864,3.214,3.059,3.059,0,0,1-2.864-3.214A3.059,3.059,0,0,1,9.909,8.929Zm5.727,13.214H4.182V21.071c0-2.143,3.818-3.214,5.727-3.214s5.727,1.071,5.727,3.214Z" transform="translate(0 0)" fill="#c4c4c4"/>
</svg>
