<svg xmlns="http://www.w3.org/2000/svg" width="28.051" height="28.051" viewBox="0 0 28.051 28.051">
  <g id="settings-svgrepo-com" transform="translate(0 0)">
    <path id="Path_149" data-name="Path 149" d="M1.186,16.145l1.838.011a11.184,11.184,0,0,0,1.644,4.038L3.362,21.488a1.193,1.193,0,0,0-.011,1.684L4.759,24.6a1.193,1.193,0,0,0,1.684.011l1.306-1.294A11.12,11.12,0,0,0,11.769,25l-.011,1.838a1.19,1.19,0,0,0,1.185,1.2l2,.011a1.19,1.19,0,0,0,1.2-1.185l.011-1.838a11.183,11.183,0,0,0,4.038-1.644l1.294,1.306a1.193,1.193,0,0,0,1.684.011L24.6,23.292a1.193,1.193,0,0,0,.011-1.684L23.315,20.3A11.12,11.12,0,0,0,25,16.282l1.838.011a1.19,1.19,0,0,0,1.2-1.185l.011-2a1.19,1.19,0,0,0-1.185-1.2L25.027,11.9a11.184,11.184,0,0,0-1.644-4.038l1.306-1.294A1.193,1.193,0,0,0,24.7,4.88L23.292,3.454a1.193,1.193,0,0,0-1.684-.011L20.3,4.736a11.12,11.12,0,0,0-4.02-1.689l.011-1.838a1.19,1.19,0,0,0-1.185-1.2L13.1,0a1.19,1.19,0,0,0-1.2,1.185l-.017,1.838A11.1,11.1,0,0,0,7.852,4.668L6.558,3.362a1.193,1.193,0,0,0-1.684-.011L3.454,4.759a1.193,1.193,0,0,0-.011,1.684L4.736,7.749a11.12,11.12,0,0,0-1.689,4.02l-1.838-.011a1.19,1.19,0,0,0-1.2,1.185l-.011,2A1.194,1.194,0,0,0,1.186,16.145Zm9.083-5.916a5.333,5.333,0,1,1-.04,7.542A5.33,5.33,0,0,1,10.269,10.229Z" transform="translate(0 0)" fill="#007aff"/>
  </g>
</svg>
