<?xml version="1.0" standalone="no"?>
<!DOCTYPE svg PUBLIC "-//W3C//DTD SVG 20010904//EN"
 "http://www.w3.org/TR/2001/REC-SVG-20010904/DTD/svg10.dtd">
<svg version="1.0" xmlns="http://www.w3.org/2000/svg"
 width="1024.000000pt" height="1024.000000pt" viewBox="0 0 1024.000000 1024.000000"
 preserveAspectRatio="xMidYMid meet">

<g transform="translate(0.000000,1024.000000) scale(0.100000,-0.100000)"
fill="#000000" stroke="none">
<path d="M2316 10224 c-212 -42 -376 -131 -528 -287 -210 -215 -353 -558 -410
-982 -19 -148 -19 -7522 0 -7670 87 -652 367 -1085 796 -1231 298 -102 627
-60 998 127 92 46 5831 3638 6003 3757 295 204 523 470 630 734 122 303 122
593 0 895 -98 244 -311 502 -570 692 -102 74 -5896 3713 -6015 3777 -99 54
-264 122 -359 150 -183 53 -396 68 -545 38z"/>
</g>
</svg>
