<svg xmlns="http://www.w3.org/2000/svg" width="42.118" height="50.183" viewBox="0 0 42.118 50.183">
  <g id="Lease_Icon" data-name="Lease Icon" transform="translate(-74.5 -10.054)">
    <path id="Rectangle_54_-_Outline" data-name="Rectangle 54 - Outline" d="M4.481,4.481h0V45.7s0,0,0,0H37.637V4.481s0,0,0,0H4.481M4.481,0H37.637a4.481,4.481,0,0,1,4.481,4.481V45.7a4.481,4.481,0,0,1-4.481,4.481H4.481A4.481,4.481,0,0,1,0,45.7V4.481A4.481,4.481,0,0,1,4.481,0Z" transform="translate(74.5 10.054)" fill="#c4c4c4"/>
    <path id="Path_116" data-name="Path 116" d="M22.49,2H0A2,2,0,0,1-2,0,2,2,0,0,1,0-2H22.49a2,2,0,0,1,2,2A2,2,0,0,1,22.49,2Z" transform="translate(84.314 23.146)" fill="#c4c4c4"/>
    <path id="Path_117" data-name="Path 117" d="M22.49,2H0A2,2,0,0,1-2,0,2,2,0,0,1,0-2H22.49a2,2,0,0,1,2,2A2,2,0,0,1,22.49,2Z" transform="translate(84.314 31.146)" fill="#c4c4c4"/>
    <path id="Path_118" data-name="Path 118" d="M22.49,2H0A2,2,0,0,1-2,0,2,2,0,0,1,0-2H22.49a2,2,0,0,1,2,2A2,2,0,0,1,22.49,2Z" transform="translate(84.314 39.146)" fill="#c4c4c4"/>
    <path id="Path_119" data-name="Path 119" d="M22.49,2H0A2,2,0,0,1-2,0,2,2,0,0,1,0-2H22.49a2,2,0,0,1,2,2A2,2,0,0,1,22.49,2Z" transform="translate(84.314 47.146)" fill="#c4c4c4"/>
  </g>
</svg>
